STARTFONT 2.1
FONT -HP-Sung-Medium-R-Normal--34-340-75-75-C-340-CNS11643.1992-2
SIZE 34 75 75
FONTBOUNDINGBOX 34 34 0 -2

STARTPROPERTIES 23
FONTNAME_REGISTRY ""
FOUNDRY "HP"
FAMILY_NAME "Sung"
WEIGHT_NAME "Medium"
SLANT "R"
SETWIDTH_NAME "Normal"
ADD_STYLE_NAME ""
PIXEL_SIZE 34
POINT_SIZE 340
RESOLUTION_X 75
RESOLUTION_Y 75
SPACING "C"
AVERAGE_WIDTH 340
CHARSET_REGISTRY "CNS11643.1992"
CHARSET_ENCODING "2"
COPYRIGHT "Copyright (c) 1994 Hewlett-Packard Company."
_HP_ASXVERSION "@(#) ASX 3.00 $Revision: 13.9 $ sung34n2"
WEIGHT 10
X_HEIGHT 27
QUAD_WIDTH 34
DEFAULT_CHAR 29253
FONT_DESCENT 2
FONT_ASCENT 32
ENDPROPERTIES

CHARS 7651

STARTCHAR cns2_2121
ENCODING 8481
SWIDTH 960 0
DWIDTH 34 0
BBX 34 34 0 -2
BITMAP
0000000000
0000000000
0000000000
0000007000
0080007000
00C0006000
00C000E000
006000E000
006000C000
003001C000
0030018000
0038038000
0018030000
0018070000
000C060000
00060E0000
00061C0000
0003180000
0001B80000
0001F00000
0000E00000
0000F00000
0001B80000
00071C0000
000E0E0000
001C078000
003801C000
00E000F000
0180003E00
0700001F80
0C00000000
1000000000
0000000000
0000000000
ENDCHAR

STARTCHAR cns2_2122
ENCODING 8482
SWIDTH 960 0
DWIDTH 34 0
BBX 34 34 0 -2
BITMAP
0000000000
0000000000
0000000000
0180000000
01C0000000
0180000000
0180001800
0180003E00
018003FC00
01803E0C00
0183E00C00
01BE000C00
03E0000C00
3F80000C00
2180000C00
0180000C00
0180001800
0180001800
0180001800
0180003800
0180003000
018007F000
018001E200
0180000200
0180000300
0180000300
0180000300
01C0000700
00E0000F00
007FFFFC00
000FFF0000
0000000000
0000000000
0000000000
ENDCHAR

STARTCHAR cns2_2123
ENCODING 8483
SWIDTH 960 0
DWIDTH 34 0
BBX 34 34 0 -2
BITMAP
0000000000
0000000000
0000000000
0000000000
0E00000E00
0C00000C00
0C00000C00
0C00000C00
0C00000C00
0C00000C00
0C00000C00
0C00000C00
0C00000C00
0C00000C00
0C00000C00
0C00000C00
0C00000C00
0C00000C00
0C00000C00
0C00000C00
0C00000C00
0C00000C00
0C00000C00
0C00000C00
0C00000C00
0C00000C00
0C00000C00
0FFFFFFC00
0C00000C00
0C00000C00
0000000000
0000000000
0000000000
0000000000
ENDCHAR

STARTCHAR cns2_2124
ENCODING 8484
SWIDTH 960 0
DWIDTH 34 0
BBX 34 34 0 -2
BITMAP
0000000000
0000000000
0000000000
0C00003800
0FFFFFFC00
0C00000000
0C00000000
0C00000000
0C00000000
0C00000000
0C00000000
0C00000000
0C00000000
0C00000000
0C00000000
0C00000000
0C00000000
0C00000000
0C00000000
0C00000000
0C00000000
0C00000000
0C00000000
0C00000000
0C00000000
0C00000000
0C00000000
0C00001C00
0FFFFFFE00
0C00000000
0C00000000
0000000000
0000000000
0000000000
ENDCHAR

STARTCHAR cns2_2125
ENCODING 8485
SWIDTH 960 0
DWIDTH 34 0
BBX 34 34 0 -2
BITMAP
0000000000
0000000000
0000000000
0600000600
07FFFFFF00
0600000000
0600000000
0600000000
0600000000
0600000000
0600000000
0600000000
0600000000
0600000000
0600000000
0600000000
0600000000
0600000000
0600000000
0600000000
0600000000
0600000000
0600000000
0600000000
0C00000000
0C00000000
0C00000000
0C00000000
0800000000
1800000000
1000000000
3000000000
0000000000
0000000000
ENDCHAR

STARTCHAR cns2_2126
ENCODING 8486
SWIDTH 960 0
DWIDTH 34 0
BBX 34 34 0 -2
BITMAP
0000000000
0000000000
0000000000
0000000600
1FFFFFFF00
0003000000
0003000000
0003000000
0003000000
0003000000
0003000000
0003000000
0006000000
0006003000
0007FFF800
0006003800
000C003000
000C003000
000C003000
0018003000
0018003000
0030003000
0030003000
0060003000
0060006000
00C0006000
01C0006000
038000E000
070000C000
0E00E1C000
18007F8000
30000E0000
0000000000
0000000000
ENDCHAR

STARTCHAR cns2_2127
ENCODING 8487
SWIDTH 960 0
DWIDTH 34 0
BBX 34 34 0 -2
BITMAP
0000000000
0000000000
0000000000
0000000000
0000000E00
1FFFFFFF00
000C060000
000C060000
000C060000
000C060000
000C060000
000C060000
000C060000
000C060000
000C060000
000C060000
000C060000
000C060000
000C060000
001C060000
0018060000
0018060000
0018060000
0038060000
0030060000
0070060000
00E0060000
01C0060000
0380060000
0600060000
0800060000
0000000000
0000000000
0000000000
ENDCHAR

STARTCHAR cns2_2128
ENCODING 8488
SWIDTH 960 0
DWIDTH 34 0
BBX 34 34 0 -2
BITMAP
0000000000
0000000000
0000000000
000001C000
000007C000
00003E0000
0001F80000
001F000000
0FFB000000
0003000000
0003000000
0003000000
0003000000
0003000000
0003000000
0003001780
0003017F00
0003FFE800
01FFF40000
1FEB000000
0003000000
0003000000
0003000000
0003000000
0003000000
0003000200
0003000200
0003000300
0003000300
0003800780
0001FFFF00
0000000000
0000000000
0000000000
ENDCHAR

STARTCHAR cns2_2129
ENCODING 8489
SWIDTH 960 0
DWIDTH 34 0
BBX 34 34 0 -2
BITMAP
0000000000
0000000000
0000000000
0000003800
07FFFFFC00
0000000000
0000000000
0000000000
0000000000
0000000000
0000000000
0000000E00
1FFFFFFF00
0000C00000
0000C00000
0000C00000
0000C00000
0000C00000
0000C00000
0000C00000
0000C00000
0000C00000
0000C00000
0000C00000
0000C00000
0000C00000
0000C00000
0000C00000
0000C00000
0001C00000
003F800000
0007000000
0000000000
0000000000
ENDCHAR

STARTCHAR cns2_212A
ENCODING 8490
SWIDTH 960 0
DWIDTH 34 0
BBX 34 34 0 -2
BITMAP
0000000000
0000000000
0000000000
0600000C00
07FFFFFE00
0600000C00
0600000C00
0600000C00
0600000C00
0600000C00
0600000C00
0600000C00
0600000C00
0600000C00
0600000C00
0600000C00
0600000C00
0600000C00
0600000C00
0600000C00
0600000C00
0600000C00
0600000C00
0600000C00
0600000C00
0600000C00
0600000C00
0600000C00
07FFFFFC00
0600000C00
0600000C00
0000000000
0000000000
0000000000
ENDCHAR

STARTCHAR cns2_212B
ENCODING 8491
SWIDTH 960 0
DWIDTH 34 0
BBX 34 34 0 -2
BITMAP
0000000000
0000000000
0001800000
0001800000
0001800000
0001800000
0801803000
0E01803800
0C01803000
0C01803000
0C01803000
0C01803000
0C01803000
0C01803000
0C01803000
0C01803000
0C01803000
0C01803000
0C01803000
0FFFFFF000
0C01803000
0C01803000
0001800000
0001800000
0001800000
0001800000
0001800000
0001800000
0001800000
0001800000
0001800000
0001800000
0001800000
0000000000
ENDCHAR

STARTCHAR cns2_212C
ENCODING 8492
SWIDTH 960 0
DWIDTH 34 0
BBX 34 34 0 -2
BITMAP
0000000000
0000000000
000000C000
000001C000
0000038000
00000F0000
00001E0000
0000380000
0000F00000
0001C07000
000700F000
001C01C000
01E0038000
0000070000
00000E0000
0000380000
0000700000
0001F00000
0007B00000
001E300000
0070300000
0780300000
0000300000
0000300000
0000300000
0000300000
0000300000
0000300000
0000300000
0000300000
0000300000
0000300000
0000000000
0000000000
ENDCHAR

STARTCHAR cns2_212D
ENCODING 8493
SWIDTH 960 0
DWIDTH 34 0
BBX 34 34 0 -2
BITMAP
0000000000
0000000000
0000000000
0000001E00
1FFFFFFF00
0000C00000
0000C00000
0000C00000
0000C00000
0380C00000
0300C00C00
0300FFFE00
0300C00E00
0300C00C00
0300C00C00
0700C00C00
0700C00C00
0700C00C00
07FFFFFC00
0600001800
0600001800
0000001800
0000001800
0000001800
0000003800
0000003800
0000003000
0000007000
0000006000
000000C000
00007FC000
0000070000
0000000000
0000000000
ENDCHAR

STARTCHAR cns2_212E
ENCODING 8494
SWIDTH 960 0
DWIDTH 34 0
BBX 34 34 0 -2
BITMAP
0000000000
0002000000
0003000000
0007000000
0006000000
0006000300
1FFFFFFF80
000C000000
001C000000
0018000000
0038000000
0070006000
007FFFF000
00F0006000
01F0006000
01B0006000
0330006000
0630006000
0C30006000
1830006000
2030006000
0030006000
0030006000
0030006000
0030006000
0030006000
0030006000
0030006000
0030006000
00301FE000
003007C000
0030008000
0000000000
0000000000
ENDCHAR

STARTCHAR cns2_212F
ENCODING 8495
SWIDTH 960 0
DWIDTH 34 0
BBX 34 34 0 -2
BITMAP
0000000000
0000000000
0060000000
0060000000
0060000000
00C0000000
00C0000C00
00FFFFFE00
00C0000000
0180000000
0180000000
0180000000
0180000000
0300001800
03FFFFFC00
0380001800
0200001800
0000001800
0000001800
0000001800
0000061800
1FFFFF3800
0000003000
0000003000
0000003000
0000007000
0000006000
0000006000
000000E000
000000C000
00007F8000
0000070000
0000000000
0000000000
ENDCHAR

STARTCHAR cns2_2130
ENCODING 8496
SWIDTH 960 0
DWIDTH 34 0
BBX 34 34 0 -2
BITMAP
0000000000
0000000000
0000000000
000000E000
0FFFFFF000
000C00E000
000C00C000
000C00C000
000C00C000
000C00C000
000C00C000
000C30C000
07FFF8C000
000C00C000
000C00C000
000C00C000
000C00C000
000C00C000
000C186000
07FFFC6000
000C006000
000C006000
000C006000
000C006000
000C003100
000C003100
000C001900
000C001B00
000C000F80
000C000780
0008000300
0000000000
0000000000
0000000000
ENDCHAR

STARTCHAR cns2_2131
ENCODING 8497
SWIDTH 960 0
DWIDTH 34 0
BBX 34 34 0 -2
BITMAP
0000000000
0000000000
0000000000
0000003000
07FFFFF800
0000000000
0000000000
0000000000
0000000000
0000000000
0000000600
3FFFFFFF00
0018030000
0018030000
0018030000
0018030000
0018030000
0018030000
0018030000
0018030000
0018030000
0018030000
0030030000
0030030000
0030030000
0060030000
0060030000
00C0030000
0180030000
0300030000
0400030000
0800000000
0000000000
0000000000
ENDCHAR

STARTCHAR cns2_2132
ENCODING 8498
SWIDTH 960 0
DWIDTH 34 0
BBX 34 34 0 -2
BITMAP
0000000000
0060000000
00601C0000
0060180000
00C0180000
00C0180000
0180180000
0180180000
0380180000
0300180300
071FFFFF80
0700180700
0F00180600
0F00180600
1B00180600
1B00180600
3300380600
2300300600
4300300600
0300300600
0300300600
0300700600
0300600600
0300600600
0300C00600
0301800600
0303800E00
0303000C00
03061E3C00
030C07F800
031000E000
0320000000
0000000000
0000000000
ENDCHAR

STARTCHAR cns2_2133
ENCODING 8499
SWIDTH 960 0
DWIDTH 34 0
BBX 34 34 0 -2
BITMAP
0000000000
0000000000
00E0000000
00E0406000
00E07FF000
00C0607000
01C0606000
0180606000
0380606000
0300606000
0300606000
0700606000
0700606000
0F00606000
0F00606000
1B00606000
1B00606000
3300606000
2300606000
0300606000
0300606000
0300606000
0300C06000
0300C06000
0300C06000
0301C06100
0301C06300
0301806300
0303806300
0303006380
0306007F80
030C003F00
0000000000
0000000000
ENDCHAR

STARTCHAR cns2_2134
ENCODING 8500
SWIDTH 960 0
DWIDTH 34 0
BBX 34 34 0 -2
BITMAP
0000000000
0000000000
01C0000000
01C00E0000
01C0060000
0180030000
0380030000
0300030000
0700030000
0601818000
0601818000
0E01818000
0E01818000
1E0180C000
1E0180C000
360180C000
260300C000
060300C000
0603006000
0603006000
0603006000
0606007000
0606003000
0606003800
060C001800
060C001800
0618001C00
0618000E00
0630000700
0630000780
0660000200
0640000000
0000000000
0000000000
ENDCHAR

STARTCHAR cns2_2135
ENCODING 8501
SWIDTH 960 0
DWIDTH 34 0
BBX 34 34 0 -2
BITMAP
0000000000
0000000000
0000E00000
0000C00000
0000C00000
0000C00000
0400C00000
0400C00700
0FFFFFFF80
0C00C00700
0C00C00E00
0C00C01C00
1C00C01800
3800C03000
1000C00000
0001F00000
0001E00000
0001600000
0001600000
0003600000
0003600000
0003600000
0007600000
0006600000
000C600600
001C600600
0038600600
0070600E00
00E0600E00
0380701C00
06003FF800
1800000000
2000000000
0000000000
ENDCHAR

STARTCHAR cns2_2136
ENCODING 8502
SWIDTH 960 0
DWIDTH 34 0
BBX 34 34 0 -2
BITMAP
0000000000
0000000000
0038000000
0030000000
0070000000
0060000000
00E0000700
00FFFFFF80
01C0000700
0380000600
0300000600
0700000600
0E30000600
0C30000600
1830000600
2030C00600
07FFE00600
0030C00600
0030C00600
0030C00600
0060C00600
0060C20600
0060C60600
00C0C70600
00C0FF0600
01807E0C00
0380000C00
0700000C00
0C00001C00
1000103800
00000FF000
000001E000
0000000000
0000000000
ENDCHAR

STARTCHAR cns2_2137
ENCODING 8503
SWIDTH 960 0
DWIDTH 34 0
BBX 34 34 0 -2
BITMAP
0000000000
0000000000
0003800000
0007800000
001E0C0600
02F00FFF00
03000C0700
03000C0600
03000C0600
03000C0600
03000C0600
03000C0600
03000C0600
03000C0600
03000C0600
03000C0600
03000C0600
03000C0600
03000C0600
03000C0600
03020C0600
031C0C0600
03F00C0600
0F800C0600
3E000D8600
00000CFC00
00000C1C00
00000C0000
00000C0000
00000C0000
00000C0000
00000C0000
0000000000
0000000000
ENDCHAR

STARTCHAR cns2_2138
ENCODING 8504
SWIDTH 960 0
DWIDTH 34 0
BBX 34 34 0 -2
BITMAP
0000000000
0000000000
000E000000
000C000000
000C000000
000C000000
000C030000
0FFFFF8000
000C030000
000C030000
000C030000
0018030000
0018030000
0018030000
0038030300
0030030300
0060030300
00C0030780
038181FF80
0601C00000
3803800000
0003800000
0007000000
0006000000
000E010000
000C01C000
0018006000
0030003000
002003DC00
004FFE0E00
0FFEC00600
0000000600
0000000000
0000000000
ENDCHAR

STARTCHAR cns2_2139
ENCODING 8505
SWIDTH 960 0
DWIDTH 34 0
BBX 34 34 0 -2
BITMAP
0000000000
0000000000
0000000000
0180180000
0180180000
0180180000
0180180000
0180180000
0180180000
0180180000
0180180000
018C180000
3FFE180000
0180180000
0180180000
0180180000
0180180000
0180180000
0180180000
0180180000
0180180000
0184180000
01B8180000
01E0180000
0780180300
3E00180300
3800180300
0000180300
0000180700
00001E1E00
000007FC00
0000000000
0000000000
0000000000
ENDCHAR

STARTCHAR cns2_213A
ENCODING 8506
SWIDTH 960 0
DWIDTH 34 0
BBX 34 34 0 -2
BITMAP
0000000000
0000000000
0000000000
0000030000
0FFFFF8000
0000030000
0000030000
0038060000
0030060000
0030060000
00300C0000
0030CC0C00
007FEFFE00
0060C00C00
00C0C00C00
00C0C00C00
0181800C00
01F1800C00
031D800C00
0607000C00
0007000C00
0003800C00
0006C00C00
000CE00C00
0018700C00
0070201800
00C0001800
0380001800
0000003000
0000007000
00000FE000
000003C000
0000000000
0000000000
ENDCHAR

STARTCHAR cns2_213B
ENCODING 8507
SWIDTH 960 0
DWIDTH 34 0
BBX 34 34 0 -2
BITMAP
0000000000
0000000000
0001C00000
0001800000
0001800000
0001800000
0001800000
000180C000
03FFFFE000
000180C000
000180C000
000180C000
000180C000
000180C000
000180C000
000180C000
000180C000
000380CC00
1FFFFFFE00
0003C00000
0003400000
0007600000
0006200000
000C300000
000C180000
00180C0000
0038060000
0070038000
00C001C000
038000F800
0E00003E00
3800000000
0000000000
0000000000
ENDCHAR

STARTCHAR cns2_213C
ENCODING 8508
SWIDTH 960 0
DWIDTH 34 0
BBX 34 34 0 -2
BITMAP
0000000000
0000000000
0000600000
0000600000
0000600000
0020600000
0078618000
007060E000
00E0603000
01C0601C00
0380600E00
0300600700
0600600700
0C00600300
180FC00000
2001800000
0000000000
0000000000
0C00000000
0600000000
0300000000
01C0000000
00E0000000
0070000000
0038000000
001E000000
000FC00000
0003F80000
0001FF8000
00003FF800
000007FF80
000000FE00
0000003C00
0000000000
ENDCHAR

STARTCHAR cns2_213D
ENCODING 8509
SWIDTH 960 0
DWIDTH 34 0
BBX 34 34 0 -2
BITMAP
0000000000
0000C00000
0000E00000
0000C00000
0000C00000
0000C00300
3FFFFFFF80
0000C00000
0000C00000
0000C00000
0000C00000
0000C00000
0300C01800
03FFFFFC00
0300C01C00
0300C01800
0300C01800
0300C01800
0300C01800
0300C01800
0300C01800
0300C01800
0300C01800
0300C01800
0300C01800
0300C01800
0300C7F800
0300C0F000
0000C00000
0000C00000
0000C00000
0000C00000
0000000000
0000000000
ENDCHAR

STARTCHAR cns2_213E
ENCODING 8510
SWIDTH 960 0
DWIDTH 34 0
BBX 34 34 0 -2
BITMAP
0000000000
0000000000
0000000000
0300003000
03FFFFF800
0300C00000
0300C00000
0300C00000
0300C00000
0300C00000
0300C00000
0300C00000
0300C00600
3FFFFFFF00
0000C00000
0001800000
0001E00000
0001E00000
0003600000
0003600000
0006600000
0006600000
000C600000
001C600000
0038600600
0070600600
00E0600600
01C0600600
0380600E00
0600703C00
18001FF000
2000000000
0000000000
0000000000
ENDCHAR

STARTCHAR cns2_213F
ENCODING 8511
SWIDTH 960 0
DWIDTH 34 0
BBX 34 34 0 -2
BITMAP
0000000000
0000000000
0060180000
007FFC0000
0060180000
0060180000
0060180000
0060180400
00C0180400
00C0180400
00C0180E00
0180180E00
03801C1C00
06000FF800
0C00000000
1000000000
0000000000
000000C000
07FFFFE000
006001C000
0030038000
0038070000
001C0E0000
000E1C0000
0003B80000
0001F00000
0000E00000
0003B80000
000E1F0000
003803C000
03E0007F00
3E00000E00
0000000000
0000000000
ENDCHAR

STARTCHAR cns2_2140
ENCODING 8512
SWIDTH 960 0
DWIDTH 34 0
BBX 34 34 0 -2
BITMAP
0000000000
0000000000
0180003000
01FFFFF800
0180C03800
0180C03000
0180C03000
0180C03000
0180C03000
0180C03000
0180C03000
0180C03000
0180C03000
0180C03300
3FFFFFFF80
0180C03000
0180C03000
0300C03000
0300C03000
0300C03000
0300C06000
0300C06000
0301806000
0301806000
0301806000
0601806600
07FFFFFF00
060000E000
060000C000
000001C000
00007F8000
0000070000
0000000000
0000000000
ENDCHAR

STARTCHAR cns2_2141
ENCODING 8513
SWIDTH 960 0
DWIDTH 34 0
BBX 34 34 0 -2
BITMAP
0000000000
0000000000
0060000000
00E0000000
00E0000000
00C0003C00
01FFFFFE00
0380000000
0380000000
070001C000
067FFFE000
0C00000000
1800000000
3000000000
000000E000
07FFFFF000
0000006000
0000006000
0000006000
0000006000
0000006000
0000006000
0000006000
0000006000
0000006080
0000003180
0000003180
0000003980
0000001B80
0000001F80
0000000F00
0000000300
0000000000
0000000000
ENDCHAR

STARTCHAR cns2_2142
ENCODING 8514
SWIDTH 960 0
DWIDTH 34 0
BBX 34 34 0 -2
BITMAP
0000000000
0000000000
000E00E000
000C00C000
000C00C000
000C00C000
000C00C000
000C00C000
000C00C000
000C00C000
000C00C000
000FFFC000
000C00C000
000C00C000
000000C000
000000C000
000000C000
000000C000
000000C000
000FFFC000
000C00C000
000C00C000
001C00C000
001800C000
001800C000
001800C000
003000C000
003000C000
006000C000
00C000C000
018000C000
020000C000
0000000000
0000000000
ENDCHAR

STARTCHAR cns2_2143
ENCODING 8515
SWIDTH 960 0
DWIDTH 34 0
BBX 34 34 0 -2
BITMAP
0000000000
0000000000
000E0E0000
000C0C0000
000C0C0000
000C0C0000
000C0C0000
0E0C0C0E00
0C0C0C0C00
0C0C0C0C00
0C0C0C0C00
0C0C0C0C00
0C0C0C0C00
0C0C0C0C00
0C0C0C0C00
0C0C0C0C00
0C0C0C0C00
0C0C0C0C00
0C0C0C0C00
0FFC0FFC00
0C0C0C0C00
0C0C0C0C00
00080C0000
00180C0000
00180C0000
00180C0000
00300C0000
00700C0000
00C00C0000
01800C0000
07000C0000
1800000000
0000000000
0000000000
ENDCHAR

STARTCHAR cns2_2144
ENCODING 8516
SWIDTH 960 0
DWIDTH 34 0
BBX 34 34 0 -2
BITMAP
0000000000
0020000000
0030038000
0030030000
0030030000
0030030000
0030030000
0030030000
0030030E00
1FFFFFFF00
0030030000
0030030000
0032030000
0031830000
0030C30000
0030630000
0030730000
0030330000
0030030000
0030030000
0030030700
3FFFFFFF80
0070030000
0060030000
0060030000
00C0030000
01C0030000
0180030000
0300030000
0600030000
0C00030000
1800030000
0000000000
0000000000
ENDCHAR

STARTCHAR cns2_2145
ENCODING 8517
SWIDTH 960 0
DWIDTH 34 0
BBX 34 34 0 -2
BITMAP
0000000000
0000000000
0070000000
0070000000
0060000000
00E0000000
00C0001C00
01C7FFFE00
0180000000
0380000000
0380000000
0780000000
0780000000
0F80000000
0D80000000
1980000000
3180003000
0181FFF800
0180000000
0180000000
0180000000
0180000000
0180000000
0180000000
0180000000
0180000000
0180000000
0180000700
019FFFFF80
0180000000
0180000000
0000000000
0000000000
0000000000
ENDCHAR

STARTCHAR cns2_2146
ENCODING 8518
SWIDTH 960 0
DWIDTH 34 0
BBX 34 34 0 -2
BITMAP
0000000000
0000000000
00C0000000
00C0000000
00C0000000
0180000C00
0187FFFE00
01800C0000
03000C0000
03000C0000
07800C0000
07800C0000
0F000C0000
0B000C0000
1B000C0000
1B000C0000
33000C0000
63000C0000
03000C0000
03000C0000
03000C0000
03000C0000
03000C0000
03000C0000
03000C0000
03000C0000
03000C0000
03000C0300
031FFFFF80
0300000000
0300000000
0000000000
0000000000
0000000000
ENDCHAR

STARTCHAR cns2_2147
ENCODING 8519
SWIDTH 960 0
DWIDTH 34 0
BBX 34 34 0 -2
BITMAP
0000000000
0000000000
00601C0000
00E0180000
00C0180000
00C0180000
0180180000
0180180000
0180180000
0380180000
0300180000
0780180000
0700180600
0F001FFF00
1B00180000
1B00180000
3300180000
6300180000
0300180000
0300180000
0300180000
0300180000
0300180000
0300180000
0300180000
0300180000
0300180000
0300180000
0300180300
031FFFFF80
0300000000
0300000000
0000000000
0000000000
ENDCHAR

STARTCHAR cns2_2148
ENCODING 8520
SWIDTH 960 0
DWIDTH 34 0
BBX 34 34 0 -2
BITMAP
0000000000
0000000000
0070400000
00E0600000
00E0E00000
00C0C00000
01C1C00000
0181800600
0183FFFF00
0383000000
0306000000
078C000000
071C000000
0F3000E000
0B03FFF000
1B0001C000
3300038000
0300070000
0300060000
03000C0000
0300180000
0300300000
0300600000
0300E00200
0301C00200
0303800200
0303000200
0307000300
0306000300
0307000700
0303FFFE00
0300000000
0000000000
0000000000
ENDCHAR

STARTCHAR cns2_2149
ENCODING 8521
SWIDTH 960 0
DWIDTH 34 0
BBX 34 34 0 -2
BITMAP
0000000000
0000000000
0000000000
0001E00000
0001C00000
0003E00000
0003B00000
0007300000
0006180000
000E1C0000
001C0E0000
0038070000
0070038000
00E001C000
01C000E000
0300003800
0600001F00
1800018600
207FFFC000
0000C00000
0000C00000
0000C00000
0000C00000
0000C00000
0000C00000
0000C00000
0000C00000
0000C00000
0000C00000
0000C00000
0000C00600
0FFFFFFF00
0000000000
0000000000
ENDCHAR

STARTCHAR cns2_214A
ENCODING 8522
SWIDTH 960 0
DWIDTH 34 0
BBX 34 34 0 -2
BITMAP
0000000000
0000000000
0000E00000
0001C00000
0001E00000
0003B00000
0007180000
00060C0000
000C060000
0018078000
007001C000
00E000F000
01C0003C00
0700001F80
0C00000200
3000E00000
0000C00000
0000C00000
0000C00000
0600C01800
0600C01800
0600C01800
0600C01800
0600C01800
0600C01800
0600C01800
0600C01800
0600C01800
0600C01800
07FFFFF800
0600001800
0600001800
0000000000
0000000000
ENDCHAR

STARTCHAR cns2_214B
ENCODING 8523
SWIDTH 960 0
DWIDTH 34 0
BBX 34 34 0 -2
BITMAP
0000000000
0000000000
0018000800
0018000E00
0018000C00
0018070C00
0018060C00
0018060C00
0018060C00
0018060C00
0019C60C00
3FFFE60C00
0018060C00
0018060C00
0018060C00
0018060C00
1C18060C00
0E18060C00
0718060C00
0318060C00
0398060C00
0198060C00
0018060C00
0018000C00
0018000C00
0018000C00
0018000C00
0018000C00
0018000C00
0418039C00
03F000F800
0070003000
0000000000
0000000000
ENDCHAR

STARTCHAR cns2_214C
ENCODING 8524
SWIDTH 960 0
DWIDTH 34 0
BBX 34 34 0 -2
BITMAP
0000000000
0000000000
0180000600
0180000700
0380000600
0300030600
0700038600
0600330600
0FFFFB0600
0C00030600
1C00030600
1800030600
3000030600
6006030600
07FF030600
0007030600
000C030600
0018030600
0038030600
0030030600
0060030600
00E0030600
01C0030600
0180030600
0380000600
0700200600
0600300600
0E00300600
0C00300600
0E0079FE00
07FFF07C00
0000001800
0000000000
0000000000
ENDCHAR

STARTCHAR cns2_214D
ENCODING 8525
SWIDTH 960 0
DWIDTH 34 0
BBX 34 34 0 -2
BITMAP
0000000000
0000000000
0000000000
1000001C00
1FFFFFFE00
1800000000
1800700000
1820600000
1830600000
1830606000
183063F800
18307F3000
1831F03000
183F603000
19F0603000
1BB0603000
1830606000
1830606000
183060E000
183067E000
183061C400
1830600C00
1830000C00
1830000C00
1838001E00
181FFFFC00
1800000000
1800000000
1800000C00
1FFFFFFE00
1800000000
0000000000
0000000000
0000000000
ENDCHAR

STARTCHAR cns2_214E
ENCODING 8526
SWIDTH 960 0
DWIDTH 34 0
BBX 34 34 0 -2
BITMAP
0000000000
0000000000
0180186000
01871C7000
0186186000
0186186000
0186186000
0186186000
0186186000
0186186000
0186186000
0186186000
0186186000
0186186300
3FFFFFFF80
0186186000
0186186000
0186186000
0186186000
0186186000
0186186000
0186186000
0306186000
0306186000
0306186000
0606186000
0606186000
0C06186000
0C06186000
1806186000
1006006000
2000000000
0000000000
0000000000
ENDCHAR

STARTCHAR cns2_214F
ENCODING 8527
SWIDTH 960 0
DWIDTH 34 0
BBX 34 34 0 -2
BITMAP
0000000000
0000000000
0000000000
0380000300
0307FFFF80
0300018000
0300018000
0300018000
0300018000
0300018000
0300018000
0318018000
3FFC018000
0300018000
0300018000
0300018000
0300018000
0300018000
0300018000
0300018000
0300018000
0300018000
0378018000
03E0018000
0780018000
3E00018000
3800018000
0000018000
00007B8000
00001F0000
0000060000
0000000000
0000000000
0000000000
ENDCHAR

STARTCHAR cns2_2150
ENCODING 8528
SWIDTH 960 0
DWIDTH 34 0
BBX 34 34 0 -2
BITMAP
0000000000
0000000000
0000000000
000000C000
07FFFFF000
006000E000
006001C000
0030038000
0018070000
001C060000
000E0C0000
0003B80000
0001F00000
0001F80000
00070F0000
003C03F000
03E0C07E00
1C00E00000
0000C00000
0000C00000
0000C00000
0000C03000
07FFFFF800
0000C00000
0000C00000
0000C00000
0000C00000
0000C00000
0000C00000
0000C00600
3FFFFFFF00
0000000000
0000000000
0000000000
ENDCHAR

STARTCHAR cns2_2151
ENCODING 8529
SWIDTH 960 0
DWIDTH 34 0
BBX 34 34 0 -2
BITMAP
0000000000
0000000000
0070000000
0060000000
00E0000000
00E0000000
00C1981800
01FFDFFC00
0181D81C00
0381981800
0301981800
0703981800
0603181800
0F03181800
0F83181800
1986181800
18C6181800
30EE181800
006C181800
001C183000
00181BF000
0038187000
0030180000
0060180200
00E0180200
01C0180200
0180180600
0300180600
0600180600
0C001E3E00
18000FFC00
3000000000
0000000000
0000000000
ENDCHAR

STARTCHAR cns2_2152
ENCODING 8530
SWIDTH 960 0
DWIDTH 34 0
BBX 34 34 0 -2
BITMAP
0000000000
0000C00000
0001C00000
0001800000
0003800000
0003000600
3FFFFFFF00
0006080000
000C0C0000
0018060000
0030038000
006001C000
00C600F000
0387007C00
0707001F80
0C06000700
3006000000
0006006000
07FFFFF000
0006006000
000E006000
000C006000
000C006000
0018006000
001800C000
003000C000
006000C000
00E000C000
01C0018000
0380018000
0601FF0000
18003E0000
0000040000
0000000000
ENDCHAR

STARTCHAR cns2_2153
ENCODING 8531
SWIDTH 960 0
DWIDTH 34 0
BBX 34 34 0 -2
BITMAP
0000000000
0000000000
0000E00000
0000C00000
0400C00000
0C00C00600
0FFFFFFF80
0C00000700
1C00000E00
1800000C00
3000001800
0000000000
0000000000
0000000000
0000000300
1FFFFFFF80
0000600000
0000600000
0000600000
0000600000
0000600000
0000600000
0000600000
0000600000
0000600000
0000600000
0000600000
0000600000
0000600000
0000600000
001FE00000
0001C00000
0000000000
0000000000
ENDCHAR

STARTCHAR cns2_2154
ENCODING 8532
SWIDTH 960 0
DWIDTH 34 0
BBX 34 34 0 -2
BITMAP
0000000000
0000000000
0000700000
0000600000
0400600000
0600600600
07FFFFFF80
0E00000700
0C00000600
1C06000E00
1806000C00
0006000000
0006000000
0006000000
0006060000
1FFFFF0000
000C060000
000C060000
000C060000
000C060000
0018060000
0018060000
0018060000
0018060000
0030060200
0030060600
0070060600
00E0060600
01C0060600
0300070F00
0E0003FE00
3800000000
0000000000
0000000000
ENDCHAR

STARTCHAR cns2_2155
ENCODING 8533
SWIDTH 960 0
DWIDTH 34 0
BBX 34 34 0 -2
BITMAP
0000000000
0000000000
0000E00000
0001C00000
0001E00000
0003B00000
0007180000
00060C0000
000C060000
0038030000
007001C000
00E000F000
01C0007C00
0300001F00
0E00000700
3800E00000
0000C00000
0000C00000
0000C00000
0000C00000
0070C00000
0060C1C000
00E0C0E000
00C0C07000
01C0C03000
0380C03800
0300C01C00
0600C00E00
0C00C00E00
1801C00600
101FC00000
0003800000
0000000000
0000000000
ENDCHAR

STARTCHAR cns2_2156
ENCODING 8534
SWIDTH 960 0
DWIDTH 34 0
BBX 34 34 0 -2
BITMAP
0000000000
0000000000
0400003000
07FFFFF800
0600003000
0600003000
0600003000
0600003000
0600003000
07FFFFF000
0600003000
0600000000
0601C00000
0601800000
0601800000
0601800000
0601818000
06FFFFC000
060181C000
0601818000
0601818000
0603018000
0C03018000
0C03018000
0C02018100
0C06018100
0C0E018300
0C0C018300
181C018300
183801C380
186000FF00
3180000000
0200000000
0000000000
ENDCHAR

STARTCHAR cns2_2157
ENCODING 8535
SWIDTH 960 0
DWIDTH 34 0
BBX 34 34 0 -2
BITMAP
0000000000
0000000000
0000E00000
1C00C00600
1800C00600
1800C00600
1800C00600
1800C00600
1800C00600
1800C00600
1800C00600
1FFFFFFE00
1800000600
1800000600
1800000600
0000E00000
0000C00000
0000C00000
0000C00300
1FFFFFFF80
0001800380
0001800300
0003000300
0003000300
0006000300
000E000600
001C000600
0038000600
0060000C00
01C00FDC00
070000F800
3800002000
0000000000
0000000000
ENDCHAR

STARTCHAR cns2_2158
ENCODING 8536
SWIDTH 960 0
DWIDTH 34 0
BBX 34 34 0 -2
BITMAP
0000000000
000F800000
0003C00000
0001E00000
0000E00000
0001F00000
0003B80000
00071C0000
000E0E0000
001C030000
0030018000
006000E000
01C0007000
0300003E00
0E00000F80
3800E00000
0000C00000
0000C00000
0000C00000
0600C01800
0600C01800
0600C01800
0600C01800
0600C01800
0600C01800
0600C01800
0600C01800
0600C01800
0600C01800
07FFFFF800
0600001800
0600001800
0000000000
0000000000
ENDCHAR

STARTCHAR cns2_2159
ENCODING 8537
SWIDTH 960 0
DWIDTH 34 0
BBX 34 34 0 -2
BITMAP
0000000000
0000000000
0380000000
0300000000
0300000300
0301FFFF80
030000C000
331800C000
3FFC00C000
331800C000
331800C000
331800C000
331800C000
331800C000
331800C000
331800C000
331800C000
331800C000
331800C000
331800C000
331800C000
331800C000
331800C000
33F800C000
333000C000
030000C000
030000C000
030000C000
030000C000
03003FC000
03000F8000
0200010000
0000000000
0000000000
ENDCHAR

STARTCHAR cns2_215A
ENCODING 8538
SWIDTH 960 0
DWIDTH 34 0
BBX 34 34 0 -2
BITMAP
0000000000
0000C00000
0000E00000
0000C00000
0400C00600
07FFFFFF00
0600000000
0600000000
0600000000
0600000000
0600000000
060C000000
060C000000
060C000000
060C002000
060C00F000
060C01C000
060C070000
060C1C0000
060C700000
060F800000
060C000000
060C000000
0C0C000000
0C0C000000
0C0C000200
0C0C000600
0C0C000600
180E000E00
1807001C00
1803FFF800
3000000000
0000000000
0000000000
ENDCHAR

STARTCHAR cns2_215B
ENCODING 8539
SWIDTH 960 0
DWIDTH 34 0
BBX 34 34 0 -2
BITMAP
0000000000
0000C00000
0000E00000
0000C00000
0400C00600
07FFFFFF00
0600000000
0600000000
0600000000
0600600000
0600700000
0600700000
0600600000
0600600000
0600600000
0600600000
0600600000
0600F00000
0600F00000
0600D80000
0600D80000
06018C0000
0E018E0000
0C03060000
0C03030000
0C06018000
0C0E01C000
0C1C00F000
1838003800
1870001C00
11C0000700
3300000000
0000000000
0000000000
ENDCHAR

STARTCHAR cns2_215C
ENCODING 8540
SWIDTH 960 0
DWIDTH 34 0
BBX 34 34 0 -2
BITMAP
0000000000
0000000000
0180000000
0180000000
0180000600
0183FFFF80
01800C0700
01800C0600
01A00C0600
09B00C0600
19B80C0600
19980C0600
19980C0600
19800C0600
39800C0600
3180180600
0180180600
0180180600
0180180600
0180180600
0180180600
0180300600
0180300600
0180300600
0180600C00
0180E00C00
0180C00C00
0181801800
01831F7800
018607F000
018C00C000
0188000000
0000000000
0000000000
ENDCHAR

STARTCHAR cns2_215D
ENCODING 8541
SWIDTH 960 0
DWIDTH 34 0
BBX 34 34 0 -2
BITMAP
0000000000
0000000000
0000700000
0000600000
0000638000
000060C000
0000606000
0200600300
03FFFFFF80
0300600000
0300600000
0300600000
0300600000
0300601800
0300601800
0300303800
0300303000
0300306000
0300186000
030018C000
030018C000
03000D8000
03000F0000
0300070000
03030E0000
030C1F0100
03703B8100
03C061C300
1F01C0F300
3803003F00
000C000F80
0030000100
0040000000
0000000000
ENDCHAR

STARTCHAR cns2_215E
ENCODING 8542
SWIDTH 960 0
DWIDTH 34 0
BBX 34 34 0 -2
BITMAP
0000000000
0000000000
0180070000
0180060000
0180060000
0180060000
0180060000
0180060000
0198060300
1FFDFFFF80
0180060300
0180060300
0180060300
0180060300
0180060300
0180060300
01980C0600
01F00C0600
03C00C0600
3F800C0600
31800C0600
0180180600
0180180600
0180180600
0180300C00
0180700C00
0180600C00
0180C01800
0181803800
73830FF000
1F0401E000
0618000000
0000000000
0000000000
ENDCHAR

STARTCHAR cns2_215F
ENCODING 8543
SWIDTH 960 0
DWIDTH 34 0
BBX 34 34 0 -2
BITMAP
0000000000
0000000000
0060000000
00E0000000
00E0000000
00C0000C00
01FFFFFE00
0380000000
0380000000
070000C000
067FFFE000
0C00000000
1800000000
3000000000
000000E000
07FFFFF000
0000206000
0000706000
0000606000
0000E06000
0000C06000
0001806000
0001806000
0003006000
0006006080
000C003180
0018003180
0070003980
00E0001B80
01C0001F80
0700000F00
1C00000300
0000000000
0000000000
ENDCHAR

STARTCHAR cns2_2160
ENCODING 8544
SWIDTH 960 0
DWIDTH 34 0
BBX 34 34 0 -2
BITMAP
0000000000
0000000000
0000000000
000000C000
03FFFFE000
000001C000
0000038000
0000070000
00000E0000
0000180000
0000700000
0000600800
000E701C00
1FFF703800
0007787000
000E68E000
000C6DC000
001C670000
0018660000
0038630000
0070638000
006061C000
00E060E000
01C0607000
0180603800
0300601C00
0600600F00
0C00600780
1800600000
301FE00000
0003C00000
0000000000
0000000000
0000000000
ENDCHAR

STARTCHAR cns2_2161
ENCODING 8545
SWIDTH 960 0
DWIDTH 34 0
BBX 34 34 0 -2
BITMAP
0000000000
0000000000
0800000000
0E000C0000
07000C0000
03800C0000
0380060000
0000060000
0030C60000
0030C60000
0060C30000
3860C30000
1C60C30000
0CC0C30000
06C1810000
01C1818000
0181818000
0181818000
038180C000
030180C000
030300C000
0703006000
0703006000
3E06007000
0E06003000
0E0C003800
060C001C00
0618000E00
0718000F00
0730000780
0660000000
0000000000
0000000000
0000000000
ENDCHAR

STARTCHAR cns2_2162
ENCODING 8546
SWIDTH 960 0
DWIDTH 34 0
BBX 34 34 0 -2
BITMAP
0000000000
0000000000
0C00600000
0E00700000
0700600000
0380600000
0380600000
0000600000
0030600000
0030600000
0020606000
386FFFF000
1C60606000
0CC0606000
06C0606000
00C0606000
0180606000
0180E06000
0180C06000
0300C06000
0300C06000
0700C06000
0601C06000
3E01806000
0E01806100
0E03806100
0607006100
0606006180
060C006380
060C007F80
0618003F00
0020000000
0000000000
0000000000
ENDCHAR

STARTCHAR cns2_2163
ENCODING 8547
SWIDTH 960 0
DWIDTH 34 0
BBX 34 34 0 -2
BITMAP
0000000000
0000000000
00000E0000
06000C0000
03000C0000
01800C0000
01C00C0000
00800C0000
00000C0000
00080C0600
0013FFFF80
38100C0700
1C200C0600
0C200C0600
06600C0600
0040180600
00C0180600
0080180600
0180300600
0180300600
0300300600
0300600600
0700600600
3E00C00600
0E00C00600
0E01800C00
0603800C00
0603000C00
0706003C00
070C0FF800
061001E000
0020000000
0000000000
0000000000
ENDCHAR

STARTCHAR cns2_2164
ENCODING 8548
SWIDTH 960 0
DWIDTH 34 0
BBX 34 34 0 -2
BITMAP
0000000000
0000000000
000E0C0000
000C070000
000C038000
000C01C000
000C004000
000C000000
000C000600
1FFFFFFF00
000C000000
000C000000
000C000000
000C00C000
000C00C000
000C00C000
001C00C000
001E018000
001E018000
001B018000
0033030000
0031830000
0061C60000
0060CE0000
00C07C0000
01C0380000
03803C0000
0300670000
0601C3C000
1C0300F000
300C003E00
0070000000
0000000000
0000000000
ENDCHAR

STARTCHAR cns2_2165
ENCODING 8549
SWIDTH 960 0
DWIDTH 34 0
BBX 34 34 0 -2
BITMAP
0000000000
0000000000
0030700000
1038600000
0C70600000
0CE0600000
07C0600000
0380600000
0700600000
1D80600000
3180606000
01CFFFF000
00C0606000
00C0606000
00C0606000
01C0606000
03E0606000
0760E06000
0660C06000
0C60C06000
1860C06000
7060C06000
0060C06000
0061806000
0061806100
00C3806100
00C7006300
00C6006300
01CC006380
3F88007F80
0710003F00
0020000000
0000000000
0000000000
ENDCHAR

STARTCHAR cns2_2166
ENCODING 8550
SWIDTH 960 0
DWIDTH 34 0
BBX 34 34 0 -2
BITMAP
0000000000
0000000000
0000000000
0000000000
0000000000
0000001800
07FFFFFC00
0000C00000
0000C20000
0000C38000
0000C1C000
0000C0C000
0000C06000
0000C00000
0000C00000
0000C00000
0000C06000
03FFFFF000
0000C00000
0000C00000
0000C00000
0000C00000
0000C00000
0000C00000
0000C00000
0000C00000
0000C00000
0000C00000
0000C00600
3FFFFFFF00
0000000000
0000000000
0000000000
0000000000
ENDCHAR

STARTCHAR cns2_2167
ENCODING 8551
SWIDTH 960 0
DWIDTH 34 0
BBX 34 34 0 -2
BITMAP
0000000000
0000000000
0001800000
0001C00000
0001800000
0001800000
0001800000
0C01800C00
0FFFFFFE00
0C03000C00
0C03000C00
0C03000C00
0C03000C00
0C06000C00
0C06000C00
0C060C0C00
0C06060C00
0C0C070C00
0C0C7B8C00
0C7FC1CC00
0CF800CC00
0C00000C00
0C00000C00
0C00000C00
0C00000C00
0C00000C00
0C00000C00
0C00000C00
0C00000C00
0C00000C00
0C0003FC00
000000F800
0000000000
0000000000
ENDCHAR

STARTCHAR cns2_2168
ENCODING 8552
SWIDTH 960 0
DWIDTH 34 0
BBX 34 34 0 -2
BITMAP
0000000000
0000000000
0000000000
0830000000
0FF8003000
0C30FFF800
0C30007800
0C30006000
0C3000C000
0C3001C000
0C30018000
0FF0030000
0C30070000
0C30060000
0C300E0000
0C301C0000
0C30180000
0C30380000
0C30300000
0FF0600000
0C30E00000
0C30C00000
0C31C00000
1C31800300
1833800300
1833800300
1833000300
1833800300
1031C00700
37F0FFFE00
30E0000000
2000000000
0000000000
0000000000
ENDCHAR

STARTCHAR cns2_2169
ENCODING 8553
SWIDTH 960 0
DWIDTH 34 0
BBX 34 34 0 -2
BITMAP
0000000000
0000000000
18300E0000
1FF80C0000
18300C0000
18300C0000
18600C0000
18600C0000
18C00C0600
18C3FFFF00
19800C0600
19800C0600
19000C0600
19800C0600
18C00C0600
18600C0600
1860180600
1830180C00
1818180C00
1818180C00
1818300C00
1838300C00
1830300C00
1FF0600C00
18E0600C00
1800C00C00
1801C01800
1801803800
1803387000
18061FE000
180C03C000
1008000000
0000000000
0000000000
ENDCHAR

STARTCHAR cns2_216A
ENCODING 8554
SWIDTH 960 0
DWIDTH 34 0
BBX 34 34 0 -2
BITMAP
0000000000
0000000000
00C00E0000
00E00C0000
00C00C0000
01C00C0000
01800C0000
01800C0700
039FFFFF80
03000C0000
07000C0000
07000C0000
0F000C0000
0F000C0000
1B000C3800
1B0FFFFC00
3313003800
4301003000
0301807000
0300806000
0300C0E000
0300C0C000
030061C000
0300338000
03001B0000
03000E0000
03000E0000
03003B0000
0300E1C000
0303C0F000
030E003F80
0338000700
0000000000
0000000000
ENDCHAR

STARTCHAR cns2_216B
ENCODING 8555
SWIDTH 960 0
DWIDTH 34 0
BBX 34 34 0 -2
BITMAP
0000000000
0000000000
00700E0000
00600C0000
00600CC000
00E00C6000
00C00C3000
01C00C1800
01800C1800
03800C0000
03800C0300
078FFFFF80
07800C0000
0D800C0000
09800F0000
19800F0000
31801B0000
01801B0000
01801B0000
01801B0000
01801B0000
01803B0000
0180330000
0180330000
0180630000
0180630100
0180C30100
0181830300
0183030300
0186038780
018C01FF00
0190000000
0000000000
0000000000
ENDCHAR

STARTCHAR cns2_216C
ENCODING 8556
SWIDTH 960 0
DWIDTH 34 0
BBX 34 34 0 -2
BITMAP
0000000000
0000000000
0060000000
0070C00C00
0060FFFE00
00E0C00C00
00C0C00C00
00C0C00C00
01C0C00C00
0180C00C00
0380C00C00
0380C00C00
0780C00C00
0780C00C00
0D80FFFC00
1D80C60C00
1980C60800
3180C30000
0180C30000
0180C30000
0181818000
0181818000
018180C000
018180C000
0183006000
0183007000
0183003000
0186003800
0186001E00
018C000F80
0198000700
0190000000
0000000000
0000000000
ENDCHAR

STARTCHAR cns2_216D
ENCODING 8557
SWIDTH 960 0
DWIDTH 34 0
BBX 34 34 0 -2
BITMAP
0000000000
0000000000
00E0E00000
00C0E00000
00C0C00000
01C1C00000
0181800600
0383FFFF00
0303060000
0307060000
070E060000
070C060000
0F18060000
0F00060000
1B00060000
1B00060300
331FFFFF80
6300060000
0300060000
0300060000
0300060000
0300060000
0300060000
0300060000
0300060000
0300060000
0300060000
0300060000
0300060000
0300060000
0300060000
0300040000
0000000000
0000000000
ENDCHAR

STARTCHAR cns2_216E
ENCODING 8558
SWIDTH 960 0
DWIDTH 34 0
BBX 34 34 0 -2
BITMAP
0000000000
0000000000
00E4000000
00E6000700
00C7FFFF80
01C6000700
018E000E00
038C000C00
031C001800
0308000000
0700606000
0700607000
0F00606000
0F00606000
1B00606000
1B00606000
3300606000
0300606000
0300606000
0300606000
0300C06000
0300C06000
0300C06000
0300C06000
0301806000
0301806100
0303006100
0303006100
0306006180
0306007380
030C003F00
0318000000
0020000000
0000000000
ENDCHAR

STARTCHAR cns2_216F
ENCODING 8559
SWIDTH 960 0
DWIDTH 34 0
BBX 34 34 0 -2
BITMAP
0000000000
0000000000
00E01C0000
00E0380000
00C03C0000
01C0760000
0180630000
0180C38000
0381C18000
030180C000
0703006000
0706003800
0F0C019E00
0F19FFCF00
1B30000380
1B60000000
3300000000
4300000000
0300007000
031FFFF800
0300007000
0300006000
030000E000
030000C000
030001C000
0300018000
0300018000
0300030000
0300030000
0300060000
0300060000
03000C0000
0000000000
0000000000
ENDCHAR

STARTCHAR cns2_2170
ENCODING 8560
SWIDTH 960 0
DWIDTH 34 0
BBX 34 34 0 -2
BITMAP
0000000000
0000000000
00E001C000
00E01FE000
00C001C000
01C0D0C000
0180E0C000
0180C0C000
0381C06000
0301806000
0701807000
0703003000
0F03001800
0F06001C00
1B061C0F00
1B0C1C0780
3308180200
6318380000
0330380000
0300300000
0300700000
0300618000
030060C000
0300C06000
0300C03000
0301801800
030181FC00
03037F0C00
031FF00E00
0300000E00
0300000400
0300000000
0000000000
0000000000
ENDCHAR

STARTCHAR cns2_2171
ENCODING 8561
SWIDTH 960 0
DWIDTH 34 0
BBX 34 34 0 -2
BITMAP
0000000000
0000000000
00E01C0000
00E01C0000
00C03C0000
01C0360000
0180630000
0180E18000
0380C0C000
0301806000
0703003800
0706001C00
0F0C000F00
0B1980E380
1B71C0C000
1BC180C000
330180C000
430180C000
030180C000
030180C000
030180C000
030180C000
030300C000
030300C000
030300C000
030600C000
030600C000
030C00C000
030C00C000
031800C000
033000C000
0360000000
0000000000
0000000000
ENDCHAR

STARTCHAR cns2_2172
ENCODING 8562
SWIDTH 960 0
DWIDTH 34 0
BBX 34 34 0 -2
BITMAP
0000000000
0000000000
00C0000000
00E0000000
00C0700000
00C01C0000
01800F0000
0180038000
038001C000
0300C0C000
0300C00000
0700C00000
0700C00000
0F00C00000
0B00C00000
1B04C01800
330CC00C00
630CC00400
030CC00600
030CC00700
0318C00300
0318C00380
0318C00180
0338C00100
0330C01000
0360C01800
0300C01800
0300C01800
0300E03800
03007FF000
03001F8000
0300000000
0000000000
0000000000
ENDCHAR

STARTCHAR cns2_2173
ENCODING 8563
SWIDTH 960 0
DWIDTH 34 0
BBX 34 34 0 -2
BITMAP
0000000000
0000000000
00C0000000
00E0000000
00C0000C00
01C7FFFE00
0180000000
0180000000
0380000000
0300000000
0700000000
0700000000
0700000000
0F00000300
0F1FFFFF80
1B00180000
3300180000
2300300000
0300300000
0300300000
0300606000
0300603000
0300603800
0300C01800
0300C00C00
0300800C00
030180FE00
03011FC700
031FFC0300
031E000380
0300000100
0300000000
0000000000
0000000000
ENDCHAR

STARTCHAR cns2_2174
ENCODING 8564
SWIDTH 960 0
DWIDTH 34 0
BBX 34 34 0 -2
BITMAP
0000000000
0000000000
00C0070000
00E0060000
00C0060000
00C0060000
01C0060300
0187FFFF80
0380060000
0300060000
0700060000
0700060000
0703060600
0F03FFFF00
0F03060600
1B03060600
3303060600
6303060600
0303060600
0303060600
0303060600
0303060600
0303060600
0303060600
0303060600
0303060600
0303060E00
030306FC00
0303061800
0300060000
0300060000
0300060000
0000000000
0000000000
ENDCHAR

STARTCHAR cns2_2175
ENCODING 8565
SWIDTH 960 0
DWIDTH 34 0
BBX 34 34 0 -2
BITMAP
0000000000
0000000000
00E00E0000
00E00C0000
00C00C0000
01C00C3E00
01800CF800
01800FC000
03803E0000
030FFC0000
07000C0000
07000C0000
0F060C1800
0F070C1800
1B060C1800
1B060C1800
33060C1800
23060C1800
03060C1800
03060C1800
03060C1800
0307FFF800
03060C1800
03060C1800
03000C0100
03000C0100
03000C0300
03000C0300
03000C0300
03000E0F00
030007FC00
0300000000
0000000000
0000000000
ENDCHAR

STARTCHAR cns2_2176
ENCODING 8566
SWIDTH 960 0
DWIDTH 34 0
BBX 34 34 0 -2
BITMAP
0000000000
0000000000
00E0000000
00E0000C00
00C3FFFE00
01C000C000
018300C000
018380C000
038300C000
030300C000
070300C000
070300C000
0F0300C000
0F0300C300
1B07FFFF80
1B0601C000
330603C000
230003C000
030006C000
03000CC000
030018C000
030030C000
030060C000
0300C0C000
030180C000
030300C000
030C00C000
031800C000
032001C000
03003F8000
0300070000
0300000000
0000000000
0000000000
ENDCHAR

STARTCHAR cns2_2177
ENCODING 8567
SWIDTH 960 0
DWIDTH 34 0
BBX 34 34 0 -2
BITMAP
0000000000
0000000000
00E0000000
00E0000000
00C0000E00
01CFFFFF00
01800C0000
01800C0000
03800C0000
0300180000
0700180000
0700300000
0F003C0000
0B00780000
1F00D8C000
1B00D86000
3301983000
6303981C00
0303180E00
0306180700
030C180380
0318180300
0320180000
0300180000
0300180000
0300180000
0300180000
0300180000
0300180000
0300180000
0300180000
0300180000
0000000000
0000000000
ENDCHAR

STARTCHAR cns2_2178
ENCODING 8568
SWIDTH 960 0
DWIDTH 34 0
BBX 34 34 0 -2
BITMAP
0000000000
0000000000
00E0000000
00E0000C00
00C7FFFE00
01C00C0C00
01800C0C00
01800C0C00
03800C0C00
03000C0C00
07060C0C00
0707FFFC00
07060C0C00
0F060C0000
0F0C0C0000
1B0C0C0000
1B0C0C0000
330C0C0300
030FFFFF80
03180C0300
03180C0300
03180C0300
03000C0300
03000C0300
03000C0600
03000C0600
03000DCC00
03000CFC00
03000C3800
03000C0000
03000C0000
03000C0000
0000000000
0000000000
ENDCHAR

STARTCHAR cns2_2179
ENCODING 8569
SWIDTH 960 0
DWIDTH 34 0
BBX 34 34 0 -2
BITMAP
0000000000
0000000000
0060000000
0060000000
00E1001800
00C1FFFC00
01C1801800
0181801800
0381801800
0301801800
0701801800
0701801800
0F01FFF800
0F01801800
1B01801800
1B01801800
3301801800
0301801800
0301801800
0301FFF800
0301801800
0301801800
0301801800
0303001800
0303001800
0303001800
0306001800
0306001800
0306001800
030C003800
030C03F000
031800E000
0000000000
0000000000
ENDCHAR

STARTCHAR cns2_217A
ENCODING 8570
SWIDTH 960 0
DWIDTH 34 0
BBX 34 34 0 -2
BITMAP
0000000000
0000000000
0040003000
00E001F000
00E20F8000
00C3F80000
01C3000000
0183000000
0383000000
0303000000
0703000000
0703000700
0F03FFFF80
0F03018000
1B03018000
1B03018000
3303018000
0303018000
0303018000
0303018000
0303018000
0303018000
0306018000
0306018000
0306018000
030C018000
030C018000
030C018000
0318018000
0318018000
0330018000
0320018000
0000000000
0000000000
ENDCHAR

STARTCHAR cns2_217B
ENCODING 8571
SWIDTH 960 0
DWIDTH 34 0
BBX 34 34 0 -2
BITMAP
0000000000
0000000000
0000000000
1C00000300
0E0FFFFF80
0700600000
0780600000
0380600000
0180C00000
0000C00000
0060C01800
0060FFFC00
0061801800
00C1801800
00C1801800
01C1803000
0183003000
0183003000
0383006000
0383006000
0306006000
0707FFE000
070600C000
3E0600C000
0E0000C000
0E0000C000
060000C000
060000C000
0700018000
0700018700
073FFFFB80
0200000000
0000000000
0000000000
ENDCHAR

STARTCHAR cns2_217C
ENCODING 8572
SWIDTH 960 0
DWIDTH 34 0
BBX 34 34 0 -2
BITMAP
0000000000
0000000000
0000000600
0003000700
07FF800600
0000018600
000001C600
0000018600
0000018600
0000018600
0000018600
0000018600
0000318600
3FFFF98600
0186018600
0186018600
0186018600
0186018600
0186018600
0186018600
0186018600
0186018600
0386018600
0306010600
0306000600
0606700600
0607C00600
0C0F000600
0C3C000600
180001FE00
1000001C00
2000000000
0000000000
0000000000
ENDCHAR

STARTCHAR cns2_217D
ENCODING 8573
SWIDTH 960 0
DWIDTH 34 0
BBX 34 34 0 -2
BITMAP
0000000000
0000000000
0400C00700
07FFE00600
0600C00600
0600C18600
0600C1C600
0660C18600
0630C18600
0630C18600
0638C18600
0618C18600
0618C18600
0600C18600
0600C18600
0600D98600
3FFFFD8600
0600C18600
0600C18600
0600C18600
0600C18600
0600C18600
0600C18600
0C00C00600
0C00C00600
0C00C00600
0C00C00600
1800C00600
1800C00600
1801C1FE00
307F801C00
2007000000
0000000000
0000000000
ENDCHAR

STARTCHAR cns2_217E
ENCODING 8574
SWIDTH 960 0
DWIDTH 34 0
BBX 34 34 0 -2
BITMAP
0000000000
0000000000
0000C00000
0000C00000
0000C00C00
0FFFFFFE00
0001800E00
0003000C00
0006000C00
000C000C00
0018001800
0030001800
0060003000
01C00FE000
070001C000
0CC0000000
00E0018000
00E1818300
3FFFDFFF80
00C1818380
00C1818300
00C1818300
00C1838300
0181830300
0181830300
0181830300
0303060300
0303060600
06030C0600
0E07180E00
1CFE31FC00
301CE03800
0000000000
0000000000
ENDCHAR

STARTCHAR cns2_2221
ENCODING 8737
SWIDTH 960 0
DWIDTH 34 0
BBX 34 34 0 -2
BITMAP
0000000000
0000000000
1000001C00
1FFFFFFE00
1800000000
180E000000
180C000000
181C000000
1818001800
183FFFFC00
1871861800
1861861800
18C3861800
19830C1800
1A060C1800
180E181800
181C183000
1838303000
1870703000
1860E03000
19C1C03000
1B03807000
1807006000
180C006000
1818E0E000
18603FC000
1800070000
1800000000
1800000E00
1FFFFFFF00
1800000000
1800000000
0000000000
0000000000
ENDCHAR

STARTCHAR cns2_2222
ENCODING 8738
SWIDTH 960 0
DWIDTH 34 0
BBX 34 34 0 -2
BITMAP
0000000000
0000000000
0000000000
2000000C00
3FFFFFFE00
3000000000
3000C00000
3000E00000
3000C03000
37FFFFF800
3000000000
3000000000
30100C0000
301FFE0000
30180C0000
30180C0000
30180C0000
30180C0000
30180C0000
30180C0000
30180C0000
30300C1800
30300C1800
30600C1800
30600C3C00
30C007F800
3380000000
3600000000
3000000600
3FFFFFFF00
3000000000
3000000000
0000000000
0000000000
ENDCHAR

STARTCHAR cns2_2223
ENCODING 8739
SWIDTH 960 0
DWIDTH 34 0
BBX 34 34 0 -2
BITMAP
0000000000
0000000000
0000000000
0000600000
1FFFF00C00
0000600E00
0000600C00
0000600C00
0000600C00
0000600C00
0000600C00
0000600C00
0000600C00
0000600C00
0000600C00
0800600C00
0FFFFFFC00
0C00600C00
0C00600800
0C00600000
0C00600000
0C00600000
0C00600000
0C00600000
0C00600000
0C00600000
0C00600000
0C00600000
0C00600600
0C007FFF00
0C00600000
0C00600000
0000000000
0000000000
ENDCHAR

STARTCHAR cns2_2224
ENCODING 8740
SWIDTH 960 0
DWIDTH 34 0
BBX 34 34 0 -2
BITMAP
0000000000
0000000000
0000000000
0600000300
07FFFFFF80
0600000000
0600000000
0600000C00
063FFFFE00
0600030000
060C030000
060E030000
060C030000
060C030000
060C030000
0618030000
0618030E00
061FFFFF00
06380F0000
06101B0000
06003B0000
0600730000
0600C30000
0C01830000
0C07030000
0C0C030000
0C38030000
18E0030000
1980030000
1000C70000
20007E0000
00000C0000
0000000000
0000000000
ENDCHAR

STARTCHAR cns2_2225
ENCODING 8741
SWIDTH 960 0
DWIDTH 34 0
BBX 34 34 0 -2
BITMAP
0000000000
0000000000
0000000000
0000001800
3063FFFC00
3FF0003800
3060007000
306000C000
3060018000
3060070000
3060060000
3060060000
3060060000
3060060000
3060060000
3060060300
306FFFFF80
3060060000
3060060000
3060060000
3060060000
3060060000
3FE0060000
3060060000
3060060000
3000060000
0000060000
0000060000
0000060000
00000E0000
0001FC0000
0000180000
0000000000
0000000000
ENDCHAR

STARTCHAR cns2_2226
ENCODING 8742
SWIDTH 960 0
DWIDTH 34 0
BBX 34 34 0 -2
BITMAP
0000000000
0000000000
1000000600
1FFFFFFF00
1800000600
1801800600
1803800600
1803800600
1803000600
1807000600
1806006600
1BFFFFF600
180E060600
180C060600
181C060600
18180C0600
18380C0600
18300C0600
1870180600
187C180600
18EFB00600
1801F00600
1800FC0600
1801CF0600
1807038600
183C01E600
1BE0006600
1800000600
1800000600
1FFFFFFE00
1800000600
1800000600
0000000000
0000000000
ENDCHAR

STARTCHAR cns2_2227
ENCODING 8743
SWIDTH 960 0
DWIDTH 34 0
BBX 34 34 0 -2
BITMAP
0000000000
0000000000
0001800000
0003800000
0007000000
000E000000
001C000000
1830000600
1FFFFFFF00
1800000600
1800018600
1800018600
1800038600
18E0030600
1830070600
181C060600
180E0E0600
18039C0600
1801F80600
1800F00600
1800780600
1800DC0600
18018E0600
1807070600
180E038600
181801C600
187000E600
19C0004600
1800000600
1FFFFFFE00
1800000600
1800000600
0000000000
0000000000
ENDCHAR

STARTCHAR cns2_2228
ENCODING 8744
SWIDTH 960 0
DWIDTH 34 0
BBX 34 34 0 -2
BITMAP
0000000000
0000000000
0000000000
0300000C00
0383FFFE00
0300000C00
0300000C00
0300000C00
0300000C00
0300000C00
0300000C00
0318000C00
3FFC000C00
0301000C00
0301FFFC00
0301800C00
0301800C00
0301800000
0301800000
0301800000
0301800000
0301800000
0301800000
0331800000
03E1800200
0381800300
1E01800300
3801800300
0001800380
0001C00700
0000FFFE00
0000000000
0000000000
0000000000
ENDCHAR

STARTCHAR cns2_2229
ENCODING 8745
SWIDTH 960 0
DWIDTH 34 0
BBX 34 34 0 -2
BITMAP
0000000000
0000000000
0000100000
0300380000
0300380000
0300300000
0300700000
0300600600
0300FFFF00
0300C00000
0301C00000
0331800000
3FFB000000
0306000000
0300006000
0300FFF000
0300006000
030000C000
030001C000
0300038000
0300070000
03000E0000
03181C0000
0370380000
03C0700000
0700E00200
3E00C00200
3801C00300
0001800200
0001800300
0001C00780
0000FFFF00
0000000000
0000000000
ENDCHAR

STARTCHAR cns2_222A
ENCODING 8746
SWIDTH 960 0
DWIDTH 34 0
BBX 34 34 0 -2
BITMAP
0000000000
0000000000
0000300000
0380300000
0300300000
0300600000
0300600000
0300C00600
0300FFFF00
0301C00700
0331800600
3FFB000600
0307000600
0306000600
030C600600
0300700600
0300180600
03001C0600
03000C0600
0300080600
0300000600
0300000600
0318000600
03E0000600
03C0000600
0F00000600
7C00000C00
0000000C00
0000001800
00000FF800
000000F000
0000000000
0000000000
0000000000
ENDCHAR

STARTCHAR cns2_222B
ENCODING 8747
SWIDTH 960 0
DWIDTH 34 0
BBX 34 34 0 -2
BITMAP
0000000000
0000000000
0001C00000
0001800000
0003800000
0003000600
3FFFFFFF00
00070C0000
000E060000
001C030000
003801C000
006000E000
00C0007000
0380003C00
0780000E00
0CC0C06700
30C0E07000
00C0C06000
00C0C06000
00C0C06000
00C0C06000
00C0C06000
00C0C06000
00C0C06000
00C0C06000
00C0C06000
0180C06000
0180C06000
0300C06000
0300806000
0200006000
0400004000
0000000000
0000000000
ENDCHAR

STARTCHAR cns2_222C
ENCODING 8748
SWIDTH 960 0
DWIDTH 34 0
BBX 34 34 0 -2
BITMAP
0000000000
0000000000
0000030000
0000030000
000C030000
3FFE030000
000C060000
000C060000
000C060000
000C060000
000C060300
000CFFFF80
000C0C0C00
000C0C0C00
100C180C00
1FFC180C00
180C181C00
180C301800
1800301800
1800303800
1800303800
1800703000
18007C3000
180067F000
180000E000
183C00F000
19F001DC00
3F80038E00
7C00070600
30000C0300
0000700180
0001C00000
0000000000
0000000000
ENDCHAR

STARTCHAR cns2_222D
ENCODING 8749
SWIDTH 960 0
DWIDTH 34 0
BBX 34 34 0 -2
BITMAP
0000000000
0000000000
01C0001000
01C0007800
018001E000
01800F8000
03007C0000
0303CC0000
030C0C0000
3FFE0C0000
060C0C0000
060C0C0000
060C0C0000
060C0C0600
0C0C0C7F00
0C180FF000
0C18FF0000
1C1BEC0000
18180C0000
18300C0000
38300C0000
3E600C0000
37E00C0000
00E00C0000
00700C0100
01F80C0100
01980C0100
030C0C0180
06000C0380
0C000E0F00
180007FE00
3000000000
0000000000
0000000000
ENDCHAR

STARTCHAR cns2_222E
ENCODING 8750
SWIDTH 960 0
DWIDTH 34 0
BBX 34 34 0 -2
BITMAP
0000000000
0000000000
01C0000000
01C0000000
0180000600
0183FFFF00
0300060000
0300060000
030C060000
3FFE060000
060C060000
060C060000
060C060000
060C060000
0C0C060000
0C18060000
0C18060000
1818060000
1830060000
1830060000
3030060000
3E30060000
2730060000
01E0060000
00E0060000
01B8060000
0198060000
030C060000
0600060000
0C00060300
180FFFFF80
3000000000
0000000000
0000000000
ENDCHAR

STARTCHAR cns2_222F
ENCODING 8751
SWIDTH 960 0
DWIDTH 34 0
BBX 34 34 0 -2
BITMAP
0000000000
0000000000
00E0030000
00C0060000
00C0060000
01C0060000
0180060000
01860C0000
01860C0300
1FFF7FFF80
0306180C00
0306180C00
0306180C00
060C301800
060C301800
060C301800
0E18301800
0C18603000
0C18603000
1818603000
1C30603000
1F30F86000
39F0CF6000
00E003E000
007800E000
00DC01B800
018C031C00
030E060E00
06001C0700
0400380380
0800E00000
1003000000
0000000000
0000000000
ENDCHAR

STARTCHAR cns2_2230
ENCODING 8752
SWIDTH 960 0
DWIDTH 34 0
BBX 34 34 0 -2
BITMAP
0000000000
0000000000
018001C000
01C0018000
0180018000
0180018000
0180018000
0180018000
030CC18300
3FFFE18380
030CC18300
030CC18300
060CC18300
060CC18300
0618C18300
0618C18300
0C18C18300
0C18C18300
0C30C18300
0C30C18300
1830C18300
1F30C18300
3BF0C18300
20E0C18300
0070C18300
00F8C18300
01CCC18300
0386C18300
0300FFFF00
0600C00300
0C00C00300
1000C00300
2000000200
0000000000
ENDCHAR

STARTCHAR cns2_2231
ENCODING 8753
SWIDTH 960 0
DWIDTH 34 0
BBX 34 34 0 -2
BITMAP
0000000000
0000000000
0180001800
01C0007C00
018001E000
01800F8000
0303FB0000
0300030000
030C030000
3FFE030000
060C030000
060C030000
0C18030000
0C18030000
0C18030300
0C1BFFFF80
1830030000
1830030000
1830030000
1830030000
3830030000
3E60030000
33E0030000
01C0030000
00E0030000
01F0030000
0398030000
030C030000
0600030000
0C00030000
1800030000
3000030000
0000000000
0000000000
ENDCHAR

STARTCHAR cns2_2232
ENCODING 8754
SWIDTH 960 0
DWIDTH 34 0
BBX 34 34 0 -2
BITMAP
0000000000
0000000000
0380000000
0300030000
0300030000
0300060000
0300060000
0300060000
0300060000
03060C1800
3FFF0C1800
0306FFFF00
0306181800
0306183800
0306183000
3306183000
1B06307000
0F06306000
0F063C6000
070667E000
038600E000
078601B000
06C6039800
06C6070C00
0C860C0600
0C06380100
0C06600100
1806000300
1806000300
1007000780
3003FFFF00
2000000000
0000000000
0000000000
ENDCHAR

STARTCHAR cns2_2233
ENCODING 8755
SWIDTH 960 0
DWIDTH 34 0
BBX 34 34 0 -2
BITMAP
0000000000
0000000000
0000000000
0007000600
3FFFBFFF00
000E000E00
000C001C00
0018003000
0030006000
00E000C000
00C0030000
00C0030000
00C0030000
00C3030000
00CE030000
00F8030300
00E1FFFF80
07C0030000
7EC0030000
30C0030000
00C0030000
00C0030000
00C0030000
00C0030000
00C0030000
00C0030000
00C0030000
00C0030000
00C0030000
3FC0E70000
03803E0000
00000C0000
0000000000
0000000000
ENDCHAR

STARTCHAR cns2_2234
ENCODING 8756
SWIDTH 960 0
DWIDTH 34 0
BBX 34 34 0 -2
BITMAP
0000000000
0000000000
0000010000
07FFFF8000
0007038000
0006030000
000E030000
000E060300
000C07FF80
000C0E0300
001C0C0300
0018000300
0030000300
0060000600
00C0000600
0180071E00
070071FC00
0C0060F000
1000600000
0000600000
0030600000
007060C000
00E0607000
00E0603000
01C0601C00
0380600E00
0700600700
0E00600700
1800600300
301EE00000
0007C00000
0001800000
0000000000
0000000000
ENDCHAR

STARTCHAR cns2_2235
ENCODING 8757
SWIDTH 960 0
DWIDTH 34 0
BBX 34 34 0 -2
BITMAP
0000000000
0000000000
0380300000
0300300000
0300700000
0300600000
0300600600
0314FFFF00
3FFEC00600
0301C00600
0301800600
0333000600
033A000600
0330200600
0330380600
0330180600
03300C0600
03300E0600
0630000600
0630000C00
0630000C00
0630000C00
0630001800
0C30001800
0C30183900
0C300FF100
0C3001E100
1830000300
1830000780
103C000F00
300FFFFC00
2000000000
0000000000
0000000000
ENDCHAR

STARTCHAR cns2_2236
ENCODING 8758
SWIDTH 960 0
DWIDTH 34 0
BBX 34 34 0 -2
BITMAP
0000000000
0000000000
0380000000
0300000600
0307FFFF00
030030C000
030030C000
333030C000
333030C000
333030C000
333030C000
333030C000
333030C000
333030C000
333030C000
333030C000
333030C000
333030C000
333060C000
333060C000
333060C000
333060C000
3330C0C000
3330C0C000
3FF0C0C200
303180C300
303180C300
300300C300
000700C300
000600FF80
000C007F00
0018000000
0000000000
0000000000
ENDCHAR

STARTCHAR cns2_2237
ENCODING 8759
SWIDTH 960 0
DWIDTH 34 0
BBX 34 34 0 -2
BITMAP
0000000000
0000000000
0000000000
01C0000C00
0181FFFE00
0180000C00
0180000C00
0180000C00
3998000C00
319C000C00
3198000C00
3198000C00
3198000C00
3198C00C00
3198FFFC00
3198C00C00
3198C00C00
3198C00800
3198C00000
3198C00000
3198C00000
3198C00000
3198C00000
3198C00000
3198C00100
3FF8C00100
3018C00100
3018C00100
3000C00300
0000E00780
00007FFF00
0000000000
0000000000
0000000000
ENDCHAR

STARTCHAR cns2_2238
ENCODING 8760
SWIDTH 960 0
DWIDTH 34 0
BBX 34 34 0 -2
BITMAP
0000000000
0000000000
0300000000
0380000C00
0303FFFE00
03000C0E00
03000C0C00
23000C0C00
3B180C0C00
331C0C0C00
33180C0C00
33198C0C00
3318CC0C00
33186C0C00
33187C0C00
3318380C00
3318380C00
3318180C00
3318180C00
3318300C00
3318300C00
3318600C00
3318600C00
3318C00C00
3FF8C01800
3019801800
3019801800
3003001800
0006003800
000C007000
00180FE000
000001C000
0000000000
0000000000
ENDCHAR

STARTCHAR cns2_2239
ENCODING 8761
SWIDTH 960 0
DWIDTH 34 0
BBX 34 34 0 -2
BITMAP
0000000000
0000000000
00E001C000
00C0018000
00C0018000
00C0018000
00C0018000
00C0018000
38C7718700
30C6618600
30C6618600
30C6618600
30C6618600
30C6618600
30C6618600
30C6618600
30C6618600
30C6618600
30C6618600
30C6618600
30C6618600
30C6618600
30C6618600
30C6618600
30C6618600
30C6618600
30C6618600
30C6618600
3FFE7FFE00
3006600600
3006600600
3006600600
2000000000
0000000000
ENDCHAR

STARTCHAR cns2_223A
ENCODING 8762
SWIDTH 960 0
DWIDTH 34 0
BBX 34 34 0 -2
BITMAP
0000000000
0001800000
0001C00000
0001800000
0001800000
0401803000
07FFFFF800
0600000000
0600000000
0600000000
0600000000
0600000000
0700000000
03FFFFFC00
00FFFFF000
0000000000
0000000000
01C1C1C000
0181818000
0181818000
0181818000
0181818000
0181818000
0181818000
0181818100
0181818100
0301818100
0301818180
0601818380
0E01818380
0C0180FF00
1801800000
2000000000
0000000000
ENDCHAR

STARTCHAR cns2_223B
ENCODING 8763
SWIDTH 960 0
DWIDTH 34 0
BBX 34 34 0 -2
BITMAP
0000000000
0000000000
0000000000
000C000600
3FFE7FFF00
0180018000
0180018000
0180018000
0180018000
0180018000
0180018000
0180018000
0180018000
01B8018300
01E07FFF80
07C0018000
1F80018000
7980018000
3180018000
0180018000
0300018000
0300018000
0300018000
0300018000
0600018000
0600018000
0600018000
0600018000
0C00018000
0C00018000
0800018000
1800010000
0000000000
0000000000
ENDCHAR

STARTCHAR cns2_223C
ENCODING 8764
SWIDTH 960 0
DWIDTH 34 0
BBX 34 34 0 -2
BITMAP
0000000000
0000600000
0000700000
0000600000
0000600000
0000600000
0400600600
07FFFFFF00
0600000000
0600300000
0600380000
0600300000
0600300000
0600300000
0600300000
0600300000
0600301800
067FFFFC00
0600300000
0600300000
0600300000
0600300000
0C00300000
0C00300000
0C00300000
0C00300000
0C00300000
1800300000
1800300000
1800300300
31FFFFFF80
2000000000
0000000000
0000000000
ENDCHAR

STARTCHAR cns2_223D
ENCODING 8765
SWIDTH 960 0
DWIDTH 34 0
BBX 34 34 0 -2
BITMAP
0000000000
0000000000
000000C000
03FFFFE000
000000E000
000000C000
000000C000
000000C000
030000C000
03FFFFC000
030000C000
0300000800
0300000C00
0300000C00
0300000C00
0180001C00
01FFFFF800
007FFFE000
0000000000
0038030000
0030030000
0030030000
0030030700
3FFFFFFF80
0030030000
0030030000
0060030000
0060030000
00C0030000
0180030000
0700030000
1C00030000
0000000000
0000000000
ENDCHAR

STARTCHAR cns2_223E
ENCODING 8766
SWIDTH 960 0
DWIDTH 34 0
BBX 34 34 0 -2
BITMAP
0000000000
0000000000
0000060000
0010FF0000
0038060000
0070038000
00E001C000
01C000E000
0700003800
0C00001F00
3000003000
0FFFFFF800
0001803000
0001803000
0001803000
0601803000
07FFFFF000
0E01803000
0C01802000
0C01800000
1C01800000
1801800C00
1FFFFFFE00
3001800C00
3001800C00
0001800C00
0001801800
0001803800
00018FF000
000180E000
0001800000
0001800000
0000000000
0000000000
ENDCHAR

STARTCHAR cns2_223F
ENCODING 8767
SWIDTH 960 0
DWIDTH 34 0
BBX 34 34 0 -2
BITMAP
0000000000
0000000000
00C0600000
00E0600000
01C0600000
0380C00000
0300C00000
0600C00000
0E31800600
1C31FFFF00
1063800700
2063000600
00C6000600
01C6000600
038CC00600
0380600600
0780700600
0D80300600
1D80180600
31801C0600
0180080600
0180000600
0180000600
0180000600
0180000600
0180000C00
0180000C00
0180000C00
0180001C00
01800FF800
018001F000
0180000000
0000000000
0000000000
ENDCHAR

STARTCHAR cns2_2240
ENCODING 8768
SWIDTH 960 0
DWIDTH 34 0
BBX 34 34 0 -2
BITMAP
0000000000
0000000000
0200060000
0380070000
0300060000
0300060000
0300060000
0300060000
0360060000
0B30060000
0B30060600
1B1BFFFF00
1B180C0000
3B000C0000
33000E0000
33000E0000
03000F0000
03001D0000
0300198000
0300198000
030039C000
030030C000
030030E000
0300606000
0300E07000
0300C03000
0301803800
0303001C00
0306000E00
030C000780
0318000300
0000000000
0000000000
0000000000
ENDCHAR

STARTCHAR cns2_2241
ENCODING 8769
SWIDTH 960 0
DWIDTH 34 0
BBX 34 34 0 -2
BITMAP
0000000000
0000000000
0300180000
0380380000
0300300000
0300300000
0300600000
0300600300
0B60FFFF80
0B30C00000
1B31C00000
1B19800000
1B1B000000
3B06000000
3300006000
0300FFF000
030000E000
030001C000
0300038000
0300070000
03000E0000
03000C0000
0300180000
0300300000
0300700100
0300E00100
0300C00100
0301800300
0301800300
0301C00780
0300FFFF00
00007FFC00
0000000000
0000000000
ENDCHAR

STARTCHAR cns2_2242
ENCODING 8770
SWIDTH 960 0
DWIDTH 34 0
BBX 34 34 0 -2
BITMAP
0000000000
0000000000
0380003800
030000F800
030007C000
03007E0000
0303C60000
0300060000
0F60060000
0F30060000
0B38060000
1B18060000
1B18060000
3B00060700
3307FFFF80
0300060000
0300060000
0300060000
0300060000
0300060000
0300060000
0300060000
0300060000
0300060000
0300060000
0300060000
0300060000
0300060000
0300060000
0300060000
0300060000
0000040000
0000000000
0000000000
ENDCHAR

STARTCHAR cns2_2243
ENCODING 8771
SWIDTH 960 0
DWIDTH 34 0
BBX 34 34 0 -2
BITMAP
0000000000
0000000000
0180000000
01C0000000
0180000600
0180FFFF00
0180018000
0180018000
018C018000
3FFE018000
0180018000
0180018000
0180018000
0180018000
0180018300
0181FFFF80
0198018000
01E0018000
01C0018000
0F80018000
3D80018000
0180018000
0180018000
0180018000
0180018000
0180018000
0180018000
0180018000
0180018000
01807B8000
3F801F0000
0700020000
0000000000
0000000000
ENDCHAR

STARTCHAR cns2_2244
ENCODING 8772
SWIDTH 960 0
DWIDTH 34 0
BBX 34 34 0 -2
BITMAP
0000000000
0000000000
0180000000
01C0000600
0181FFFF00
0180030000
0180030000
0180030000
0180030000
0198030000
3FFC030000
0180030000
0180030000
0180030000
0180030300
0183FFFF80
01B8030000
01E0030000
01C0030000
0F80030000
3D80030000
0180030000
0180030000
0180030000
0180030000
0180030000
0180030000
0180030000
0180030000
0180030000
3F00030000
0700030000
0000000000
0000000000
ENDCHAR

STARTCHAR cns2_2245
ENCODING 8773
SWIDTH 960 0
DWIDTH 34 0
BBX 34 34 0 -2
BITMAP
0000000000
0000000000
0180000000
01C0000000
0180000600
0187FFFF00
018030C000
018030C000
019830C000
3FFC30C000
018030C000
018030C000
018030C000
018030C000
018030C000
018030C000
019830C000
01E030C000
01C030C000
078030C000
3D8060C000
018060C000
018060C000
0180E0C000
0180C0C100
0181C0C100
018180C100
018300C100
018300C180
018600E380
3F8C007F00
0718000000
0000000000
0000000000
ENDCHAR

STARTCHAR cns2_2246
ENCODING 8774
SWIDTH 960 0
DWIDTH 34 0
BBX 34 34 0 -2
BITMAP
0000000000
0000000000
0180030000
01C0038000
0180030000
0180C30000
0180E30000
0180C30000
0180C30000
0198C30600
1FFCC33F00
0180C3E700
0180FF0600
0187C30600
0180C30600
0180C30600
01B0C30600
01E0C30600
03C0C30600
0F80C30E00
3D80C30C00
0180C31C00
0180C37800
0180C31000
0180C20000
0180C00100
0180C00100
0180C00300
0180C00380
0380E00780
3F007FFF00
0600000000
0000000000
0000000000
ENDCHAR

STARTCHAR cns2_2247
ENCODING 8775
SWIDTH 960 0
DWIDTH 34 0
BBX 34 34 0 -2
BITMAP
0000000000
0000000000
0180003800
01C000F000
018003C000
01803E0000
0183E60000
0180060000
0198060000
1FFC060000
0180060000
0180060000
0180060000
0180060300
0187FFFF80
0180060000
0180060000
01B8060000
01E0060000
0780060000
1F80060000
7180060000
0180060000
0180060000
0180060000
0180060000
0180060000
0180060000
0180060000
0380060000
3F00060000
0E00040000
0000000000
0000000000
ENDCHAR

STARTCHAR cns2_2248
ENCODING 8776
SWIDTH 960 0
DWIDTH 34 0
BBX 34 34 0 -2
BITMAP
0000000000
0000000000
01801C0000
01C0180000
0180380000
0180300000
0180700000
0180600300
0198FFFF80
3FFCC00000
0181C00000
0181800000
0183000000
0186006000
0180FFF000
018000E000
019801C000
01F0018000
01C0030000
0780060000
3D800E0000
01800C0000
0180180000
0180300000
0180700100
0180600100
0180C00300
0181C00300
0181800300
0181C00780
3F00FFFF00
0700000000
0000000000
0000000000
ENDCHAR

STARTCHAR cns2_2249
ENCODING 8777
SWIDTH 960 0
DWIDTH 34 0
BBX 34 34 0 -2
BITMAP
0000000000
0000000000
0180003000
01C0003800
0180003000
0180003000
0180003000
0180003000
0198003300
3FFDFFFF80
0180003000
0180003000
0180003000
0180C03000
0180C03000
0180603000
0198603000
01F0706000
01C0306000
0780306000
3D80186000
01801CC000
01800CC000
018007C000
0180078000
0180038000
018007C000
01801CE000
0180387800
0180601F80
3F81800600
0706000000
0000000000
0000000000
ENDCHAR

STARTCHAR cns2_224A
ENCODING 8778
SWIDTH 960 0
DWIDTH 34 0
BBX 34 34 0 -2
BITMAP
0000000000
0000000000
0180000000
01C0000000
0180000600
0180FFFF00
0180000600
0180400600
01986E0600
3FFC630E00
0180638C00
0180618C00
0180300C00
0180301800
0180301800
0180101800
0198183000
01E0183000
03C00C6000
0F800C6000
3D8006E000
018007C000
0180038000
0180038000
018006C000
01801CE000
0180387000
0180603C00
0181C00F00
0187000780
3F1C000000
0620000000
0000000000
0000000000
ENDCHAR

STARTCHAR cns2_224B
ENCODING 8779
SWIDTH 960 0
DWIDTH 34 0
BBX 34 34 0 -2
BITMAP
0000000000
0000000000
0180180000
01C0180000
0180380000
0180300000
0180700000
0180600000
0198E00300
3FFCFFFF80
0180C00380
0181C00300
0181800300
0183000300
0186200300
0180380300
01981C0300
01F00C0300
01C0060300
0380070300
1F80030300
3980000300
0180000300
0180000300
0180000600
0180000600
0180000600
0180000600
0180000C00
338007DC00
1F0001F800
0600000000
0000000000
0000000000
ENDCHAR

STARTCHAR cns2_224C
ENCODING 8780
SWIDTH 960 0
DWIDTH 34 0
BBX 34 34 0 -2
BITMAP
0000000000
0000000000
01800C0000
01C00E0000
01800C0000
01800C0000
01800C0000
01800C0000
018C0C0000
1FFE0C0600
0180FFFF00
01800C0000
01800C0000
01800C0000
01800C0000
01800C0000
01980C0000
01F00C0000
01C00C0700
0783FFFF80
3D800C0000
01800C0000
01800C0000
01800C0000
01800C0100
01800C0100
01800C0180
01800C0180
01800C0380
73800F0F00
1F0007FC00
0600000000
0000000000
0000000000
ENDCHAR

STARTCHAR cns2_224D
ENCODING 8781
SWIDTH 960 0
DWIDTH 34 0
BBX 34 34 0 -2
BITMAP
0000000000
0000000000
0000060000
0000070000
0001860000
3FFFC60000
0180060000
01800E0000
01800C0000
01800C0300
03001FFF80
0300181800
0300181800
0306381800
07FF301800
0607381800
06066C3000
06064C3000
0006063000
0006063000
0006036000
000603E000
000C01C000
000C01C000
000C01C000
000C03E000
000C077000
00180E3800
0018181C00
0030300E00
0FF0E00780
01E3800000
0000000000
0000000000
ENDCHAR

STARTCHAR cns2_224E
ENCODING 8782
SWIDTH 960 0
DWIDTH 34 0
BBX 34 34 0 -2
BITMAP
0000000000
0000000000
0000000000
0180006000
01FFFFF000
0180006000
0180006000
0180006000
01FFFFE000
0180006000
0180006000
0180006000
0180006000
01FFFFE000
0186006000
0007000000
0006000000
0006000000
0006030000
1FFFFF8000
0006030000
0006030000
000E030000
000C030000
000C030000
0018030100
0018030100
0030030300
0060030380
01C0038380
070001FF00
3C00000000
0000000000
0000000000
ENDCHAR

STARTCHAR cns2_224F
ENCODING 8783
SWIDTH 960 0
DWIDTH 34 0
BBX 34 34 0 -2
BITMAP
0000000000
0006000000
0007000000
0006000000
0006000000
0006030000
1FFFFF8000
0006030000
0006030000
000C030000
000C030000
0018030100
0018030100
0030030100
0060030300
01C0030380
038003FF00
0E0001FE00
3800000000
0180006000
01FFFFF000
0180007000
0180006000
0180006000
0180006000
01FFFFE000
0180006000
0180006000
0180006000
0180006000
01FFFFE000
0180006000
0000000000
0000000000
ENDCHAR

STARTCHAR cns2_2250
ENCODING 8784
SWIDTH 960 0
DWIDTH 34 0
BBX 34 34 0 -2
BITMAP
0000000000
0000000000
00F0000000
00E0000000
00C0000000
00C0000300
00C1FFFF80
00C000C000
00C600C000
1FFF00C000
00C000C000
00C000C000
01C000C000
01E000C000
01F000C000
03D800C000
03DC00C000
07CC00C000
06C000C000
0CC000C000
0CC000C000
18C000C000
30C000C000
20C000C000
00C000C000
00C000C000
00C000C000
00C000C000
00C000C000
00C000C000
00C01FC000
0080038000
0000000000
0000000000
ENDCHAR

STARTCHAR cns2_2251
ENCODING 8785
SWIDTH 960 0
DWIDTH 34 0
BBX 34 34 0 -2
BITMAP
0000000000
0000000000
0180300000
01C0380000
0180300000
0180300000
0180300000
0180300000
0198300000
7FFC306000
0183FFF000
0380307000
0380306000
03C0306000
07E0306000
07B0306000
07B0606000
0D98606000
0D88606000
1980606000
1980606000
3180606000
3180606000
6180C06000
4180C06100
0181806100
0181806100
0183006300
0187006300
0186007F80
018C003F00
0010000000
0000000000
0000000000
ENDCHAR

STARTCHAR cns2_2252
ENCODING 8786
SWIDTH 960 0
DWIDTH 34 0
BBX 34 34 0 -2
BITMAP
0000000000
0000000000
0180060000
01C0070000
0180060000
0180060000
0180060000
0180060000
0180060000
0198060300
3FFDFFFF80
0180060300
0180060300
0180060300
0380060300
03E0060300
07B00C0300
05B00C0300
0D980C0300
0D880C0600
19800C0600
1980180600
3180180600
2180180600
0180300600
0180300C00
0180600C00
0180E00C00
0180C01800
01819F7800
018307F000
010600C000
0000000000
0000000000
ENDCHAR

STARTCHAR cns2_2253
ENCODING 8787
SWIDTH 960 0
DWIDTH 34 0
BBX 34 34 0 -2
BITMAP
0000000000
0000000000
01C0000000
0180000E00
0180000C00
0180600C00
0180700C00
0180600C00
018C600C00
3FFE600C00
0180600C00
0180600C00
0380600C00
03C0600C00
03E0600C00
07B0600C00
07B8600C00
0F98600C00
0D80600C00
1980600C00
1980600C00
3180600C00
218060FC00
01806F8C00
0181FC0C00
0187C00C00
0180000C00
0180000C00
0180000C00
0180000C00
0180000C00
0000000C00
0000000000
0000000000
ENDCHAR

STARTCHAR cns2_2254
ENCODING 8788
SWIDTH 960 0
DWIDTH 34 0
BBX 34 34 0 -2
BITMAP
0000000000
0000000000
0180000000
01C0406000
01807FF000
0180606000
0180606000
0180606000
018C606000
3FFE606000
0180606000
0180606000
0380606000
0380606000
03C0606000
07A0606000
07B0606000
0DB8606000
0D98606000
1980606000
1980606000
1980E06000
3180C06000
2180C06000
0181C06100
0181C06100
0181806300
0183806300
0183006300
0187007780
0186003F00
000C000000
0000000000
0000000000
ENDCHAR

STARTCHAR cns2_2255
ENCODING 8789
SWIDTH 960 0
DWIDTH 34 0
BBX 34 34 0 -2
BITMAP
0000000000
0000C00000
0000E00000
0000C00000
0000C00000
0000C00000
0000C00600
1FFFFFFF00
0000C00000
0000C00000
0180C03000
01FFFFF800
0180C03000
0180C03000
0180C03000
0180C03000
0180C03000
0180C03000
0180C03000
0180C03000
0181E3F000
0183F06000
0007DC0000
000ECE0000
0018C30000
0070C1C000
00E0C0E000
0180C07800
0700C01E00
0C00C00700
3000C00000
0000C00000
0000000000
0000000000
ENDCHAR

STARTCHAR cns2_2256
ENCODING 8790
SWIDTH 960 0
DWIDTH 34 0
BBX 34 34 0 -2
BITMAP
0000000000
0000000000
0180600000
01C0700000
0180700000
0180600000
0180600000
0180600000
018C600000
3FFE600000
0180600000
0180600000
0380600C00
03C07FFE00
03E0600000
07B0600000
07B8600000
0598600000
0D80600000
0D80600000
1980600000
3180600000
3180600000
6180600000
0180600200
0180600200
0180600200
0180600700
0180600700
0180783E00
01801FF800
0000000000
0000000000
0000000000
ENDCHAR

STARTCHAR cns2_2257
ENCODING 8791
SWIDTH 960 0
DWIDTH 34 0
BBX 34 34 0 -2
BITMAP
0000000000
0000000000
0180000000
01C0000000
0180000000
0180060000
0180060000
0180030000
0198C30000
3FFCE30000
0180C30000
0180C30000
0380C18000
03C0C18000
03E0C18000
03B0C18000
07B9818000
079980C000
0D8180C000
0D8180C000
1981806000
1983006000
3183006000
2183003000
0186003800
0186001800
0186001C00
018C000C00
018C000E00
0198000700
0198000380
0130000000
0000000000
0000000000
ENDCHAR

STARTCHAR cns2_2258
ENCODING 8792
SWIDTH 960 0
DWIDTH 34 0
BBX 34 34 0 -2
BITMAP
0000000000
0000000000
0070000000
00E0000000
00C0001800
01FFFFFC00
0180000000
0380000000
0700018000
067FFFC000
0C00000000
1800000000
3000006000
07FFFFF000
0000006000
0000006000
0060606000
0070706000
0070606000
0060606000
0060606000
0060606000
0060606000
0060603080
00C0603080
00C0603180
00C0601980
0180601980
0300600F80
0600600700
0C00600000
1800000000
2000000000
0000000000
ENDCHAR

STARTCHAR cns2_2259
ENCODING 8793
SWIDTH 960 0
DWIDTH 34 0
BBX 34 34 0 -2
BITMAP
0000000000
0000000000
0007000000
0003800000
0001C00000
0001E00000
0003B00000
0007180000
000E0C0000
001C070000
0038038000
007000E000
00E0007800
0380C03E00
0E00E00F00
3000C00000
0000C00000
0000C06000
000CE0F000
1FFEF1C000
001CDB0000
0018DC0000
0038CC0000
0030C70000
0060C38000
00E0C1C000
01C0C0F000
0300C03C00
0E00C01F00
1800C00400
203FC00000
0003800000
0000000000
0000000000
ENDCHAR

STARTCHAR cns2_225A
ENCODING 8794
SWIDTH 960 0
DWIDTH 34 0
BBX 34 34 0 -2
BITMAP
0000000000
0000000000
0000060000
0E00070000
0700060000
0380060000
0180060000
0000060000
0006060300
0067FFFF80
0066000000
3066000000
18E6000000
0CC6000000
0EC6000000
00C6000000
01C6000000
0186000000
0186000000
0386000000
0386000000
0306000000
0706000000
0F06000000
3E06000000
0E06000000
0606000000
0606000000
0706000000
0707000200
0703FFFF00
0200000000
0000000000
0000000000
ENDCHAR

STARTCHAR cns2_225B
ENCODING 8795
SWIDTH 960 0
DWIDTH 34 0
BBX 34 34 0 -2
BITMAP
0000000000
0000000000
0000000000
0C06003000
0707FFF800
0386003000
0186003000
0006003000
0006003000
0046003000
6046003000
30C6003000
18C6003000
0CC6003000
0CC6003000
0187FFF000
0186003000
0186000000
0306000000
0306000000
0306000000
0606000000
0606000000
0606000000
7C06000100
1C06000100
0C06000100
0C06000100
0C06000180
0E07000380
0603FFFF00
0600000000
0000000000
0000000000
ENDCHAR

STARTCHAR cns2_225C
ENCODING 8796
SWIDTH 960 0
DWIDTH 34 0
BBX 34 34 0 -2
BITMAP
0000000000
0000000000
0C000C0000
06000E0000
03800C0000
01C00C0000
00C00C0000
00000C0000
00000C0000
00300C0000
00300C0600
3867FFFF00
0C600C0000
06600C0000
06C00C0000
00C00E0000
00C00E0000
01801F0000
01801B0000
01801B8000
0300198000
030031C000
070030C000
1E0060E000
3E00607000
0E00C07000
0601C03800
0603801C00
0707000E00
070E000780
0718000300
0230000000
0000000000
0000000000
ENDCHAR

STARTCHAR cns2_225D
ENCODING 8797
SWIDTH 960 0
DWIDTH 34 0
BBX 34 34 0 -2
BITMAP
0000000000
0000000000
0C00000000
0700000C00
0383FFFE00
01C0000E00
0180000E00
0000CC0C00
0000CE1C00
0010C71C00
3030631C00
1830601800
0C60601800
0660303800
0660303000
00C0303000
00C0386000
00C0186000
01801CE000
01800CC000
01800FC000
0300078000
0300030000
0700078000
3E000DC000
0E0038E000
0600707000
0600C03800
0703801E00
070E000700
0730000180
0340000000
0000000000
0000000000
ENDCHAR

STARTCHAR cns2_225E
ENCODING 8798
SWIDTH 960 0
DWIDTH 34 0
BBX 34 34 0 -2
BITMAP
0000000000
0000000000
0C00600000
0700700000
0380600000
01C0E00000
0180C00000
0000C00600
0001FFFF00
0013800000
3033000000
1836000000
0C66000000
066C00C000
0663FFE000
00C000C000
00C0018000
00C0030000
0180060000
01800C0000
0380180000
0300300000
0300700000
0700E00000
3E01C00100
0E03800100
0603000300
0607000300
0706000300
0707000780
0703FFFF00
0300000000
0000000000
0000000000
ENDCHAR

STARTCHAR cns2_225F
ENCODING 8799
SWIDTH 960 0
DWIDTH 34 0
BBX 34 34 0 -2
BITMAP
0000000000
0000000000
0000380000
0600300000
0380300000
01C0700000
01C0600000
0000E00300
0000FFFF80
0031C00300
0031800300
3873000300
1C67000300
0C66000300
06EC000300
00C0600300
00C0300300
01C0180300
01801C0300
03800E0300
0380060300
0300000300
0700000300
0F00000600
3E00000600
0E00000600
0600000C00
0600000C00
0700001C00
07000FF800
070000F000
0200000000
0000000000
0000000000
ENDCHAR

STARTCHAR cns2_2260
ENCODING 8800
SWIDTH 960 0
DWIDTH 34 0
BBX 34 34 0 -2
BITMAP
0000000000
0000000000
0404000400
0707000700
0386070600
01C6060600
00C6060600
0006060600
0006060600
0016060600
0016060600
3836060600
1C26060600
0E66060600
0666060600
00C6060600
00C6060600
01C6060600
0186060600
0186060600
0306060600
030C060600
070C060600
3E0C060600
0E0C060600
0E18060600
0618060600
0618060600
0730000600
0730000600
0760000600
0240000000
0000000000
0000000000
ENDCHAR

STARTCHAR cns2_2261
ENCODING 8801
SWIDTH 960 0
DWIDTH 34 0
BBX 34 34 0 -2
BITMAP
0000000000
0000000000
0180000000
0180000300
0181FFFF80
01800C0380
01800C0300
01800C0300
019C0C0300
01B80C0300
09F00C0300
0DC00C0300
19800C0300
19800C0300
19800C0300
39800C0300
39800C0300
0180180300
0180180300
0180180300
0380300300
03C0300300
0360300600
0370600300
0630600600
0618C00600
0C19800600
0C03800C00
18070E1C00
180E07F800
301800F000
0060000000
0000000000
0000000000
ENDCHAR

STARTCHAR cns2_2262
ENCODING 8802
SWIDTH 960 0
DWIDTH 34 0
BBX 34 34 0 -2
BITMAP
0000000000
0000000000
00C0070000
00E0060000
0CC0060000
0EC0060000
0CC0060000
0CC0060000
18CC060000
1FFE060300
18C0FFFF80
38C0060300
30C0060300
30C0060300
60C0060300
00C0060300
00C0060300
00F80C0300
00F00C0300
03C00C0300
0FC00C0600
7CC00C0300
00C0180600
00C0180600
00C0300600
00C0300600
00C0600E00
00C0C00C00
00C0C01C00
00C187F800
00C300E000
0086000000
0000000000
0000000000
ENDCHAR

STARTCHAR cns2_2263
ENCODING 8803
SWIDTH 960 0
DWIDTH 34 0
BBX 34 34 0 -2
BITMAP
0000000000
0000000000
0010000000
0038000600
0C71FFFF00
0660030000
03E0030000
01C0030000
03C0030000
06C0030000
0CC0030000
18C0030000
0060030000
0060030300
0073FFFF80
00F0030000
00F0030000
01B0030000
0330030000
0630030000
0C30030000
1830030000
2030030000
0030030000
0030030000
0030030000
0030030000
0030030000
0060030000
00E0030000
0FC0030000
0180030000
0000000000
0000000000
ENDCHAR

STARTCHAR cns2_2264
ENCODING 8804
SWIDTH 960 0
DWIDTH 34 0
BBX 34 34 0 -2
BITMAP
0000000000
0000000000
0010200000
0038300000
0C70700000
0660600000
03E0600000
01C0C00300
0380FFFF80
07C1C00000
0CC1800000
30E3000000
0066000000
0064006000
0070FFF000
00F000E000
01F001C000
03B0038000
0330070000
06300E0000
0C301C0000
1830380000
2030300000
0030700000
0030600300
0030C00300
0030C00300
0031800380
0061C00780
00E0FFFF00
1FC07FFE00
0380000000
0000000000
0000000000
ENDCHAR

STARTCHAR cns2_2265
ENCODING 8805
SWIDTH 960 0
DWIDTH 34 0
BBX 34 34 0 -2
BITMAP
0000000000
0000000000
0000000000
0018000300
3FFDFFFF80
018000C000
018000C000
018000C000
018000C000
018000C000
018000C000
018000C000
018C00C000
3FFE00C000
018000C000
018000C000
018000C000
018000C000
018000C000
018000C000
018000C000
018000C000
019C00C000
01F000C000
07C000C000
7E0000C000
300000C000
000000C000
000000C000
000039C000
00000F8000
0000030000
0000000000
0000000000
ENDCHAR

STARTCHAR cns2_2266
ENCODING 8806
SWIDTH 960 0
DWIDTH 34 0
BBX 34 34 0 -2
BITMAP
0000000000
0000000000
0007000000
0006000000
000C000000
0018000000
01B0000600
01FFFFFF00
0180300600
0180300600
0180300600
0180300600
0180300600
01FFFFFE00
0180300600
0180300600
0180300600
0180300600
0180300600
0180300600
01FFFFFE00
0380300600
0380300600
0300300600
0300300600
0700300600
0600300600
0600300600
0C00300600
0C00300600
180031FE00
1000007C00
2000000000
0000000000
ENDCHAR

STARTCHAR cns2_2267
ENCODING 8807
SWIDTH 960 0
DWIDTH 34 0
BBX 34 34 0 -2
BITMAP
0000000000
0000000000
0000000000
00C0180000
00C0180000
00C0180000
0180180000
0180180000
1B0C180000
1FFE180000
180C180000
180C180000
180C180000
180C180000
180C180000
180C180000
180C180000
180C180000
1FFC180000
180C180000
180C180000
180C180000
180C180000
180C180000
180C180000
180C180200
180C180200
1FFC180300
180C180300
180C180700
00001E1E00
000007F800
0000000000
0000000000
ENDCHAR

STARTCHAR cns2_2268
ENCODING 8808
SWIDTH 960 0
DWIDTH 34 0
BBX 34 34 0 -2
BITMAP
0000000000
0000000000
0000C00000
0000E00000
0400C00000
0C00C00600
0FFFFFFF00
0C00180E00
180C1C0C00
180E181800
301C183100
0038180100
00701C0380
00E00FFF00
038007FE00
1E00000000
30000C0000
01FFFE0000
00001C0000
0000300000
0000E00000
0001800000
0007000000
000E000000
0018000000
0070000400
00E0000400
01C0000C00
0380000C00
0380001C00
01FFFFF800
00FFFFF000
0000000000
0000000000
ENDCHAR

STARTCHAR cns2_2269
ENCODING 8809
SWIDTH 960 0
DWIDTH 34 0
BBX 34 34 0 -2
BITMAP
0000000000
0000000000
0000000000
1800000C00
1FFFFFFE00
1800000C00
1800000C00
1800000C00
180C01CC00
180E018C00
180C018C00
180C018C00
1B0CE30C00
1B98730C00
19D83B0C00
18F81F0C00
18300E0C00
1838070C00
187C0F8C00
186E0D8C00
18C619CC00
19C730CC00
1B8330EC00
1E00606C00
1C00C00C00
1800000C00
1800000C00
1800000C00
1800000C00
180003DC00
180000F800
0000001000
0000000000
0000000000
ENDCHAR

STARTCHAR cns2_226A
ENCODING 8810
SWIDTH 960 0
DWIDTH 34 0
BBX 34 34 0 -2
BITMAP
0000000000
0000000000
007000E000
006000C000
006000C000
006000C000
0C6318C000
0E639CC380
0C6318C300
0C6318C300
0C6318C300
0C6318C300
0C6318C300
0C6318C300
0C6318C300
0C6318C300
0C6318C300
0C6318C300
0C6318C300
0FFF1FFF00
0C6318C300
0C6318C300
0C6000C000
00E000C000
00C000C000
00C000C000
01C000C000
018000C000
030000C000
060000C000
0C0000C000
300000C000
0000000000
0000000000
ENDCHAR

STARTCHAR cns2_226B
ENCODING 8811
SWIDTH 960 0
DWIDTH 34 0
BBX 34 34 0 -2
BITMAP
0000000000
00180C0000
001C0E0000
00180C0000
00180C0000
00180C0600
1FFFFFFF00
00180C0000
00180C0000
00180C0000
0018000000
0000000000
0000000600
3FFFFFFF00
0000C00000
0000C00000
0000C00000
0000C00000
0000C00000
0000C00000
0000C00000
0000C00000
0000C00000
0000C00000
0000C00000
0000C00000
0000C00000
0000C00000
0000C00000
003FC00000
0003800000
0000000000
0000000000
0000000000
ENDCHAR

STARTCHAR cns2_226C
ENCODING 8812
SWIDTH 960 0
DWIDTH 34 0
BBX 34 34 0 -2
BITMAP
0000000000
0018060000
001C070000
0018060000
0018060000
0018060600
1FFFFFFF00
0018060000
0018060000
0000000000
0000000000
0000000000
0000001800
07FFFFFC00
0003001C00
0003001800
0003001800
0003001800
0003001800
0006001800
0006001800
0006001800
000C001800
000C001800
0018001800
0038003000
0070003000
00E0006000
018070E000
07001FC000
0C00038000
1000000000
0000000000
0000000000
ENDCHAR

STARTCHAR cns2_226D
ENCODING 8813
SWIDTH 960 0
DWIDTH 34 0
BBX 34 34 0 -2
BITMAP
0000000000
0000000000
001C070000
0018060000
0018060000
0018060600
3FFFFFFF00
0018060000
0018060000
0000000000
0006000000
0007000000
0006000000
0006000000
0006060000
0FFFFF0000
000C070000
000C060000
000C060000
000C060000
000C060000
0018060000
0018060000
0018060000
0030060000
0030060100
0060060100
00E0060300
01C0060380
0300070700
060003FE00
180000F800
2000000000
0000000000
ENDCHAR

STARTCHAR cns2_226E
ENCODING 8814
SWIDTH 960 0
DWIDTH 34 0
BBX 34 34 0 -2
BITMAP
0000000000
0000000000
001C070000
0018060000
0018060000
0018060300
3FFFFFFF80
0018060000
0018060000
0000000000
0000000000
0000018000
1FFFFFC000
000601C000
0006018000
0006030000
000C030000
000C070000
000C060600
00180FFF00
00180C0700
0018000600
0030000600
0030000600
0060000600
00E0000600
00C0000C00
0180000C00
0300001C00
0600183800
18000FF000
100001E000
0000000000
0000000000
ENDCHAR

STARTCHAR cns2_226F
ENCODING 8815
SWIDTH 960 0
DWIDTH 34 0
BBX 34 34 0 -2
BITMAP
0000000000
0000000000
0001C00000
0001800000
0001801800
0001FFFC00
0001800000
0001800000
0801800600
0FFFFFFF00
0C00000700
0C00000E00
0C01000C00
0C01C01800
0C01800000
0C01800000
0C01800000
0C01807000
0C0181F800
0C019F8000
0C0FF80000
0CFF800000
0C01800000
0C01800000
0C01800100
1801800100
1801800300
1801800300
1801C00780
3000FFFF00
30003FFC00
6000000000
0000000000
0000000000
ENDCHAR

STARTCHAR cns2_2270
ENCODING 8816
SWIDTH 960 0
DWIDTH 34 0
BBX 34 34 0 -2
BITMAP
0000000000
0000000000
0000000000
0000000300
3FFFFFFF80
000C0C0000
000C0C0000
000C0C0000
000C0C0000
000C0C0000
000C0C0000
0C0C0C0C00
0FFFFFFE00
0C0C0C0C00
0C0C0C0C00
0C0C0C0C00
0C0C0C0C00
0C0C0C0C00
0C0C0C0C00
0C0C0C0C00
0C0FFC0C00
0C0C0C0C00
0C00000C00
0C00000C00
0C00000C00
0C00000C00
0C00000C00
0C00000C00
0C00000C00
0C00000C00
0C00000C00
0000000000
0000000000
0000000000
ENDCHAR

STARTCHAR cns2_2271
ENCODING 8817
SWIDTH 960 0
DWIDTH 34 0
BBX 34 34 0 -2
BITMAP
0000000000
0000000000
00700C0600
00600FFF00
00600C0700
00600C0E00
20600C0C00
3060CC1C00
3FFFEC1800
30000C3000
30000C3000
30000C6000
30000C4000
30000CC000
30000C6000
30000C3800
30000C1800
30000C0C00
30000C0600
30000C0700
30000C0300
30000C0300
30000C0300
30000C0300
38000C0700
3FFFEDEE00
1FFFCCFC00
00000C1000
00000C0000
00000C0000
00000C0000
00000C0000
0000000000
0000000000
ENDCHAR

STARTCHAR cns2_2272
ENCODING 8818
SWIDTH 960 0
DWIDTH 34 0
BBX 34 34 0 -2
BITMAP
0000000000
0000000000
0000060300
0000C7FF80
1FFFE60300
0030060600
0030060600
0030060C00
0030060C00
0030061800
0030063000
0030063000
0030066000
0030066000
0030663000
3FFFF61800
0030060C00
0030060600
0030060700
0030060300
0030060380
0030060180
0030060180
0030060180
0030060380
003006C700
0030067E00
0030061800
0030060000
0030060000
0030060000
0020040000
0000000000
0000000000
ENDCHAR

STARTCHAR cns2_2273
ENCODING 8819
SWIDTH 960 0
DWIDTH 34 0
BBX 34 34 0 -2
BITMAP
0000000000
0000000000
00000C0600
00018FFF00
1FFFCC0700
00600C0E00
00600C0C00
00600C1800
00600C1800
00600C3000
00600C3000
00600C6000
00600C4000
00600CC000
0060CC6000
3FFFEC3000
00600C1800
00600C0C00
00600C0600
00600C0600
00600C0300
00600C0300
00600C0300
00600C0300
00600C0700
00600DEE00
00600CFC00
00600C1000
00600C0000
18E00C0000
0FC00C0000
01800C0000
0000000000
0000000000
ENDCHAR

STARTCHAR cns2_2274
ENCODING 8820
SWIDTH 960 0
DWIDTH 34 0
BBX 34 34 0 -2
BITMAP
0000000000
0000000000
00000C0300
00030FFF80
3FFF8C0700
01800C0600
01800C0E00
01800C0C00
01800C1800
01800C1800
01800C3000
01800C6000
01800C6000
01800CC000
01800C6000
01800C3000
01800C1800
01800C0C00
01800C0600
01800C0600
01830C0300
019C0C0300
01F00C0300
0FC00C0300
3E000C0300
00000C0700
00000CFE00
00000C1C00
00000C0000
00000C0000
00000C0000
0000080000
0000000000
0000000000
ENDCHAR

STARTCHAR cns2_2275
ENCODING 8821
SWIDTH 960 0
DWIDTH 34 0
BBX 34 34 0 -2
BITMAP
0000000000
0000000000
00030C0300
1FFF8FFF80
00030C0300
00030C0600
00030C0E00
00030C0C00
00030C1800
00030C1800
00030C3000
00030C7000
18030C6000
1FFF0CC000
18030C6000
18030C3000
18000C1800
18000C0C00
18000C0600
18000C0600
18000C0300
18000C0300
18000C0300
18004C0300
18004C0300
18004C0700
1800CCFE00
1800CC0C00
1C01CC0000
0FFF8C0000
00000C0000
0000080000
0000000000
0000000000
ENDCHAR

STARTCHAR cns2_2276
ENCODING 8822
SWIDTH 960 0
DWIDTH 34 0
BBX 34 34 0 -2
BITMAP
0000000000
0000000000
2060000000
3FF0000600
3077FFFF00
306030C000
30C030C000
30C030C000
318030C000
318030C000
318030C000
330030C000
330030C000
320030C000
330030C000
318030C000
30C030C000
306030C000
303060C000
303060C000
301860C000
301860C000
3030C0C000
3FF0C0C100
31E180C100
30C180C300
300300C300
300700C380
300600E380
300C007F00
3018003E00
0000000000
0000000000
0000000000
ENDCHAR

STARTCHAR cns2_2277
ENCODING 8823
SWIDTH 960 0
DWIDTH 34 0
BBX 34 34 0 -2
BITMAP
0000000000
0000000000
2060060000
3FF0070000
3070060000
30E3060000
30C3860000
30C3060000
3183060600
3183060700
3183067E00
330307C600
33033E0600
3203E60600
3307860600
319F060600
30C3060600
3063060600
3033060C00
3033060C00
301B060C00
301B061C00
303B06F800
3F73067000
33E3060000
30C3000100
3003000100
3003000300
3003000300
3003800780
3001FFFF00
0000000000
0000000000
0000000000
ENDCHAR

STARTCHAR cns2_2278
ENCODING 8824
SWIDTH 960 0
DWIDTH 34 0
BBX 34 34 0 -2
BITMAP
0000000000
0000000000
2060000000
3FF0000000
3070001800
3063FFFC00
30E0601C00
30C0601800
30C0601800
3180601800
3180601800
3300601800
3300601800
3200601800
3300601800
3180661800
30C3FF1800
3060601800
3030601800
3030601800
3018601800
3018601800
3018601800
3030601800
33F0600C00
30C0600C80
3000600C80
3000600E80
3000600780
3000600780
3000600300
3000600000
2000400000
0000000000
ENDCHAR

STARTCHAR cns2_2279
ENCODING 8825
SWIDTH 960 0
DWIDTH 34 0
BBX 34 34 0 -2
BITMAP
0000000000
0000000000
2060700000
3FF0700000
3070600000
30E0E00000
30C0C00000
30C1800C00
3181FFFE00
3183800000
3103000000
3307000000
3306000000
320C00C000
3303FFE000
318001C000
30C0038000
3060070000
3070060000
30300C0000
30381C0000
3038380000
3030700000
3770E00000
31E1C00200
30C1800200
3003800600
3003000600
3006000600
3007000700
3003FFFE00
3000FFF800
2000000000
0000000000
ENDCHAR

STARTCHAR cns2_227A
ENCODING 8826
SWIDTH 960 0
DWIDTH 34 0
BBX 34 34 0 -2
BITMAP
0000000000
0000000000
00E0000000
00E0300000
00C01C1C00
01C00E1C00
01C0071800
0180023800
0380003800
0300703000
0700603000
0700606000
0700606000
0F00606000
0F0060C000
1B0460C000
330661C800
3306618C00
030C638600
030C670700
030C660380
031C6C0380
03186C0100
0338780000
0330700800
0300600800
0300E00C00
0301E00C00
0303601C00
03063FF800
03180FE000
0320000000
0000000000
0000000000
ENDCHAR

STARTCHAR cns2_227B
ENCODING 8827
SWIDTH 960 0
DWIDTH 34 0
BBX 34 34 0 -2
BITMAP
0000000000
0000000000
00C0000000
00E0000600
00C7FFFF00
01C0060000
0180060000
0180060000
0384060600
0306060E00
0702061C00
0703863800
0F01C63000
0F00C66000
1B00E64000
1B00E64000
3300060000
6300060000
0300060300
031FFFFF80
0300060000
0300060000
0300060000
0300060000
0300060000
0300060000
0300060000
0300060000
0300060000
0300060000
0300060000
0300060000
0000000000
0000000000
ENDCHAR

STARTCHAR cns2_227C
ENCODING 8828
SWIDTH 960 0
DWIDTH 34 0
BBX 34 34 0 -2
BITMAP
0000000000
0000000000
00C0000000
00E4000600
00C7FFFF00
01C6000000
0186000000
0186000000
0386000000
0306000000
0306000000
0706000C00
0707FFFE00
0F06000C00
0F06000C00
1B06000C00
3306000C00
6306000C00
0306000C00
0306000C00
0307FFFC00
0306000C00
0306000000
0306000000
0306000000
0306000000
0306000000
0306000000
0306000300
0307FFFF80
0306000000
0306000000
0000000000
0000000000
ENDCHAR

STARTCHAR cns2_227D
ENCODING 8829
SWIDTH 960 0
DWIDTH 34 0
BBX 34 34 0 -2
BITMAP
0000000000
0000000000
00C00C0000
00E00E0000
00C00C0000
01C00C0000
01800C0000
01800C0000
03800C1C00
0307FFEE00
07000C0000
07000C0000
0F000C0000
0F000C0000
1B000C0000
1B000C0000
33000C0300
631FFFFF80
0300180000
0300180000
0300380000
0300300000
030070C000
0300606000
0300C03000
0300C01800
0301800C00
030181FE00
03033F4700
033FE80700
0300000300
0300000000
0000000000
0000000000
ENDCHAR

STARTCHAR cns2_227E
ENCODING 8830
SWIDTH 960 0
DWIDTH 34 0
BBX 34 34 0 -2
BITMAP
0000000000
0000000000
00C0180000
00E01C0000
00C0180000
01C0180000
0180180000
0180180000
0380180600
033FFFFF00
0700180000
0700380000
0F003C0000
0F007E0000
1B00FB0000
1B00DB8000
3301D98000
230398C000
030318E000
0306187000
030C183800
030C181C00
0318180E00
0330186700
0367FFF380
03C0180180
0300180000
0300180000
0300180000
0300180000
0300180000
0300100000
0000000000
0000000000
ENDCHAR

STARTCHAR cns2_2321
ENCODING 8993
SWIDTH 960 0
DWIDTH 34 0
BBX 34 34 0 -2
BITMAP
0000000000
0000000000
00C0000000
00E0000600
00CFFFFF00
01C0C00000
0180C00000
0180C00000
0380C00000
0300C00000
0700C06000
0701FFF000
0701806000
0F01806000
0F01806000
1B01B06000
3301986000
6301986000
03018C6000
03018C6000
03018E6000
030186C000
0303006000
030180C000
030300C100
030300C100
030303C300
03033CC300
0307E0C380
033E00E380
0300007F00
0300003C00
0000000000
0000000000
ENDCHAR

STARTCHAR cns2_2322
ENCODING 8994
SWIDTH 960 0
DWIDTH 34 0
BBX 34 34 0 -2
BITMAP
0000000000
0000000000
00E0000000
00E0000700
00C7FFFF80
01C0030000
0180070000
0180060000
03800E0000
03000E0000
07001E0000
07001E0000
0F00366000
0F00763000
1B00E61800
1B01C60E00
3303860700
6307060380
030C060180
0318060080
0300060000
0300060000
0300060000
0300060000
0300060000
0300060000
0300060000
0300040000
0300000000
0300000700
030FFFFF80
0300000000
0000000000
0000000000
ENDCHAR

STARTCHAR cns2_2323
ENCODING 8995
SWIDTH 960 0
DWIDTH 34 0
BBX 34 34 0 -2
BITMAP
0000000000
0000000000
00C01C0000
00E0180000
00C0180000
01C0180000
0180180C00
01801FFE00
0380180000
0300180000
0700180000
0700180000
0F00180300
0F3FFFFF80
1B00180000
1B00180000
3300180000
6300180000
03001C0000
03001B0000
0300198000
030019E000
0300187000
0300183800
0300181C00
0300180800
0300180000
0300180000
0300180000
0300180000
0300180000
0300180000
0000000000
0000000000
ENDCHAR

STARTCHAR cns2_2324
ENCODING 8996
SWIDTH 960 0
DWIDTH 34 0
BBX 34 34 0 -2
BITMAP
0000000000
0000000000
00E00E0000
00E00C0000
00C00C0000
01C00C0000
01800C0000
01860C1800
0387FFFC00
03060C1800
07060C1800
07060C1800
0F060C1800
0F060C1800
1B060C1800
1B060C1800
33060C1B00
633FFFFF80
03000C0000
03000E0000
03000E0000
03001B0000
0300198000
0300318000
030030C000
030060E000
0300E07000
0301C03800
0303801C00
0307000E00
031C000780
0330000000
0000000000
0000000000
ENDCHAR

STARTCHAR cns2_2325
ENCODING 8997
SWIDTH 960 0
DWIDTH 34 0
BBX 34 34 0 -2
BITMAP
0000000000
0000000000
00E01C0000
00E0380000
00C0300000
01C0601800
0180FFFC00
0180C01800
0381E03800
0303A07000
0707306000
070C30C000
0F1819C000
0F000F8000
1B00070000
1B000F0000
33001DC000
630038E000
0300E07800
0303801E00
030E3C0700
03300F0000
030003C000
030000E000
0300006000
0300F00000
03003C0000
03000F8000
030003E000
030000F000
0300007800
0300003000
0000000000
0000000000
ENDCHAR

STARTCHAR cns2_2326
ENCODING 8998
SWIDTH 960 0
DWIDTH 34 0
BBX 34 34 0 -2
BITMAP
0000000000
0000000000
00600C0000
0070140000
00601C0000
00E0180000
00C0380000
01C0300000
0180306000
0380603000
0300601800
0700C00C00
0601800700
0F0117FB00
0F3FFE8380
1B1C000180
3300000000
6300000000
0302000C00
0303FFFE00
0303000E00
0303000C00
0303000C00
0303000C00
0303000C00
0303000C00
0303000C00
0303000C00
0303000C00
0303FFFC00
0303000C00
0303000C00
0000000000
0000000000
ENDCHAR

STARTCHAR cns2_2327
ENCODING 8999
SWIDTH 960 0
DWIDTH 34 0
BBX 34 34 0 -2
BITMAP
0000000000
0000000000
0000E00000
0001C00000
0003E00000
0003B00000
0007180000
000E0C0000
001C060000
0038038000
007001E000
01C0007800
0380033E00
0E3FFF8F00
3000000000
0000000000
0000000000
0000001400
0FFFFFFE00
0000600000
0000600000
0038600000
0038630000
0070618000
00E060C000
00E060E000
01C0607000
0380603800
0300601C00
0600E01C00
081FC00000
0001800000
0000000000
0000000000
ENDCHAR

STARTCHAR cns2_2328
ENCODING 9000
SWIDTH 960 0
DWIDTH 34 0
BBX 34 34 0 -2
BITMAP
0000000000
00000C0000
00E00E0000
00E00C0000
00C00C0000
01C00C0000
01800C0300
018FFFFF80
03801C0000
0300180000
0700180000
0700300000
0E00300000
0F00600000
1F00607000
1B0EC0E000
3307C0E000
630381C000
0301C18000
0300E38000
0300670000
0300060000
03000C0000
03001C3000
0300181800
0300300C00
0300600E00
0300C00700
031FFFFB00
031FD00380
0300000180
0300000000
0000000000
0000000000
ENDCHAR

STARTCHAR cns2_2329
ENCODING 9001
SWIDTH 960 0
DWIDTH 34 0
BBX 34 34 0 -2
BITMAP
0000000000
0000000000
00E6183000
00E71C3800
00C6183000
01C6183000
0186183000
0186183000
0386183000
0306183000
0706183300
063FFFFF80
0E06183000
0F06183000
1F06183000
1B06183000
3306183000
6306183000
0306183000
0306183000
0306183000
03061FF000
0306183000
0306183000
0306000000
0306000000
0306000000
0306000600
0307FFFF00
0306000000
0306000000
0306000000
0000000000
0000000000
ENDCHAR

STARTCHAR cns2_232A
ENCODING 9002
SWIDTH 960 0
DWIDTH 34 0
BBX 34 34 0 -2
BITMAP
0000000000
0000000000
00E0000000
00E4000C00
00C7FFFE00
01C6000C00
0186000C00
0186000C00
0386000C00
0306000C00
0706000C00
0606000C00
0F06000C00
0F06000C00
1B06000C00
1B06000C00
3306000C00
6307FFFC00
0306000C00
0306000C00
0300000000
030070C000
0300606000
0300E03000
0301C01800
0301800C00
0303000E00
0306000700
030C000380
0318000380
0330000100
0340000000
0000000000
0000000000
ENDCHAR

STARTCHAR cns2_232B
ENCODING 9003
SWIDTH 960 0
DWIDTH 34 0
BBX 34 34 0 -2
BITMAP
0000000000
0000000000
00E01C0000
00E0380000
00C03C0000
01C0760000
0180660000
0180E30000
0381C18000
030180C000
070380E000
0603007000
0E06003C00
0F0C000E00
1F18000780
1B301C0200
3340180000
6300181800
031C181C00
0318181800
0318181800
0318181800
0318181800
0318181800
0318181800
0318181800
0318181800
0318181800
0318181800
031FFFF800
0318001800
0318001800
0000000000
0000000000
ENDCHAR

STARTCHAR cns2_232C
ENCODING 9004
SWIDTH 960 0
DWIDTH 34 0
BBX 34 34 0 -2
BITMAP
0000000000
0000000000
0000000000
1800001800
1FFFFFFC00
180C601800
180C601800
180C601800
181C601800
1818609800
1818609800
183060D800
183061D800
18603F9800
19C0001800
1B200C1800
183FFE1800
18300C1800
18300C1800
18300C1800
18300C1800
18300C1800
18300C1800
18300C1800
18300C1800
183FFC1800
18300C1800
1830001800
1800001800
18000FB800
180001F000
0000006000
0000000000
0000000000
ENDCHAR

STARTCHAR cns2_232D
ENCODING 9005
SWIDTH 960 0
DWIDTH 34 0
BBX 34 34 0 -2
BITMAP
0000000000
0000000000
0000700000
000061C000
1800607000
0C00603800
0E00601800
0600600000
0700600E00
010FFFFF00
0060600000
0060600000
00C0600000
00C0601800
00C0C01800
00C0C03000
0180C03000
0180E03000
0380F06000
0300D06000
0301986000
070188C000
06018CC000
3E0307C000
1E03038000
0E06038000
0E0E06C000
060C1C7000
0618383800
0630600E00
0661800380
0206000000
0000000000
0000000000
ENDCHAR

STARTCHAR cns2_232E
ENCODING 9006
SWIDTH 960 0
DWIDTH 34 0
BBX 34 34 0 -2
BITMAP
0000000000
0000000000
00E6000400
00C7000700
00C6000600
00C6000600
00C630E600
0FFFF8C600
00C630C600
00C630C600
00C630C600
00C630C600
0CC630C600
0FFFF0C600
0CC630C600
1CC600C600
18C600C600
18C600C600
18C618C600
3FFFFCC600
38C61CC600
31C618C600
018618C600
0186188600
0386380600
0306300600
0307F00600
0606600600
0606000600
0C0601FE00
1806001C00
1006000000
2000000000
0000000000
ENDCHAR

STARTCHAR cns2_232F
ENCODING 9007
SWIDTH 960 0
DWIDTH 34 0
BBX 34 34 0 -2
BITMAP
0000000000
0000000000
0400C00600
07FFE00700
0600E00600
0600C18600
0600C18600
0600C18600
0600C18600
0600C18600
0600C18600
0600C18600
07FFC18600
0600C18600
0600C18600
0600C18600
0600C18600
0600C18600
0600C18600
0600C18600
07FFC18600
0600C18600
0600C18600
0600C00600
0600C00600
0600C00600
0600C00600
0600C00600
0603F9CE00
07FF007C00
7F40001800
0000000000
0000000000
0000000000
ENDCHAR

STARTCHAR cns2_2330
ENCODING 9008
SWIDTH 960 0
DWIDTH 34 0
BBX 34 34 0 -2
BITMAP
0000000000
0000000000
0C00300700
0FFFF80600
0C00300600
0C0030C600
0C0030E600
0C0030C600
0C0030C600
0C0030C600
0FFFF0C600
0C1830C600
0C1800C600
0C1800C600
0C1800C600
0C1800C600
0C1830C600
0FFFF8C600
0C1800C600
0C1C00C600
0C0C00C600
0C0C00C600
0C0E00C600
0C06000600
0C07000600
0C03040600
0C03840600
0C71CC0600
0FC0EC0E00
1F007CFC00
7C003C3800
0000080000
0000000000
0000000000
ENDCHAR

STARTCHAR cns2_2331
ENCODING 9009
SWIDTH 960 0
DWIDTH 34 0
BBX 34 34 0 -2
BITMAP
0000000000
0000000000
000001C000
0001818000
3FFFC18000
00C1C18000
00C1818000
01C1818000
01C1818300
0181BFFF80
0381818380
0303018300
0703018300
0E03018300
0C07018300
187E018300
201C030300
0000018300
1801830300
1FFFC30300
1801830300
1801830300
1801830300
1801860300
1801860300
18018E0600
18018C0300
1801980600
1FFF980E00
1801B1FC00
1800203800
0000400000
0000000000
0000000000
ENDCHAR

STARTCHAR cns2_2332
ENCODING 9010
SWIDTH 960 0
DWIDTH 34 0
BBX 34 34 0 -2
BITMAP
0000000000
0000000000
006001C000
0070018000
0660018000
0660018000
0660018000
0C60018000
0C60018000
0C63018300
1FFFBFFF80
1860018380
1860018300
3060018300
3060018300
0060018300
0061830300
3FFFC18300
0060030300
0060030300
00F0030300
00D0030300
00D8030300
0198060300
018C060600
038C0C0300
03060C0600
0706180600
0603180600
0C03B1FC00
1800203800
2000400000
0000000000
0000000000
ENDCHAR

STARTCHAR cns2_2333
ENCODING 9011
SWIDTH 960 0
DWIDTH 34 0
BBX 34 34 0 -2
BITMAP
0000000000
00C0000000
00E0000000
00C0000000
0180000300
01FFFFFF80
0380000300
0300000300
0700000300
0600030300
0CFFFF8300
1C03000300
1803000300
2063000300
0073380300
00E31C0300
00C30E0300
01C3070300
0183060300
0303000600
000300C300
0FFFFFE600
0003000600
0003000600
0003000600
0003000C00
0003000600
0003000C00
0003000C00
0003001C00
000307F800
000200F000
0000000000
0000000000
ENDCHAR

STARTCHAR cns2_2334
ENCODING 9012
SWIDTH 960 0
DWIDTH 34 0
BBX 34 34 0 -2
BITMAP
0000000000
0000000000
0001C00000
0001800000
0001800000
0001800C00
0001FFFE00
0001800000
0001800000
0001800000
0801800C00
0FFFFFFE00
0C00000C00
0C00000C00
0C00000C00
0C00180C00
0FFFFC0C00
0C00180C00
0C00180C00
0C00180C00
0C00180C00
0C00180C00
0C00180C00
0FFFF80C00
0C00180C00
0C00000C00
0C00000C00
0C00000C00
0C00000C00
0FFFFFFC00
0C00000C00
0C00000C00
0000000000
0000000000
ENDCHAR

STARTCHAR cns2_2335
ENCODING 9013
SWIDTH 960 0
DWIDTH 34 0
BBX 34 34 0 -2
BITMAP
0000000000
0000000000
0000C40600
1FFFE7FF00
00C0C60700
00C0C60600
00C0C60600
00C0C60600
0180C60600
0180C60600
0301860600
0301860600
0601860600
0E73060600
1C1F060600
300E060600
0000060600
0000060600
0C00C60600
0FFFE60600
0C00C60600
0C00C60600
0C00C60600
0C00C60600
0C00C67E00
0C00C61C00
0C00C60000
0C00C60000
0FFFC60000
0C00C60000
0C00C60000
0000000000
0000000000
0000000000
ENDCHAR

STARTCHAR cns2_2336
ENCODING 9014
SWIDTH 960 0
DWIDTH 34 0
BBX 34 34 0 -2
BITMAP
0000000000
0000000000
0000000000
0600000E00
07FFFFFF00
0600000000
0600000000
060000F800
06102FC000
061FFC0000
061E8C0000
06180C0000
06180C0000
06180C0000
06180C0000
06180C0600
061FFFFF00
06180C0000
0618060000
0618060000
0618060000
0C18030000
0C18030000
0C18398100
0C19E1C100
081F00E300
19F8007300
1800003B00
1800001F80
300000C300
31FFFFE000
0000000000
0000000000
0000000000
ENDCHAR

STARTCHAR cns2_2337
ENCODING 9015
SWIDTH 960 0
DWIDTH 34 0
BBX 34 34 0 -2
BITMAP
0000000000
0000000000
0000000000
0600000E00
07FFFFFF00
0608000000
060E000000
061C000000
061C000000
0618000000
0630000E00
063FFFFF00
0630C00000
0670C00000
0660C00000
06C0C00000
0780C01C00
0600FFFE00
0600C00000
0600C00000
0600C00000
0C00C01C00
0C00FFFE00
0C00C00000
0C00C00000
0800C00000
1800C00000
1800C00000
1800C00000
1000C00000
3000C00000
0000000000
0000000000
0000000000
ENDCHAR

STARTCHAR cns2_2338
ENCODING 9016
SWIDTH 960 0
DWIDTH 34 0
BBX 34 34 0 -2
BITMAP
0000000000
0000180000
00001C0000
0000180000
0000180000
0000180000
0000300000
2060300000
3FF0300300
3067FFFF80
3060300000
3060300000
3060300000
3060618000
306061C000
3060618000
3060618000
3060C18000
3060C30000
3060C30000
3061830000
3061860000
3063060000
3FE3063000
30630C1800
30660C1800
30060C0C00
000C180600
000C180F00
001831F700
0011FF8300
0020800300
0000000000
0000000000
ENDCHAR

STARTCHAR cns2_2339
ENCODING 9017
SWIDTH 960 0
DWIDTH 34 0
BBX 34 34 0 -2
BITMAP
0000000000
0000180000
00001C0000
0000180000
0000180000
0000180000
30C0180000
3FE0181800
30C7FFFC00
30C0181800
30C0181800
30C0181800
30C0181800
30C0181800
30C0181800
30C0181800
30C0181B00
30CFFFFF80
30C01C0000
30C01E0000
30C01A0000
30C0330000
3FC0338000
30C0618000
30C060C000
3080E0E000
3000C07000
0001803800
0003001C00
0006000F00
001C000780
0070000000
0000000000
0000000000
ENDCHAR

STARTCHAR cns2_233A
ENCODING 9018
SWIDTH 960 0
DWIDTH 34 0
BBX 34 34 0 -2
BITMAP
0000000000
0000000000
0000CC0000
0000CE0000
0001CC0000
00018C0000
00018C0000
31838C0000
3FC30C0000
31830C0000
31870C0C00
31860C3C00
318E0C7800
318F0CE000
319B0D8000
319B0E0000
31B30C0000
31B30C0000
31830C0000
31830C0000
31830C0000
31830C0000
3F830C0000
31830C0000
31830C0100
30030C0100
30030C0300
00030C0300
00030C0300
00030FFE00
000307FC00
0003000000
0000000000
0000000000
ENDCHAR

STARTCHAR cns2_233B
ENCODING 9019
SWIDTH 960 0
DWIDTH 34 0
BBX 34 34 0 -2
BITMAP
0000000000
0000000000
0000180000
00001C0000
0000180000
0000180000
3060180000
3FF0180000
3060180000
3060180000
3060180600
306FFFFF00
3060180000
3060180000
30601C0000
30603C0000
3060360000
3060360000
3060330000
3060630000
3060630000
3060618000
3FE0C1C000
3060C0C000
306198E000
00039C7000
00070C3800
00060E3C00
000C071E00
0018060F00
0030000000
0040000000
0000000000
0000000000
ENDCHAR

STARTCHAR cns2_233C
ENCODING 9020
SWIDTH 960 0
DWIDTH 34 0
BBX 34 34 0 -2
BITMAP
0000000000
0000000000
00001C0000
0000180000
0000180000
30C0180000
3FE0180000
30C0180600
30DFFFFF00
30C3006000
30C3006000
30C1806000
30C180C000
30C180C000
30C180C000
30C0C18000
30C0C18000
30C0E30000
30C0630000
30C0720000
30C0360000
3FC03C0000
30C01C0000
30C03C0000
0000760000
0000E30000
0001C18000
000380E000
0006007800
001C001E00
0070000700
0180000000
0000000000
0000000000
ENDCHAR

STARTCHAR cns2_233D
ENCODING 9021
SWIDTH 960 0
DWIDTH 34 0
BBX 34 34 0 -2
BITMAP
0000000000
0000000000
00000C0000
00000E0000
00000C0000
30C00C0000
3FE00C0000
30C00C0000
30C00C0000
30C18C0600
30C18C0E00
30C18C1C00
30C30C3800
30C30C7000
30C70CC000
30C71EC000
30CE1E0000
30DC1A0000
30C01B0000
30C01B0000
3FC0330000
30C0318000
30C0318000
000060C000
000060E000
0000C06000
0001C07000
0003803800
0007001C00
000E000F00
0018000780
0030000000
0000000000
0000000000
ENDCHAR

STARTCHAR cns2_233E
ENCODING 9022
SWIDTH 960 0
DWIDTH 34 0
BBX 34 34 0 -2
BITMAP
0000000000
0000000000
0000000000
0000006000
0007FFF000
0000607000
30C0606000
3FE0606000
30C0606000
30C0606000
30C0606000
30C0606000
30C0606000
30C0606000
30C0606000
30C0606300
30DFFFFF80
30C0C0C000
30C0C0C000
30C0C0C000
30C0C0C000
30C0C0C000
3FC0C0C000
30C0C0C000
30C0C0C000
000180C000
000180C000
000180C000
000180C000
000180C000
000180C600
003FFFFF00
0000000000
0000000000
ENDCHAR

STARTCHAR cns2_233F
ENCODING 9023
SWIDTH 960 0
DWIDTH 34 0
BBX 34 34 0 -2
BITMAP
0000000000
0000000000
0000000000
0000000700
0007FFFF80
0000060000
3060060000
3FF0060000
30600C0000
30600C0000
30601C0000
30601C0000
30603C0000
30606C6000
30606C3800
3060CC1800
3061CC0E00
30638C0700
30630C0700
30660C0380
306C0C0180
3FF00C0000
30600C0000
30600C0000
00000C0000
00000C0000
00000C0000
00000C0000
00000C0000
00000C0000
00000C0000
0000000000
0000000000
0000000000
ENDCHAR

STARTCHAR cns2_2340
ENCODING 9024
SWIDTH 960 0
DWIDTH 34 0
BBX 34 34 0 -2
BITMAP
0000000000
0000000000
0000700000
0000700000
0000E00000
3060C00000
3FF1C00C00
3061FFFE00
3063860000
3063060000
3066060000
3066060000
306C060000
3078060000
3060060000
3060060000
3060060000
3060060300
306FFFFF80
3060060000
3FE0060000
3060060000
3060060000
3000060000
2000060000
0000060000
0000060000
0000060000
0000060000
0000060000
0000060000
0000060000
0000000000
0000000000
ENDCHAR

STARTCHAR cns2_2341
ENCODING 9025
SWIDTH 960 0
DWIDTH 34 0
BBX 34 34 0 -2
BITMAP
0000000000
0000000000
0000070000
0000060000
0001860000
30C1C60000
3FE1860000
30C1860000
30C3060000
30C3060C00
30C3FFFE00
30C7060000
30C6060000
30C6060000
30CC060000
30C8060000
30C0060000
30C0060000
30C0060300
30CFFFFF80
3FC0060000
30C0060000
30C0060000
0000060000
0000060000
0000060000
0000060000
0000060000
0000060000
0000060000
0000060000
0000060000
0000000000
0000000000
ENDCHAR

STARTCHAR cns2_2342
ENCODING 9026
SWIDTH 960 0
DWIDTH 34 0
BBX 34 34 0 -2
BITMAP
0000000000
0000000000
00000CE000
00001EC000
000038C000
30C070C000
3FE1E0C000
30C760C000
30CC60C000
30C060C000
30C060C000
30C060C000
30C060C000
30C060C000
30C060C300
30CFFFFF80
30C060C000
30C060C000
30C060C000
30C060C000
3FC060C000
30C060C000
30C0C0C000
0000C0C000
000180C000
000180C000
000300C000
000300C000
000600C000
000C00C000
001800C000
003000C000
0000000000
0000000000
ENDCHAR

STARTCHAR cns2_2343
ENCODING 9027
SWIDTH 960 0
DWIDTH 34 0
BBX 34 34 0 -2
BITMAP
0000000000
0000000000
0000300000
0000300000
0000700000
3060600000
3FF0E00000
3060C00600
3061FFFF00
3061800700
3063800600
3063000600
3066000600
3066018600
306CFFC600
3060000600
3060000600
3060000600
3060000600
3060000600
3060000600
306000C600
3061FFE600
3FE0000600
3060000C00
0000000600
0000000C00
0000000C00
0000001C00
00000FF800
000001F000
0000000000
0000000000
0000000000
ENDCHAR

STARTCHAR cns2_2344
ENCODING 9028
SWIDTH 960 0
DWIDTH 34 0
BBX 34 34 0 -2
BITMAP
0000000000
0000000000
00000C0000
00000E0000
00000C0000
00000C1800
00000C7800
00000DE000
30C00F0000
3FE1FC0000
30CE0C0000
30C00C0000
30C60C1800
30C70C1800
30C60C1800
30C60C1800
30C60C1800
30C60C1800
30C60C1800
30C60C1800
30C60C1800
30C7FFF800
3FC60C1800
30C60C1800
30C00C0000
00000C0100
00000C0100
00000C0100
00000C0180
00000E0380
000007FF00
000001FC00
0000000000
0000000000
ENDCHAR

STARTCHAR cns2_2345
ENCODING 9029
SWIDTH 960 0
DWIDTH 34 0
BBX 34 34 0 -2
BITMAP
0000000000
0000000000
00000E0000
00000C0000
00001E0000
30C01B0000
3FE03B0000
30C0318000
30C060C000
30C0E0E000
30C0C07000
30C1803800
30C3001C00
30C6000F00
30CC70E780
30D870C000
30C060C000
30C060C000
30C060C000
30C060C000
3FC060C000
30C060C000
30C0C0C000
0000C0C000
0000C0C000
000180C000
000180C000
000300C000
000300C000
000600C000
000C00C000
001000C000
0000000000
0000000000
ENDCHAR

STARTCHAR cns2_2346
ENCODING 9030
SWIDTH 960 0
DWIDTH 34 0
BBX 34 34 0 -2
BITMAP
0000000000
0000000000
0000E00000
0000C00000
0000C00000
0000E01800
001CE07800
1FFEF0E000
001CDB8000
0038CC0000
0038C70000
0070C38000
00E0C1C000
01C0C0E000
0380C07C00
0700C01F00
1C31C00000
301F800000
0003000000
0000000000
0300003000
03FFFFF800
0300003000
0300003000
0300003000
0300003000
0300003000
0300003000
0300003000
0300003000
03FFFFF000
0300003000
0200002000
0000000000
ENDCHAR

STARTCHAR cns2_2347
ENCODING 9031
SWIDTH 960 0
DWIDTH 34 0
BBX 34 34 0 -2
BITMAP
0000000000
0000000000
0000000000
1800000C00
1FFFFFFE00
1800000C00
181C600C00
181C700C00
1818600C00
1838600C00
1838618C00
187063CC00
1860670C00
18E06E0C00
18E07C0C00
19E0780C00
1BE0600C00
1B61E00C00
1C67600C00
1868600C00
1860600C00
1860604C00
1860606C00
1860606C00
186060EC00
18607FCC00
18603F8C00
1840000C00
1800000C00
1FFFFFFC00
1800000C00
1800000800
0000000000
0000000000
ENDCHAR

STARTCHAR cns2_2348
ENCODING 9032
SWIDTH 960 0
DWIDTH 34 0
BBX 34 34 0 -2
BITMAP
0000000000
0000000000
1000000600
1FFFFFFF00
180C300600
180C300600
180C300600
180C300600
180C302600
180C302600
180C302600
1818306600
181830F600
18301FE600
1860000600
19C0000600
1800000600
1800000600
1810060600
181FFF0600
1818060600
1818060600
1818060600
1818060600
1818060600
1818060600
1818060600
1818060600
1818060600
1FFFFFFE00
1800000600
1800000600
0000000000
0000000000
ENDCHAR

STARTCHAR cns2_2349
ENCODING 9033
SWIDTH 960 0
DWIDTH 34 0
BBX 34 34 0 -2
BITMAP
0000000000
0000000000
0000000000
1800000C00
1FFFFFFE00
1800000C00
1801800C00
1801C00C00
180180CC00
1BFFFFEC00
1800000C00
1800000C00
1800000C00
1810300C00
181FF80C00
1818300C00
1818300C00
1818300C00
1818300C00
1818300C00
1818300C00
1830304C00
1830304C00
1860306C00
186030EC00
18C01FCC00
1980000C00
1800000C00
1800000C00
1FFFFFFC00
1800000C00
1800000800
0000000000
0000000000
ENDCHAR

STARTCHAR cns2_234A
ENCODING 9034
SWIDTH 960 0
DWIDTH 34 0
BBX 34 34 0 -2
BITMAP
0000000000
0000000000
0000001C00
038000F800
03010FC000
0301FD8000
0301818000
0301818000
0301818000
0301818000
0301818000
0331818000
3FF9818000
0301818300
0301FFFF80
0301818000
0301818000
0301818000
030180C000
030180C000
030180C000
030180C000
030180C000
0331806000
03E1806080
07C1863080
3F019C3180
3C01F01980
0001C01D80
0007800F80
000E000700
0000000000
0000000000
0000000000
ENDCHAR

STARTCHAR cns2_234B
ENCODING 9035
SWIDTH 960 0
DWIDTH 34 0
BBX 34 34 0 -2
BITMAP
0000000000
0000000000
00000E0000
03801C0000
03001E0000
03003B0000
0300330000
0300618000
030060C000
0300C0E000
0300C07000
0331803800
3FFB00DC00
0306FFEF00
030C000780
0318000000
0320000000
0300000000
0300001800
0307FFFC00
0300001800
0300001800
0300003000
0330003000
03E0006000
03C0006000
0F00006000
7C0000C000
000000C000
000000C000
0000018000
0000018000
0000000000
0000000000
ENDCHAR

STARTCHAR cns2_234C
ENCODING 9036
SWIDTH 960 0
DWIDTH 34 0
BBX 34 34 0 -2
BITMAP
0000000000
0000000000
0000000000
0000070000
0000FF8000
0070030000
0070030000
00E0030000
01C0018000
038000C000
030003F000
077FFFFC00
0C06019F00
1806018700
700C018000
001C018000
0018030000
0038030000
0073CE0000
01C07C0000
0700380000
0C00800000
0000E00000
0000C00000
0000C06000
01FFFFF000
0000C00000
0000C00000
0000C00000
0000C00000
0000C00700
1FFFFFFB80
0000000000
0000000000
ENDCHAR

STARTCHAR cns2_234D
ENCODING 9037
SWIDTH 960 0
DWIDTH 34 0
BBX 34 34 0 -2
BITMAP
0000000000
0000000000
0000080000
00000E0000
03800C0000
03000C1800
03000C7800
03000DE000
03005F0000
0301FC0000
030F0C0000
03600C0000
3FF60C1800
03060C1800
03060C1800
03060C1800
03060C1800
03060C1800
03060C1800
03060C1800
03060C1800
0307FFF800
03360C1800
03E60C1800
03800C0000
0E000C0100
3C000C0100
00000C0180
00000C0380
00000E0380
000007FF00
000001F800
0000000000
0000000000
ENDCHAR

STARTCHAR cns2_234E
ENCODING 9038
SWIDTH 960 0
DWIDTH 34 0
BBX 34 34 0 -2
BITMAP
0000000000
0000000000
0300018000
038003C000
030000C000
0300E0C000
0300C0C000
0301C0E000
0301806000
0301807000
0333003000
3FFB003800
0306001C00
0306000E00
030C003780
030BFFF800
0310303800
0300303000
0300303000
0300303000
0300603000
0318603000
0370603000
03C0C03000
0380C03000
1E01803000
3803806000
0007006000
000E00C000
001CFDC000
00300F8000
0060030000
0000000000
0000000000
ENDCHAR

STARTCHAR cns2_234F
ENCODING 9039
SWIDTH 960 0
DWIDTH 34 0
BBX 34 34 0 -2
BITMAP
0000000000
0000000000
0180300000
0180380000
0180300000
0180300000
0180303800
018630F000
01FF37C000
01803E0000
0180300000
0180300000
0180300200
0180300600
0180300600
0187B00600
01BE380E00
07F01FFC00
3F0007E000
0000C00000
0000C00000
0000C00000
0000C00000
0000C03000
03FFFFF800
0000C00000
0000C00000
0000C00000
0000C00000
0000C00000
0000C00300
3FFFFFFF80
0000000000
0000000000
ENDCHAR

STARTCHAR cns2_2350
ENCODING 9040
SWIDTH 960 0
DWIDTH 34 0
BBX 34 34 0 -2
BITMAP
0000000000
0000000000
000C000000
001C000000
003800C000
007FFFE000
00F001C000
01D8038000
038C070000
07060E0000
1C03B80000
2000F00000
0001DC0000
000F078000
0078C1FC00
03C0C03F00
3C00C00000
0000C01800
0FFFFFFC00
0000C00000
0000C00000
0000C06000
03FFFFF000
0000C00000
0000C00000
0000C00600
1FFFFFFF00
0000C00000
0000C00000
0000C00000
0000C00000
0000C00000
0000800000
0000000000
ENDCHAR

STARTCHAR cns2_2351
ENCODING 9041
SWIDTH 960 0
DWIDTH 34 0
BBX 34 34 0 -2
BITMAP
0000000000
0000000000
0000000000
0000000C00
0FFFFFFE00
0000E00000
0000C00000
0001C00000
0003CC0000
0007470000
001CC3C000
0038C0F000
00E0C07800
0380C01C00
0E00C00C00
1000800000
0000000000
0000C00000
0000E00000
0000C00000
0000C00600
1FFFFFFF00
0000C00000
0001E00000
0003380000
00061C0000
000C0E0000
0018070000
007003C000
01C000F800
0700003F00
3C00000E00
0000000000
0000000000
ENDCHAR

STARTCHAR cns2_2352
ENCODING 9042
SWIDTH 960 0
DWIDTH 34 0
BBX 34 34 0 -2
BITMAP
0000000000
0000000000
0180070000
01C0060000
0180060000
0180060800
0300063C00
030006F000
03180F8000
3FFDFE0000
0618060000
0618060000
0C18060000
0C18060C00
0C1BFFFE00
0C30060000
1830060000
1830060000
1830060000
1830060000
3C60060300
3767FFFF80
31E0060000
00E0060000
01F0060000
01B8060000
0318060000
060C060000
0E00060000
1C00060000
3000060000
0000060000
0000000000
0000000000
ENDCHAR

STARTCHAR cns2_2353
ENCODING 9043
SWIDTH 960 0
DWIDTH 34 0
BBX 34 34 0 -2
BITMAP
0000000000
0000000000
0180000000
01C0000000
0180000C00
0180FFFE00
0180000000
0300000000
0318000000
3FFE000000
0618000000
0618000000
0618000000
0C18000300
0C19FFFF80
0C18070000
0C30070000
1830060000
18300E0000
18300C0000
1C600C0000
3F601C3000
31E0183800
00E0181800
01F0300C00
01B8300600
031C300700
060C61FB00
0E05FFC380
1C03C00380
3000000180
2000000000
0000000000
0000000000
ENDCHAR

STARTCHAR cns2_2354
ENCODING 9044
SWIDTH 960 0
DWIDTH 34 0
BBX 34 34 0 -2
BITMAP
0000000000
0000000000
0180060000
01C0060000
0180060000
0180060000
0180030000
0300030000
0319830300
3FFFFFFF80
0619818380
0619818300
0619818300
0619838300
0C3183C300
0C3186C300
0C3186E300
0C318C6300
18318C7300
1861983300
1861983B00
3F61B01300
31E1A00300
00E1800300
01F1800300
01B9800300
0319800300
0609800300
0E01800300
0C0181E700
1801807E00
2001800C00
0000000000
0000000000
ENDCHAR

STARTCHAR cns2_2355
ENCODING 9045
SWIDTH 960 0
DWIDTH 34 0
BBX 34 34 0 -2
BITMAP
0000000000
0000000000
0180060000
0180070000
01800F0000
03000D8000
03001D8000
030018C000
0618386000
3FFC306000
0618603000
0618C01C00
0618800E00
0C19806700
0C1B3FF380
0C36000000
0C30000000
1830000000
1830001800
1861FFFC00
3C60001C00
3EE0001800
33C0001800
01E0003000
01F0003000
03B0006000
0338006000
060800C000
0C0000C000
1800018000
3000018000
0000030000
0000000000
0000000000
ENDCHAR

STARTCHAR cns2_2356
ENCODING 9046
SWIDTH 960 0
DWIDTH 34 0
BBX 34 34 0 -2
BITMAP
0000000000
0000000000
0180060000
0180070000
0180060000
03000F0000
03000D8000
030018C000
031838C000
3FFE306000
0618607000
0618C03800
0619801C00
0C1B000E00
0C1A604780
0C38706300
0C30606000
1830606000
1830606000
1860606000
1C60606000
3EC0606000
33C0606000
00E0C06000
01F0C06000
03B0C06000
0339806000
0609806000
0E03006000
1C03006000
3006006000
200C006000
0000000000
0000000000
ENDCHAR

STARTCHAR cns2_2357
ENCODING 9047
SWIDTH 960 0
DWIDTH 34 0
BBX 34 34 0 -2
BITMAP
0000000000
0000000000
018000C000
018007E000
0180006000
0300706000
0300606000
0300E06000
0318C03000
3FFDC03000
0619801800
0619801800
061B000C00
0C33000600
0C36003380
0C34FFF900
0C30183000
1830183000
1860183000
1860183000
1C60183000
3EC0303000
33C0303000
00E0303000
01F0603000
03B0603000
0318C03000
0609C03000
0C03806000
180700E000
300C1FC000
2018038000
0000000000
0000000000
ENDCHAR

STARTCHAR cns2_2358
ENCODING 9048
SWIDTH 960 0
DWIDTH 34 0
BBX 34 34 0 -2
BITMAP
0000000000
0000000000
0180000000
018000C000
018007E000
0180006000
0300606000
0300706000
0318606000
3FFC606000
0618E03000
0618C03800
0C18C01800
0C19801C00
0C318C0E00
0C330E0F00
18320E0380
18340C0000
18300C0000
1860180000
3C60180000
3F60180000
31C0306000
00E0303000
01F0303800
01B8601800
031C601C00
060045EE00
0C07FF0600
1807A00700
3000000100
0000000000
0000000000
0000000000
ENDCHAR

STARTCHAR cns2_2359
ENCODING 9049
SWIDTH 960 0
DWIDTH 34 0
BBX 34 34 0 -2
BITMAP
0000000000
0000000000
01C0070000
01C0060000
0180060000
0180060000
0300060000
0300060300
031BFFFF80
3FFCC03000
0618C03000
0618C03000
0618603000
0618606000
0C18606000
0C30306000
0C3030C000
183030C000
183018C000
1860198000
3C600D8000
3F600F0000
31C0060000
00E0070000
01F00F8000
01B81DC000
031C38E000
0600607000
0C00C03C00
0803801F00
300E000780
0038000000
0000000000
0000000000
ENDCHAR

STARTCHAR cns2_235A
ENCODING 9050
SWIDTH 960 0
DWIDTH 34 0
BBX 34 34 0 -2
BITMAP
0000000000
0000000000
0180000000
01C0000C00
0180FFFE00
0180000000
0300000000
0300000000
0318000000
3FFC000000
0618000000
0618000000
0E18000000
0C18000300
0C1BFFFF80
0C1830C000
1C3030C000
183030C000
183030C000
183030C000
3C6030C000
3F6030C000
31E030C000
00E060C000
01F060C000
01B860C000
031CC0C100
0601C0C100
060180C300
0C0300E380
1806007F80
200C001F00
0000000000
0000000000
ENDCHAR

STARTCHAR cns2_235B
ENCODING 9051
SWIDTH 960 0
DWIDTH 34 0
BBX 34 34 0 -2
BITMAP
0000000000
0000000000
0180000C00
01C000B800
01804BE000
01807C0000
0300600000
0300600000
030C600000
3FFE600000
060C600000
060C600000
060C600300
060C7FFF80
0C18606000
0C18606000
0C18606000
0C18606000
1830606000
1830606000
1C30606000
3F60E06000
33C0E06000
00E0C06000
00F0C06000
01B9C06000
039D806000
0301806000
0603006000
0C03006000
1806006000
2004006000
0000000000
0000000000
ENDCHAR

STARTCHAR cns2_235C
ENCODING 9052
SWIDTH 960 0
DWIDTH 34 0
BBX 34 34 0 -2
BITMAP
0000000000
0000C00000
0000E00000
0000C00000
0000C00000
0400C00000
0400C00300
07FFFFFF80
0C00000700
0C00000C00
1C0000D800
1800179000
0002FE0000
00BFC00000
0FE0C00000
0000C00000
0000C00000
0000C00000
0000C01800
0FFFFFFC00
0000C00000
0001E00000
0003B00000
0003380000
0006180000
000E0E0000
001C070000
0038038000
007001E000
01C0007800
0700003F00
3C00000600
0000000000
0000000000
ENDCHAR

STARTCHAR cns2_235D
ENCODING 9053
SWIDTH 960 0
DWIDTH 34 0
BBX 34 34 0 -2
BITMAP
0000000000
0000000000
0000C00000
0000E00000
0000C00000
0400C00000
0C00C00600
0FFFFFFF00
0C00000E00
1C00001C00
1800001800
38001F1000
0000FC0000
001FC00000
1FFE000000
0006000000
000600E000
00060FF000
005FFA0000
1FF6000000
0006000000
0006001C00
000601FE00
001FFF4000
3FFF800000
0006000000
0006000200
0006000200
0006000700
0006000700
0007000E00
0003FFFC00
0000000000
0000000000
ENDCHAR

STARTCHAR cns2_235E
ENCODING 9054
SWIDTH 960 0
DWIDTH 34 0
BBX 34 34 0 -2
BITMAP
0000000000
0000000000
0180000000
018C003000
0186007800
0183007000
018100E000
018001C000
0181838000
7FFFCF0400
01801C0E00
0180701C00
01B9C03800
01B0007000
01B000E000
01B0038000
0330070300
01B00C0700
0330300E00
0330C01C00
0330003800
0330007000
063000E000
063001C000
0630070080
0C301C0080
0C30F00180
1830000380
1818000700
300FFFFE00
2007FFF800
0000000000
0000000000
0000000000
ENDCHAR

STARTCHAR cns2_235F
ENCODING 9055
SWIDTH 960 0
DWIDTH 34 0
BBX 34 34 0 -2
BITMAP
0000000000
0000000000
0180000000
01C0000000
0180000000
0180000600
01807FFF00
0180030000
0181830000
7FFFC30000
0180030000
0180030000
0180030000
0180030C00
01B07FFE00
01B8030000
01B0030000
0330030000
0330030000
0330030000
0330030000
0330030000
0630030600
0631FFFF00
0630000000
0C30000200
0C30000200
1830000300
1818000700
301E001E00
6007FFF800
4000000000
0000000000
0000000000
ENDCHAR

STARTCHAR cns2_2360
ENCODING 9056
SWIDTH 960 0
DWIDTH 34 0
BBX 34 34 0 -2
BITMAP
0000000000
0000000000
0200000600
0383FFFF00
0300306000
0300306000
0300306000
3320306000
3B38306000
3330306000
3330306000
3330306000
3330306000
3330306000
3330306300
3333FFFF80
3330306000
3330306000
3330306000
3330606000
3330606000
3330606000
3330C06000
3330C06000
3330C06000
3FF1806000
3031806000
3033006000
3003006000
0006006000
0006006000
000C004000
0000000000
0000000000
ENDCHAR

STARTCHAR cns2_2361
ENCODING 9057
SWIDTH 960 0
DWIDTH 34 0
BBX 34 34 0 -2
BITMAP
0000000000
0000000000
0300000000
0380001800
0300FFFC00
0300000000
0300000000
3330000000
3B38000000
3330000000
3330000000
3330000000
3330000600
3337FFFF00
3330618000
3330618000
3330618000
3330618000
3330618000
3330618000
3330618000
3330618000
3330618000
3330C18000
3FF0C18000
3030C18100
3031818100
3021818100
0003018300
000601C380
000C00FF00
0010003C00
0000000000
0000000000
ENDCHAR

STARTCHAR cns2_2362
ENCODING 9058
SWIDTH 960 0
DWIDTH 34 0
BBX 34 34 0 -2
BITMAP
0000000000
0000000000
0300000000
0380000600
0301FFFF00
030000C000
0300C0C000
3330E0C000
3B38C0C000
3330C0C000
3330C0C000
3330C0C000
3330C0C000
333180C000
333180C300
3331FFFF80
333180C000
333181C000
333103C000
333007C000
333006C000
33300CC000
333018C000
333030C000
3FF060C000
3030C0C000
303180C000
302300C000
000600C000
000800C000
00003FC000
0000038000
0000000000
0000000000
ENDCHAR

STARTCHAR cns2_2363
ENCODING 9059
SWIDTH 960 0
DWIDTH 34 0
BBX 34 34 0 -2
BITMAP
0000000000
0000000000
0000001000
0387FFF800
0300603800
0300603000
0300603000
3320606000
3B38606000
3330606000
333060C000
333060C000
333060C600
33307FFF00
3330D00600
3330D00600
3330D00C00
3330D80C00
3330D81800
3330CC1800
33318C3000
3331863000
3331866000
3333036000
3FF301C000
303601C000
303603E000
300C0E7000
000C1C3C00
0018301F00
0010C00780
0003000000
0000000000
0000000000
ENDCHAR

STARTCHAR cns2_2364
ENCODING 9060
SWIDTH 960 0
DWIDTH 34 0
BBX 34 34 0 -2
BITMAP
0000000000
0000000000
0100180000
01C01C0000
0180180000
0180180000
0180300000
318C300300
398E7FFF80
318C633300
318C633300
318C633300
318CC63300
318CC63300
318D866300
318C0C6300
318C0C6300
318C184300
318C18C300
318C30C300
318C718300
318C618300
318CC30600
318C830300
318D060600
3FFC0E0600
300C0C0600
300C180600
3000300600
0000220C00
000041FC00
0000003800
0000000000
0000000000
ENDCHAR

STARTCHAR cns2_2365
ENCODING 9061
SWIDTH 960 0
DWIDTH 34 0
BBX 34 34 0 -2
BITMAP
0000000000
0000000000
0100030000
01C0060000
0180070000
01800F8000
01800CC000
018C1CC000
398E186000
318C307000
318C303800
318C601C00
318C600E00
318CC03780
318D9FFB00
318F000000
318C000000
318C000000
318C000C00
318DFFFE00
318C000C00
318C000C00
318C001800
318C001800
318C001800
3FFC003000
300C003000
300C003000
3000006000
0000006000
0000006000
0000004000
0000000000
0000000000
ENDCHAR

STARTCHAR cns2_2366
ENCODING 9062
SWIDTH 960 0
DWIDTH 34 0
BBX 34 34 0 -2
BITMAP
0000000000
0000000000
1800003000
1FFFFFF800
1803003000
1803003000
1803003000
1803003000
1803003000
1FFFFFF000
1800003000
1800000100
1800000300
1800000380
1C00000780
0FFFFFFE00
03FFFFF800
0000000000
0001C00000
0001800000
1C01800E00
1801800C00
1801800C00
1801800C00
1801800C00
1801800C00
1801800C00
1801800C00
1801800C00
1FFFFFFC00
1800000C00
1800000C00
0000000000
0000000000
ENDCHAR

STARTCHAR cns2_2367
ENCODING 9063
SWIDTH 960 0
DWIDTH 34 0
BBX 34 34 0 -2
BITMAP
0000000000
0000000000
0180000C00
01C0003C00
018000F000
0180078000
0181FB0000
018C030000
398C030000
318C030000
318C030000
318C030000
318C030000
318C030300
318DFFFF80
318C030000
318C078000
318C068000
318C068000
318C06C000
318C0CC000
318C0CC000
318C0C6000
318C187000
318C183000
3FFC303800
300C701800
300CE01C00
2001C00E00
0003000700
0006000380
001C000000
0000000000
0000000000
ENDCHAR

STARTCHAR cns2_2368
ENCODING 9064
SWIDTH 960 0
DWIDTH 34 0
BBX 34 34 0 -2
BITMAP
0000000000
0000000000
0180000E00
01C000FC00
018067E000
01807E0000
0180600000
018C600000
398C600000
318C600000
318C600000
318C600000
318C600300
318C7FFF80
318C603000
318C603000
318C603000
318C603000
318C603000
318C603000
318C603000
318C603000
318C603000
318CC03000
3FFCC03000
300CC03000
300D803000
2001803000
0003003000
0003003000
0006003000
0004002000
0000000000
0000000000
ENDCHAR

STARTCHAR cns2_2369
ENCODING 9065
SWIDTH 960 0
DWIDTH 34 0
BBX 34 34 0 -2
BITMAP
0000000000
0000000000
0000E00000
0380C03800
0300C03000
0300C03000
0300C03000
0300C03000
0300C03000
03FFFFF000
0300003000
0300003000
0000E00000
0003E00000
0007380000
000E1E0000
0038078000
00F001F000
03C0003F80
0E18070700
781C060000
0018060000
0018060000
0018060000
0018060000
0018060000
0030060000
0030060000
0060060000
00E0060000
01C0060000
0300060000
0400000000
0000000000
ENDCHAR

STARTCHAR cns2_236A
ENCODING 9066
SWIDTH 960 0
DWIDTH 34 0
BBX 34 34 0 -2
BITMAP
0000000000
0000000000
0000000000
0000000C00
0FFFFFFE00
0000000000
0000000000
0060703000
00E0603000
00C0C06000
018180C000
0303018000
0606030000
0C0C0E0000
0606038000
030381C000
0181C0F000
00C0E03800
00E0701800
0060300000
0000000000
0000001800
0FFFFFFC00
0000C00000
0000C00000
0000C00000
0000C00000
0000C00000
0000C00000
0000C00000
0000C00600
3FFFFFFF00
0000000000
0000000000
ENDCHAR

STARTCHAR cns2_236B
ENCODING 9067
SWIDTH 960 0
DWIDTH 34 0
BBX 34 34 0 -2
BITMAP
0000000000
0000000000
01C0000000
0180000000
0180400600
01807FFF00
0180618600
0180618600
218C618600
3FFE618600
318C618600
318C618600
318C618600
318C618600
318C618600
318C618600
318C7FFE00
318C600600
318C600000
318C600000
318C600000
318C600000
318C600000
31BC600000
3198600100
0180600100
0180600100
0180600180
0180700380
01803FFF80
01800FFF00
0180000000
0000000000
0000000000
ENDCHAR

STARTCHAR cns2_236C
ENCODING 9068
SWIDTH 960 0
DWIDTH 34 0
BBX 34 34 0 -2
BITMAP
0000000000
0000000000
0380070000
0300060000
0300060000
0300060000
0300060000
0300C60300
3318FFFF80
3FFDC60700
3319C60E00
3319860C00
331B860800
331B861800
331B05C000
33180D8000
33180D8000
33180D8000
33180D8000
3318198000
3318198000
3318198000
3318318000
33F8318000
3370618100
0300618100
0300C18300
0301818300
0303018300
0306018780
030C00FF00
0310000000
0000000000
0000000000
ENDCHAR

STARTCHAR cns2_236D
ENCODING 9069
SWIDTH 960 0
DWIDTH 34 0
BBX 34 34 0 -2
BITMAP
0000000000
0000000000
0000700000
0000600000
0000600000
0C00600600
0FFFFFFF00
0C00000000
0C00300000
0C00380000
0C00300000
0C00300000
0C00300C00
0C7FFFFE00
0C00300000
0C00300000
0C00300000
0C00306000
0C3FFFF000
0C04007000
0C0600E000
0C0300C000
0C01018000
1801818000
0C00C30000
1800660000
18003C0000
1800360000
3000E38000
300380F000
201C003F80
03F0000200
0400000000
0000000000
ENDCHAR

STARTCHAR cns2_236E
ENCODING 9070
SWIDTH 960 0
DWIDTH 34 0
BBX 34 34 0 -2
BITMAP
0000000000
0000000000
0000700000
0000600000
0000600000
0600600600
07FFFFFF00
0600000000
0600700000
0600600000
0600600000
0600600C00
06FFFFFE00
0600600000
0600600000
0670603800
0660603000
0660603000
0660603000
0660603000
0660603000
0660603000
0660603000
0C7FFFF000
0C60603400
0C60600400
0C60600C00
1800600C00
1800600C00
1800301C00
30003FF800
2000000000
0000000000
0000000000
ENDCHAR

STARTCHAR cns2_236F
ENCODING 9071
SWIDTH 960 0
DWIDTH 34 0
BBX 34 34 0 -2
BITMAP
0000000000
0000000000
0000700000
0000600000
0000600000
0C00600600
0FFFFFFF00
0C00000000
0C00000000
0C00000C00
0C7FFFFE00
0C00030000
0C18030000
0C18030000
0C18030000
0C18030000
0C30030000
0C30030600
0C7FFFFF00
0C60070000
0C001F0000
0C003B0000
0C00630000
1801C30000
1803830000
180E030000
1818030000
1860030000
3180030000
3000030000
2000FF0000
20001E0000
0000000000
0000000000
ENDCHAR

STARTCHAR cns2_2370
ENCODING 9072
SWIDTH 960 0
DWIDTH 34 0
BBX 34 34 0 -2
BITMAP
0000000000
0000000000
0000700000
0000600000
0000600000
0C00600600
0FFFFFFF00
0C00000000
0C00300000
0C00700000
0C00780000
0C00EC0000
0C01C70000
0C03818000
0C0700E000
0C0C003800
0C38031E00
0C61FF8780
0CC0000000
0D00000000
0C00000000
0C00003000
0C1FFFF800
0C00003000
1800003000
1800006000
1800006000
180000C000
300000C000
3000018000
2000030000
4000060000
00000C0000
0000000000
ENDCHAR

STARTCHAR cns2_2371
ENCODING 9073
SWIDTH 960 0
DWIDTH 34 0
BBX 34 34 0 -2
BITMAP
0000000000
0000000000
0000700000
0000600000
0000600000
0C00600600
0FFFFFFF00
0C00000000
0C00000000
0C0001F000
0C001FC000
0C19FC0000
0C1FC00000
0C18000000
0C18000000
0C18000000
0C18000300
0C1FFFFF80
0C18060000
0C18060000
0C18060000
0C18060000
0C18060000
0C18060000
1830060000
1830060000
1830060000
1860060000
3060060000
3040060000
60C0060000
4000060000
0000000000
0000000000
ENDCHAR

STARTCHAR cns2_2372
ENCODING 9074
SWIDTH 960 0
DWIDTH 34 0
BBX 34 34 0 -2
BITMAP
0000000000
0000000000
00000E0000
00007F0000
001C060000
0038030000
0070018000
00E000E000
0180007800
070000DF80
1C7FFFE300
200300C000
000300C000
000600C000
000C018000
001C018000
0038038000
00E0FF0000
07001E0000
1830030000
0038030000
0030030000
0030030300
3FFFFFFF80
0030030000
0030030000
0060030000
0060030000
00C0030000
01C0030000
0700030000
1C00030000
0000000000
0000000000
ENDCHAR

STARTCHAR cns2_2373
ENCODING 9075
SWIDTH 960 0
DWIDTH 34 0
BBX 34 34 0 -2
BITMAP
0000000000
0000000000
000C000000
0FFEC00600
000CFFFF00
000CC30600
000CC30600
000CC30600
000CC30600
000CC30600
0C0CC30600
0FFCC30600
0C0CC30600
0C00C30600
0C00C30600
1800FFFE00
1800C00600
180CC00600
1FFEC00000
180CC00000
180CC00000
000CC00000
000CC00000
000CC00000
0018C00200
0018C00300
0018C00300
0018C00300
0038E00700
3C707FFE00
07E0000000
01C0000000
0000000000
0000000000
ENDCHAR

STARTCHAR cns2_2374
ENCODING 9076
SWIDTH 960 0
DWIDTH 34 0
BBX 34 34 0 -2
BITMAP
0000000000
0000000000
00F000C000
00E00FE000
01C000C000
018040C000
0300E0C000
0700E04000
0E30C06000
0C70C06000
3061803000
00E1803800
00C3801800
01C3001C00
0386180E00
03861C0700
078C180000
0D98180000
1990180000
2180380000
0180300000
0180300000
018060C000
0180606000
0180603000
0180C03000
0180C07800
0181879C00
019FFC0C00
018E000E00
0180000000
0180000000
0000000000
0000000000
ENDCHAR

STARTCHAR cns2_2375
ENCODING 9077
SWIDTH 960 0
DWIDTH 34 0
BBX 34 34 0 -2
BITMAP
0000000000
0000000000
00C0000000
00E7FFF000
01C0607000
0180607000
0380606000
0700606000
060060E000
0C3860C000
187060C000
306060C000
00E0C0C600
01C0FFFF00
0180D00600
0380D00600
0700D00C00
0F80D80C00
1D80D81800
3180CC1800
0180CC3000
0181863000
0181866000
018383E000
018301C000
0187018000
018603E000
018C0E7000
018C1C3C00
0198301F00
0190C00700
0183000000
0000000000
0000000000
ENDCHAR

STARTCHAR cns2_2376
ENCODING 9078
SWIDTH 960 0
DWIDTH 34 0
BBX 34 34 0 -2
BITMAP
0000000000
0000000000
00000E0000
00000CE000
00000C3800
00000C1800
00000C0800
00000C0000
00000C0600
1FFFFFFF00
00000C0000
00000C0000
00000C0000
00400C0000
00700C0000
00380C0000
001C0C0000
000E060000
00C6060000
00E0060000
00C0070000
00C0030000
0CC0630000
0CC0318100
0CC0318100
18C018C100
18C09CC100
18C18C6300
38C1887300
30C1C03F00
00FF801F80
007F000700
0000000000
0000000000
ENDCHAR

STARTCHAR cns2_2377
ENCODING 9079
SWIDTH 960 0
DWIDTH 34 0
BBX 34 34 0 -2
BITMAP
0000000000
0000000000
0000000000
0000000E00
1FFFFFFF00
0001800000
0001800000
0001800000
0001800000
0001F80000
00019E0000
0001838000
000180E000
0001802000
0001800000
0001800000
0001800000
0001000000
0000000000
0000000000
0031800000
0038E00000
0030786000
0030383800
0330100C00
0330008700
063000C300
063000C100
0E3000C000
1C3801C000
301FFF8000
0007F80000
0000000000
0000000000
ENDCHAR

STARTCHAR cns2_2378
ENCODING 9080
SWIDTH 960 0
DWIDTH 34 0
BBX 34 34 0 -2
BITMAP
0000000000
0000000000
0003000000
0003800000
0003000000
0003000000
0003000000
0003000000
0003006000
0003FFF800
0003000000
0003000000
0003000000
0003000000
0003000000
0003000000
0003000600
1FFFFFFF00
0000000000
0000000000
0003800000
0000C00000
0038700000
0030307000
0330201800
0330008E00
0630008700
063000C300
0E3000C000
1C3801C000
381FFF8000
0007FE0000
0000000000
0000000000
ENDCHAR

STARTCHAR cns2_2379
ENCODING 9081
SWIDTH 960 0
DWIDTH 34 0
BBX 34 34 0 -2
BITMAP
0000000000
0000000000
0300000000
0300700000
03001C0000
03000E0000
0300070000
0300020000
0360000300
0B37FFFF80
0B300C0000
1B380C0000
1B180C0000
33000C0000
33000E0000
03000D8000
03000CE000
03000C7000
03000C3800
03000C1C00
03000C0000
03000C0000
03000C0000
03000C0000
03000C0000
03000C0000
03000C0000
03000C0000
03000C0000
03000C0000
03000C0000
0200080000
0000000000
0000000000
ENDCHAR

STARTCHAR cns2_237A
ENCODING 9082
SWIDTH 960 0
DWIDTH 34 0
BBX 34 34 0 -2
BITMAP
0000000000
0000000000
0300000000
0300000C00
0300FFFE00
0300000000
0300000000
0300000000
0360000000
0B30000000
0B30000000
1B18000300
1B1BFFFF80
3300318000
3300318000
0300318000
0300318000
0300318000
0300318000
0300618000
0300618000
0300618000
0300618000
0300C18000
0300C18000
0301818100
0301818300
0303018300
030301C300
030600FF80
030C003F00
0210000000
0000000000
0000000000
ENDCHAR

STARTCHAR cns2_237B
ENCODING 9083
SWIDTH 960 0
DWIDTH 34 0
BBX 34 34 0 -2
BITMAP
0000000000
0000000000
0300070000
0300060000
0300060000
0300060000
0300060000
0300060300
0367FFFF80
0B30060000
0B30060000
1B18060000
1B10060000
3300061800
3303FFFC00
0300C01C00
0300C01800
0300603000
0300603000
0300306000
0300306000
030018C000
03000CC000
03000D8000
0300070000
0300070000
03000FC000
030018E000
0300707800
0300C01F80
0303000600
031C000000
0000000000
0000000000
ENDCHAR

STARTCHAR cns2_237C
ENCODING 9084
SWIDTH 960 0
DWIDTH 34 0
BBX 34 34 0 -2
BITMAP
0000000000
0000000000
03000C0000
03000E0000
03000C0000
03000C0C00
0307FFFE00
03000C0000
03600C0000
03300C0000
1B300C0000
1B1B0C0C00
1B1B0C0C00
3B030C0C00
33030C0C00
03030C0C00
03030C0C00
03030C0C00
03030C0C00
03030C0C00
03030C0C00
0303FFFC00
03030C0C00
03030C0C00
03000C0000
03000C0000
03000C0100
03000C0100
03000C0380
03000E0380
030007FF00
030001FC00
0000000000
0000000000
ENDCHAR

STARTCHAR cns2_237D
ENCODING 9085
SWIDTH 960 0
DWIDTH 34 0
BBX 34 34 0 -2
BITMAP
0000000000
0000000000
0180038000
0180030000
0180030000
0180030000
0180030000
0180030000
01B2030300
01B3FFFF80
0D9B030300
0D9B030300
199B030300
1983030300
3983030300
0183030300
0183030300
0183030300
0183030300
0183030300
0183FFFF00
0183030300
0183030200
0180030000
0180030000
0180030000
0180030000
0180030000
0180030000
0180030000
0180030000
0180030000
0000000000
0000000000
ENDCHAR

STARTCHAR cns2_237E
ENCODING 9086
SWIDTH 960 0
DWIDTH 34 0
BBX 34 34 0 -2
BITMAP
0000000000
0000000000
0300600000
0300700000
0300600000
0300600000
0300C00000
0300C00600
0321FFFF00
0331830000
0B39830000
1F1B030000
1B13030000
3B06030000
330C030000
0300030000
0300030000
0300030300
0307FFFF80
0300030000
0300030000
0300030000
0300030000
0300030000
0300030000
0300030000
0300030000
0300030000
0300030000
0300030000
0300030000
0300030000
0000000000
0000000000
ENDCHAR

STARTCHAR cns2_2421
ENCODING 9249
SWIDTH 960 0
DWIDTH 34 0
BBX 34 34 0 -2
BITMAP
0000000000
0000000000
0180000000
0180003000
0187FFF800
0180606000
0180606000
0180606000
01B0606000
0DB0606000
0D9860C000
0D9860C000
198CC0C600
1980FFFF00
3180D00600
0180D00C00
0180D00C00
0180D81C00
0180D81800
0180CC3800
0180CC3000
0181867000
0181866000
018303E000
018301C000
018603C000
0186076000
018C0E7000
018C1C3800
0198701E00
0190C00700
0183000380
0000000000
0000000000
ENDCHAR

STARTCHAR cns2_2422
ENCODING 9250
SWIDTH 960 0
DWIDTH 34 0
BBX 34 34 0 -2
BITMAP
0000000000
0000000000
0300200000
0300700000
0300700000
0300600000
0300600000
0300C00000
0320C00600
0331FFFF00
0B39800600
1B19800E00
1B1B0C0C00
3B030E1800
33060C1000
03040C0000
03080C0000
03000E0000
03000E0000
03000E0000
03001B0000
03001B0000
0300198000
0300318000
030030C000
030060E000
0300C07000
0301C03800
0303801E00
0306000F80
030C000300
0330000000
0000000000
0000000000
ENDCHAR

STARTCHAR cns2_2423
ENCODING 9251
SWIDTH 960 0
DWIDTH 34 0
BBX 34 34 0 -2
BITMAP
0000000000
0000000000
0300003C00
030000F800
03010F8000
0301FD8000
0301818000
0301818000
0361818000
0B31818000
0B39818000
1B19818000
1B19818000
3301818300
3301FFFF80
0301818000
0301818000
0301818000
0301818000
0301818000
030180C000
030180C000
030180C000
0301806000
0301806080
0301803080
0301863180
0301B81980
0301E01D80
031F800F80
031C000700
0300000000
0000000000
0000000000
ENDCHAR

STARTCHAR cns2_2424
ENCODING 9252
SWIDTH 960 0
DWIDTH 34 0
BBX 34 34 0 -2
BITMAP
0000000000
0000000000
0300004000
0300007000
0300006000
0307006700
0306006600
0306006600
0B66C0C600
1B3660C600
1B3620C600
1B3630C600
3B16198600
33061D8600
33060F8600
0306070600
0306030600
0306078600
0306078600
03060CC600
03060CC600
030618E600
0306386600
0306307600
0306603600
0306403E00
0307801600
0306000600
0306000600
0307FFFE00
0306000600
0306000400
0000000000
0000000000
ENDCHAR

STARTCHAR cns2_2425
ENCODING 9253
SWIDTH 960 0
DWIDTH 34 0
BBX 34 34 0 -2
BITMAP
0000000000
0000000000
0300000C00
0300003C00
030005F000
0300FF0000
0300C00000
0300C00000
0320C00000
0B30C00000
0B18C00000
1B18C00000
1B18C00300
3300FFFF80
3300C06000
0300C06000
0300C06000
0300C06000
0300C06000
0300C06000
0300C06000
0300C06000
0301806000
0301806000
0301806000
0303006000
0303006000
0303006000
0306006000
0306006000
030C006000
0318006000
0000000000
0000000000
ENDCHAR

STARTCHAR cns2_2426
ENCODING 9254
SWIDTH 960 0
DWIDTH 34 0
BBX 34 34 0 -2
BITMAP
0000000000
0000000000
0300000000
0300000300
0307FFFF80
0300060000
0300060000
0300060000
0B600E0000
1B700C0000
1B301C0000
1B381E0000
3B183C0000
33006C6000
3300EC3000
0300CC1800
03018C0E00
03030C0700
03060C0780
030C0C0380
03080C0100
03100C0000
03000C0000
03000C0000
03000C0000
03000C0000
03000C0000
03000C0000
03000C0000
03000C0000
03000C0000
0300000000
0000000000
0000000000
ENDCHAR

STARTCHAR cns2_2427
ENCODING 9255
SWIDTH 960 0
DWIDTH 34 0
BBX 34 34 0 -2
BITMAP
0000000000
0000000000
03000C0000
03000E0000
03001E0000
03001B0000
0300330000
0300718000
033060C000
0B30C0E000
0B19807000
1B19803800
1B1B00DC00
3B067FEF00
330C000300
0318000000
0300000000
0300000000
0300001800
0307FFFC00
0300003800
0300003000
0300006000
0300006000
0300006000
030000C000
030000C000
0300018000
0300038000
0300030000
0300070000
0300020000
0000000000
0000000000
ENDCHAR

STARTCHAR cns2_2428
ENCODING 9256
SWIDTH 960 0
DWIDTH 34 0
BBX 34 34 0 -2
BITMAP
0000000000
0000000000
0006000000
001F000000
007C000600
0FE03FFF00
0C00300600
0C00300600
0C00300600
0C00300600
0C03300600
0FFFB00600
0C03300600
0C03300600
0C03300600
0C033FFE00
0C03300600
0C03300600
0FFF300000
0C03300000
0C03300000
0C00300000
0C00300000
1C00300000
1800300200
1800300200
1800300200
1800300700
1000300700
3000380E00
30001FFC00
2000000000
0000000000
0000000000
ENDCHAR

STARTCHAR cns2_2429
ENCODING 9257
SWIDTH 960 0
DWIDTH 34 0
BBX 34 34 0 -2
BITMAP
0000000000
0000000000
01C0000000
0180600000
0180300000
01801C0000
01800E0000
01800E0000
01A8060300
3FFDFFFF80
0180060000
0180060000
0180060000
0180060000
0180060000
0180070000
019807C000
01E006E000
07C0063800
7F80061C00
0180060E00
0180060600
0180060000
0180060000
0180060000
0180060000
0180060000
0180060000
0180060000
3F00060000
0600060000
0000040000
0000000000
0000000000
ENDCHAR

STARTCHAR cns2_242A
ENCODING 9258
SWIDTH 960 0
DWIDTH 34 0
BBX 34 34 0 -2
BITMAP
0000000000
0000000000
01C0070000
0180060000
0180060000
0180060000
0180060000
0181060000
0199860600
3FFDFFFF80
0181860700
0183860E00
0183060C00
0187061800
0186060000
018007C000
018C0D8000
01B80D8000
01E00D8000
0F800D8000
7D800D8000
0180198000
0180198000
0180318000
0180318000
0180618100
0180E18100
0181C18180
0183818380
238601C380
3F0C00FF00
0630003C00
0000000000
0000000000
ENDCHAR

STARTCHAR cns2_242B
ENCODING 9259
SWIDTH 960 0
DWIDTH 34 0
BBX 34 34 0 -2
BITMAP
0000000000
0000000000
01C0000000
0180000000
0180000000
0180000C00
01807FFE00
0180000000
018C000000
3FFE000000
0180000000
0180000000
0180000000
0180000300
0181FFFF80
0180060000
018C060000
01B8060000
01E00C0000
0F800C0000
3D800C0000
01800C0000
0180183000
0180181800
0180180C00
0180180600
0180300700
0180301F00
01806FF380
7383FF0380
1F01800180
0600000000
0000000000
0000000000
ENDCHAR

STARTCHAR cns2_242C
ENCODING 9260
SWIDTH 960 0
DWIDTH 34 0
BBX 34 34 0 -2
BITMAP
0000000000
0000000000
01C0000000
0180000000
0180001800
0181FFFC00
0180000000
0180000000
018C000000
3FFE000000
0180000000
0180000600
0187FFFF00
0180618000
0180618000
0180618000
0180618000
01B8618000
01E0618000
0F80618000
3D80618000
0180618000
0180618000
0180C18000
0180C18000
0181818100
0181818300
0183818300
0183018380
3386018780
1F0C00FF00
0610000000
0000000000
0000000000
ENDCHAR

STARTCHAR cns2_242D
ENCODING 9261
SWIDTH 960 0
DWIDTH 34 0
BBX 34 34 0 -2
BITMAP
0000000000
0000000000
01C0000000
0180000000
0180000300
0187FFFF80
0180030000
0180030000
0198060000
3FFC060000
01800C0000
01800F0000
01801E0000
01801E6000
0180363800
018C661C00
01B8C60E00
01E0C60700
03C1860380
0F83060380
7D86060100
0188060000
0180060000
0180060000
0180060000
0180060000
0180060000
0180060000
0180060000
0380060000
3F00060000
0E00040000
0000000000
0000000000
ENDCHAR

STARTCHAR cns2_242E
ENCODING 9262
SWIDTH 960 0
DWIDTH 34 0
BBX 34 34 0 -2
BITMAP
0000000000
0000000000
01C0000000
0180000000
0180800300
0180FFFF80
0180C00300
0180C00300
0198C00300
3FFCC00300
0180C00300
0180C00300
0180C00300
0180C00300
0180C00300
018CC00300
01B8FFFF00
01E0C00300
01C0C00300
0F80C00300
3D80C00300
0180C00300
0180C00300
0180C00300
0180C00300
0180C00300
0180C00300
0180C00300
0180FFFF00
3B80C00300
1F00C00300
0600800000
0000000000
0000000000
ENDCHAR

STARTCHAR cns2_242F
ENCODING 9263
SWIDTH 960 0
DWIDTH 34 0
BBX 34 34 0 -2
BITMAP
0000000000
0000000000
00E0000000
00C0003000
00C3FFF800
00C0603000
00C0603000
00C0606000
00CC606000
1FFE606000
00C0606000
00C060C000
00C060C600
00C07FFF00
00C0600700
00C6600600
00DC700C00
00F0780C00
00E0D81800
07C0CC1800
3EC0CC3000
00C0C63000
00C1836000
00C1836000
00C301C000
00C301C000
00C603E000
00C6067000
00CC1C3800
01D8301E00
1F90E00780
0303000000
0000000000
0000000000
ENDCHAR

STARTCHAR cns2_2430
ENCODING 9264
SWIDTH 960 0
DWIDTH 34 0
BBX 34 34 0 -2
BITMAP
0000000000
0000000000
01C0180000
0180180000
0180180000
0180300000
0180300000
0180300000
0198700300
3FFC7FFF80
0180600700
0180600600
0180E30E00
0180C30C00
0180C30800
018D830000
01B9830000
01E0038000
01C0038000
0F80078000
3D8006C000
018006C000
01800CC000
01800C6000
0180186000
0180183000
0180303000
0180301800
0180601C00
7B80C00F00
1F01800780
0602000000
0000000000
0000000000
ENDCHAR

STARTCHAR cns2_2431
ENCODING 9265
SWIDTH 960 0
DWIDTH 34 0
BBX 34 34 0 -2
BITMAP
0000000000
0000000000
01C0001C00
0180007C00
018003F000
0181BFC000
0181E0C000
018180C000
019980C000
3FFD80C000
018180C000
018180C000
018180C000
018180C000
018180C300
018DFFFF80
01B980C000
01E180C000
01C180C000
078180C000
3F8180C000
018180C000
0181806000
0181806000
0181806000
0181803080
0181823080
01818C1980
0181F01D80
0187C00F80
3F0E000780
0700000100
0000000000
0000000000
ENDCHAR

STARTCHAR cns2_2432
ENCODING 9266
SWIDTH 960 0
DWIDTH 34 0
BBX 34 34 0 -2
BITMAP
0000000000
0000000000
01C0070000
0180060000
0180066000
0180063000
0180061800
0180061C00
0198060000
3FFC060000
0180060300
0181FFFF80
0180060000
0180060000
018007C000
018C078000
01B8058000
01E00D8000
01C00D8000
0F800D8000
7D800D8000
01800D8000
0180198000
0180198000
0180318100
0180318100
0180618100
0180618100
0180C18380
738181C780
1F0300FF00
060C003C00
0000000000
0000000000
ENDCHAR

STARTCHAR cns2_2433
ENCODING 9267
SWIDTH 960 0
DWIDTH 34 0
BBX 34 34 0 -2
BITMAP
0000000000
0000000000
01C0040000
01800E0000
01800E0000
01800C0000
01800C0000
0180186000
0198183000
1FFC301800
0180300C00
0180600600
018061F700
018FFFC300
018718C100
018018C000
019818C000
01E018C000
01C018C000
0F8030C000
7D8030C000
018030C000
018030C000
018060C000
018060C000
0180C0C100
0180C0C100
018180C180
018300C380
338600E380
1F0C007F00
0610000000
0000000000
0000000000
ENDCHAR

STARTCHAR cns2_2434
ENCODING 9268
SWIDTH 960 0
DWIDTH 34 0
BBX 34 34 0 -2
BITMAP
0000000000
0000000000
00E0000000
00C0300300
00C03FFF80
00C0300300
00C0300300
00C0300300
00CC300300
0FFE300300
00C0300300
00C03FFF00
00C0300300
00C0300300
00C0300300
00C0300300
00DC300300
00F0300300
00E0300300
07C03FFF00
3EC0300300
00C0300300
00C0600300
00C0600300
00C0600300
00C0C00300
00C0C00300
00C1800300
00C1800300
39C300FF00
0F83000E00
0306000000
0000000000
0000000000
ENDCHAR

STARTCHAR cns2_2435
ENCODING 9269
SWIDTH 960 0
DWIDTH 34 0
BBX 34 34 0 -2
BITMAP
0000000000
0000000000
01C0000C00
0180003C00
018000F000
0180078000
01807E0000
0181860000
0198060000
3FFC060000
0180060000
0180060000
0180060000
0180060300
0183FFFF80
0180060000
0198060000
01E0060000
01C0070000
0F800D8000
3D800D8000
01800CC000
018018E000
0180186000
0180307000
0180703000
0180E03800
0180C01C00
0181800E00
7B83000F80
1F06000380
0618000000
0000000000
0000000000
ENDCHAR

STARTCHAR cns2_2436
ENCODING 9270
SWIDTH 960 0
DWIDTH 34 0
BBX 34 34 0 -2
BITMAP
0000000000
0000000000
03000E0000
03800C0000
03000C0000
03000C0000
03000C0600
030FFFFF00
03000C0000
03300C0000
3FF80C0000
03000C0000
03000C0E00
03070C0C00
03060C0C00
03060C0C00
03060C0C00
03660C0C00
03C60C0C00
07060C0C00
1F060C0C00
7B07FFFC00
03060C0C00
03060C0C00
03000C0000
03000C0100
03000C0100
03000C0180
03000C0380
03000E0700
7E0007FE00
1E00000000
0000000000
0000000000
ENDCHAR

STARTCHAR cns2_2437
ENCODING 9271
SWIDTH 960 0
DWIDTH 34 0
BBX 34 34 0 -2
BITMAP
0000000000
0000000000
01C0040000
01800E0000
01800E0000
01800F0000
0180198000
0180198000
019830C000
1FFC70E000
0180607000
0180C03800
0181801C00
0181806F00
01833FF380
0186000000
0198000000
01E0000000
01C0001800
0F83FFFC00
7D80001800
0180001800
0180003000
0180003000
0180006000
0180006000
018000C000
018000C000
0180018000
0380018000
3F00030000
0600030000
0000000000
0000000000
ENDCHAR

STARTCHAR cns2_2438
ENCODING 9272
SWIDTH 960 0
DWIDTH 34 0
BBX 34 34 0 -2
BITMAP
0000000000
0000000000
01C0060000
0180060000
01800E0000
01800F0000
0180198000
0180198000
019830C000
3FFC606000
0180C07000
0180C03800
0181801C00
0183000F00
018660E380
018070C000
019860C000
01E060C000
01C060C000
0F8060C000
3D8060C000
018060C000
0180C0C000
0180C0C000
0180C0C000
018180C000
018180C000
018300C000
018300C000
738600C000
1F0C00C000
061800C000
0000000000
0000000000
ENDCHAR

STARTCHAR cns2_2439
ENCODING 9273
SWIDTH 960 0
DWIDTH 34 0
BBX 34 34 0 -2
BITMAP
0000000000
0000000000
0000000000
0000000C00
3063FFFE00
3FF0060000
3060060000
3060060000
3060060000
3060060000
3060060000
3060060000
3060060000
3060060300
3FE7FFFF80
3060060000
3060060000
3060060000
3060060000
3060060000
3060060000
3060060000
3060060000
3060060000
3FE0060000
3060060000
3060060000
0000060000
0000060000
0000060000
0000060000
0000060000
0000000000
0000000000
ENDCHAR

STARTCHAR cns2_243A
ENCODING 9274
SWIDTH 960 0
DWIDTH 34 0
BBX 34 34 0 -2
BITMAP
0000000000
0000000000
0000000000
0000001800
3061FFFC00
3FF0030000
3060030000
3060030000
3060030000
3060030000
3060030000
3060030000
3060030000
3060030300
3FE7FFFF80
3060030000
3060030000
3060030000
3060030000
3060030000
3060030000
3060030000
3060030000
3060030000
3FE0030000
3060030000
3060030000
0000030000
0000030000
0000E70000
00003E0000
00000C0000
0000000000
0000000000
ENDCHAR

STARTCHAR cns2_243B
ENCODING 9275
SWIDTH 960 0
DWIDTH 34 0
BBX 34 34 0 -2
BITMAP
0000000000
0000000000
0000C00000
0000E00000
0000C00000
3060C00000
3FF1800000
3061800600
3061FFFF00
3063000600
3063000600
3063000600
3066000600
3066000600
306CC00600
3FE8600600
3070300600
3060380600
30601C0600
30601C0600
30600C0600
3060000600
3060000600
3060000600
3060000600
3FE0000C00
3060000C00
3060000C00
0000001800
00001C3800
00000FF000
000001E000
0000000000
0000000000
ENDCHAR

STARTCHAR cns2_243C
ENCODING 9276
SWIDTH 960 0
DWIDTH 34 0
BBX 34 34 0 -2
BITMAP
0000000000
0000000000
0200003000
03FFFFF800
0300003000
0300003000
0300003000
0300003000
03FFFFF000
0300003000
0300003000
0300003000
0300003000
0300003000
03FFFFF000
0300C03000
0300C02000
0000C00000
0000C00000
0000C00600
1FFFFFFF00
0000C00000
0001E00000
0003B00000
0003180000
00061C0000
000C060000
0038038000
007001E000
01C0007C00
0700001F00
3800000000
0000000000
0000000000
ENDCHAR

STARTCHAR cns2_243D
ENCODING 9277
SWIDTH 960 0
DWIDTH 34 0
BBX 34 34 0 -2
BITMAP
0000000000
0000000000
0200003000
03FFFFF800
0300003000
0300003000
0300003000
0300003000
03FFFFF000
0300003000
0300003000
0300003000
0300003000
0300003000
03FFFFF000
0300003000
0200E02000
0000C00000
1800C00C00
1C00C00C00
1800C00C00
1800C00C00
1800C00C00
1800C00C00
1800C00C00
1800C00C00
1800C00C00
1800C00C00
1800C00C00
1FFFFFFC00
1800000C00
1800000C00
0000000000
0000000000
ENDCHAR

STARTCHAR cns2_243E
ENCODING 9278
SWIDTH 960 0
DWIDTH 34 0
BBX 34 34 0 -2
BITMAP
0000000000
0000000000
01C0000000
0180000600
0183FFFF00
0180030000
0180030000
0180030000
018C030000
3FFE030000
0180030000
0180030000
0180030000
03C0030300
03E7FFFF80
03B0030000
07B8030000
0798030000
0D80030000
0D80030000
1980030000
1980030000
3180030000
2180030000
0180030000
0180030000
0180030000
0180030000
0180030000
0180E70000
01803E0000
01800C0000
0000000000
0000000000
ENDCHAR

STARTCHAR cns2_243F
ENCODING 9279
SWIDTH 960 0
DWIDTH 34 0
BBX 34 34 0 -2
BITMAP
0000000000
0000000000
01C0000000
0180000000
0180000C00
0181FFFE00
0180000000
0180000000
018C000000
3FFE000000
0180000000
0180000300
0187FFFF80
03C0300000
03E0300000
03B0300000
07B8600000
0798600C00
0D80FFFE00
0D80C00C00
1980C00C00
1980000C00
3180000C00
2180000C00
0180001800
0180001800
0180001800
0180003800
0180003000
0180307000
01801FE000
018003C000
0000000000
0000000000
ENDCHAR

STARTCHAR cns2_2440
ENCODING 9280
SWIDTH 960 0
DWIDTH 34 0
BBX 34 34 0 -2
BITMAP
0000000000
0000000000
01C00C0000
01800C0000
01800CC000
01800C7000
01800C3800
01800C1800
01800C0000
018C0C0000
3FFE0C0000
01800C0600
018FFFFF00
03800C0000
03C00C0000
07E00C0000
05B00C0000
0D98060000
0D98060000
198C060000
1980070000
3180030000
2180030000
0180038000
0180018000
018001C100
018000C100
0180006300
0180007300
0180003F00
0180001F00
0180000600
0000000000
0000000000
ENDCHAR

STARTCHAR cns2_2441
ENCODING 9281
SWIDTH 960 0
DWIDTH 34 0
BBX 34 34 0 -2
BITMAP
0000000000
0000000000
01C0070000
0180060000
0180060000
0180060000
0180060000
0180060000
0180060000
018C060000
3FFE060600
0183FFFF00
0180060000
0380070000
03C00F0000
03A00D8000
07B00D8000
0798198000
0D9819C000
0D8C18C000
198030C000
318030E000
2180306000
0180607000
0180603000
0180C03800
0181C01800
0181801C00
0183000E00
0186000780
0184000300
0188000000
0000000000
0000000000
ENDCHAR

STARTCHAR cns2_2442
ENCODING 9282
SWIDTH 960 0
DWIDTH 34 0
BBX 34 34 0 -2
BITMAP
0000000000
0000000000
01C0000000
0180000000
0180000300
0187FFFF80
018030C000
018030C000
018C30C000
3FFE30C000
018030C000
018030C000
018030C000
03C030C000
03E030C000
07B030C000
079830C000
0D9830C000
0D8C30C000
198060C000
198060C000
318060C000
218060C000
0180C0C000
0180C0C100
018180C100
018180C300
018100C300
018300C380
018600FF80
018C007E00
0180000000
0000000000
0000000000
ENDCHAR

STARTCHAR cns2_2443
ENCODING 9283
SWIDTH 960 0
DWIDTH 34 0
BBX 34 34 0 -2
BITMAP
0000000000
0000000000
01C0000000
0180000000
0180000600
0181FFFF00
0180000700
0180600600
0180660600
0198630600
3FFC618C00
018061CC00
0180300C00
0380301800
03C0301800
03E0181800
07B0183000
07B80C3000
0D980C3000
0D90066000
1980066000
318003C000
218001C000
0180038000
018007C000
01800EE000
01801C7000
0180303800
0180E01E00
0181800F00
0186000780
0198000000
0000000000
0000000000
ENDCHAR

STARTCHAR cns2_2444
ENCODING 9284
SWIDTH 960 0
DWIDTH 34 0
BBX 34 34 0 -2
BITMAP
0000000000
0000000000
01C0030000
0180038000
0180030000
0180E30000
0180C30000
0180C30000
018CC30000
3FFEC30700
0180C37F00
0180CFC600
0180FB0600
0387C30600
03C4C30600
07E0C30600
07B0C30600
0DB8C30C00
0D98C30C00
1990C30C00
1180C30C00
3180C30C00
4180C37C00
0180C31800
0180C30000
0180C30100
0180C00300
0180C00300
0180C00300
0180E00780
01807FFF00
0180000000
0000000000
0000000000
ENDCHAR

STARTCHAR cns2_2445
ENCODING 9285
SWIDTH 960 0
DWIDTH 34 0
BBX 34 34 0 -2
BITMAP
0000000000
0000000000
01C0000000
0180000600
0180FFFF00
0180001C00
0180003800
0180003000
018C006000
3FFE00C000
0180018000
0180030000
0180030000
0380030000
03C0030000
07E0030300
07B3FFFF80
0DB8030000
0D98030000
1980030000
1980030000
3180030000
6180030000
0180030000
0180030000
0180030000
0180030000
0180030000
0180030000
0180E70000
01803E0000
01800C0000
0000000000
0000000000
ENDCHAR

STARTCHAR cns2_2446
ENCODING 9286
SWIDTH 960 0
DWIDTH 34 0
BBX 34 34 0 -2
BITMAP
0000000000
0000000000
01C0200000
0180380000
0180300000
0180700000
0180600000
0180600300
0198FFFF80
3FFCC00000
0181C00000
0181800000
0183000000
0386000000
03E0007000
07B07FF800
07B800E000
0D9801C000
1D98038000
1980030000
3180060000
31800C0000
61800C0000
0180180000
0180300100
0180600100
0180E00300
0180C00300
0181C00380
0181C00780
0180FFFF00
0000000000
0000000000
0000000000
ENDCHAR

STARTCHAR cns2_2447
ENCODING 9287
SWIDTH 960 0
DWIDTH 34 0
BBX 34 34 0 -2
BITMAP
0000000000
0000000000
01C0000000
0180803000
0180FFF800
0180C03000
0180C03000
0180C03000
018CC03000
3FFEC03000
0180C03000
0180C03000
0180C83000
0380CC3000
03C0CE3000
07E0C63000
07B0C73000
0DB8C3B000
0D98C33000
1988C03000
1980C03000
3181803000
0181803000
0181803000
0183003080
0183003080
0183003180
0186003180
0186003380
018C001F00
0188000E00
0190000000
0000000000
0000000000
ENDCHAR

STARTCHAR cns2_2448
ENCODING 9288
SWIDTH 960 0
DWIDTH 34 0
BBX 34 34 0 -2
BITMAP
0000000000
0001800000
0001C00000
0001800000
0001800600
3FFFFFFF00
0001800000
0001800000
0001800000
0001803000
07FFFFF800
0000000000
0000000000
0180003000
01FFFFF800
0180C03000
0180C03000
0180C03000
0180C03000
0180C03300
3FFFFFFF80
0300C03000
0300C06000
0300C06000
0601806000
0601806000
0601806300
07FFFFFF80
0E00006000
0C00006000
00001FC000
0000078000
0000000000
0000000000
ENDCHAR

STARTCHAR cns2_2449
ENCODING 9289
SWIDTH 960 0
DWIDTH 34 0
BBX 34 34 0 -2
BITMAP
0000000000
0020000000
0060000000
00E0000000
00C0003000
01FFFFF800
01C0000000
0380000000
0700000000
0600028000
0C3FFFC000
1800000000
1000000000
6000006000
07FFFFF000
0000006000
000E006000
000C006000
040C006000
060C0E6000
060C0C6000
060C0C6000
060C0C6000
060C0C3000
060C0C3080
060C0C3080
060C0C1880
060C0C1980
060C0C1D80
07FFFC0F80
06000C0700
06000C0300
0400000000
0000000000
ENDCHAR

STARTCHAR cns2_244A
ENCODING 9290
SWIDTH 960 0
DWIDTH 34 0
BBX 34 34 0 -2
BITMAP
0000000000
0060000000
0060000000
00E0000000
00C0003000
01FFFFF800
01C0000000
0380000000
0700018000
063FFFC000
0C00000000
1800000000
3000000000
6000006000
07FFFFF000
0000006000
0000186000
01C71C6000
0186186000
0186186000
0186186000
0186186000
0186186000
0186186000
0186183080
0186183080
0306181880
0306181980
0306180D80
0606180F80
0600180700
0C00180300
0000000000
0000000000
ENDCHAR

STARTCHAR cns2_244B
ENCODING 9291
SWIDTH 960 0
DWIDTH 34 0
BBX 34 34 0 -2
BITMAP
0000000000
0000060000
0000070000
0E00060000
0700060000
03C0060000
01C0060000
0040060300
000FFFFF80
0000300000
0060300000
3060300000
1C40300000
0EC0300C00
06C03FFE00
02C0600E00
0180600C00
0180600C00
0180600C00
0300600C00
0300C00C00
0300C00C00
0700C00C00
0601800C00
3E01800C00
0E03000C00
0E03001800
0606001800
060C003000
07183F7000
073003E000
062000C000
0000000000
0000000000
ENDCHAR

STARTCHAR cns2_244C
ENCODING 9292
SWIDTH 960 0
DWIDTH 34 0
BBX 34 34 0 -2
BITMAP
0000000000
0000000000
0C00000600
0607FFFF00
0380C06000
01C0C06000
00C0C06000
0000C06000
0020C06000
0020C06000
0020C06000
3860C06000
1C60C06000
0E40C06000
04C0C06000
00C0C06300
00CFFFFF80
0180C06000
0180C06000
0180C06000
0301806000
0301806000
0701806000
3E01806000
0603006000
0603006000
0606006000
0606006000
070C006000
0718006000
0710006000
0630000000
0000000000
0000000000
ENDCHAR

STARTCHAR cns2_244D
ENCODING 9293
SWIDTH 960 0
DWIDTH 34 0
BBX 34 34 0 -2
BITMAP
0000000000
0000000000
0000606000
0E00707000
0700606000
0380606000
0180606000
0000606000
0000606300
004FFFFF80
6040606000
38C0606000
1CC0606000
0CC0606000
0580606000
0180606000
0180606000
0380606000
0300606000
0300606300
031FFFFF80
0700606000
0600E06000
3E00C06000
0E00C06000
0601806000
0601806000
0603006000
0703006000
0706006000
070C006000
0018006000
0000000000
0000000000
ENDCHAR

STARTCHAR cns2_244E
ENCODING 9294
SWIDTH 960 0
DWIDTH 34 0
BBX 34 34 0 -2
BITMAP
0000000000
0000000000
0000000000
0E00000000
0380000C00
01C3FFFE00
0180000000
0000000000
0000000000
0020000000
0020000000
3860000000
1C40000000
0E40000300
06CFFFFF80
00C0180000
0080180000
0180180000
0180300000
0180300000
0300300000
0300606000
0700603000
3E00601800
1E00601C00
0600C00C00
0600C00E00
0700C1FF00
0700FFC780
071FE00380
070C000300
0000000000
0000000000
0000000000
ENDCHAR

STARTCHAR cns2_244F
ENCODING 9295
SWIDTH 960 0
DWIDTH 34 0
BBX 34 34 0 -2
BITMAP
0000000000
0000000000
0000180000
0E001C8000
070018E000
0380187800
0180183800
0000181800
0000180000
0060180300
006FFFFF80
3860180000
1CC0180000
0EC01E0000
06C0160000
0080360000
0180360000
0180360000
0180360000
0300660000
0300660000
0700660000
0600C60000
3E00C60000
0E00C60100
0701860100
0701860300
0703060300
0706070700
070C03FE00
021800FC00
0020000000
0000000000
0000000000
ENDCHAR

STARTCHAR cns2_2450
ENCODING 9296
SWIDTH 960 0
DWIDTH 34 0
BBX 34 34 0 -2
BITMAP
0000000000
0000000000
0806000000
0E07000300
07060FFF80
0386018300
0186018300
0006018300
0066018300
0066018300
40C6198300
30C67D8300
1CC7E18300
0D9F018300
0586018300
0186018300
0186018300
0306018300
0306018300
0306130300
0706130300
0606330300
0E06330600
3C06360300
0C06660600
0C07EC0600
0E03CC0600
0E00180600
0600180C00
0600300C00
060021FC00
0400403800
0000000000
0000000000
ENDCHAR

STARTCHAR cns2_2451
ENCODING 9297
SWIDTH 960 0
DWIDTH 34 0
BBX 34 34 0 -2
BITMAP
0000000000
0000000000
00001C0000
0C00180000
0700188000
038018E000
0180187000
0000183800
0000183800
0020180000
0020180600
306FFFFF00
3840180000
1C40180000
0EC01C0000
06C03C0000
0180360000
0180360000
0180670000
0300630000
0300638000
0300C18000
0700C1C000
060180C000
3E0180E000
0E03006000
0603007000
0606003800
060C001C00
0708000E00
0710000700
0620000000
0000000000
0000000000
ENDCHAR

STARTCHAR cns2_2452
ENCODING 9298
SWIDTH 960 0
DWIDTH 34 0
BBX 34 34 0 -2
BITMAP
0000000000
0000000000
0000180000
0C001C0000
0700180000
0380180000
0180300000
0000300300
000FFFFF80
0000300000
0040300000
3040300000
38C0600000
0CC060C000
0E8060E000
0580C0C000
0180C18000
0180C18000
0301C18000
0301830000
0301830000
0703060000
0603060000
0E060C1800
3E060C1800
0E0C180C00
060C180E00
0618301E00
060031F700
0603FF0380
0F01C00300
0600000000
0000000000
0000000000
ENDCHAR

STARTCHAR cns2_2453
ENCODING 9299
SWIDTH 960 0
DWIDTH 34 0
BBX 34 34 0 -2
BITMAP
0000000000
0000000000
0000000000
0E00000600
0387FFFF00
01C6000700
0086000600
0006000600
0006000600
0036000600
0026000600
3866000600
1C46000600
0E46000600
06C6000600
00C7FFFE00
0186000600
0186000600
0186000600
0386000600
0306000600
0306000600
0706000600
3F06000600
0E06000600
0606000600
0706000600
0707FFFE00
0706000600
0706000600
0600000000
0000000000
0000000000
0000000000
ENDCHAR

STARTCHAR cns2_2454
ENCODING 9300
SWIDTH 960 0
DWIDTH 34 0
BBX 34 34 0 -2
BITMAP
0000000000
0000000000
0000060000
0E00070000
0380060000
0180060000
0080060000
0000060000
0000060000
0000060000
0063060000
3863860000
1C43060000
0EC3060000
06C3060600
00C307FF00
0183060000
0183060000
0183060000
0383060000
0303060000
0303060000
0703060000
0703060000
3E03060000
0603060000
0603060000
0703060000
0703060000
0703060300
077FFFFF80
0600000000
0000000000
0000000000
ENDCHAR

STARTCHAR cns2_2455
ENCODING 9301
SWIDTH 960 0
DWIDTH 34 0
BBX 34 34 0 -2
BITMAP
0000000000
0000000000
0000300000
0E00300000
0700180000
03C0180000
01800C0000
000C0C0300
002FFFFF80
002C060300
006C060300
384C0F0300
1C4C0F0300
0ECC1D8300
06CC198300
008C38C300
018C30E300
018C606300
038C607300
030CC03B00
030D803F00
070D001B00
070E000300
3E0C000300
0E0C000300
060C000300
060C000300
060C000300
060C000300
070C000700
060C00FE00
000C000C00
0008000000
0000000000
ENDCHAR

STARTCHAR cns2_2456
ENCODING 9302
SWIDTH 960 0
DWIDTH 34 0
BBX 34 34 0 -2
BITMAP
0000000000
0000000000
0000000000
0C00180000
0700180000
0380380000
0180300000
0180700000
0000606000
0030603000
0020C01800
6060C01E00
38419FFF00
1CDFFF8700
0EDE618300
06C0618000
0180618000
0180618000
0180618000
0300618000
0300C18000
0700C18000
0700C18000
0E01818000
3E01818100
0E03018100
0603018300
0606018300
0604018380
060C01C780
071801FF00
0620007E00
0000000000
0000000000
ENDCHAR

STARTCHAR cns2_2457
ENCODING 9303
SWIDTH 960 0
DWIDTH 34 0
BBX 34 34 0 -2
BITMAP
0000000000
0000000000
0000C00000
0C00C00000
0700C00000
0381800000
01C1800000
0081800300
0003FFFF80
000318C380
001718C300
203618C300
382C30C300
0E6C318300
0E68618300
06C0618300
00C0C30300
00C0C30300
0181860300
0181860300
03830C0600
03060C0600
0706180600
070C180600
3E18300C00
0E00300C00
0600600C00
0600C01C00
0701801800
0703003800
07060FF000
060001E000
0000000000
0000000000
ENDCHAR

STARTCHAR cns2_2458
ENCODING 9304
SWIDTH 960 0
DWIDTH 34 0
BBX 34 34 0 -2
BITMAP
0000000000
0000000000
0803030000
0E03838000
0703030000
03C3030000
0183030000
0003030000
0023030000
0023030000
4063030300
3863FFFF80
1E43000000
0EC3000000
04C3000000
00C3000000
0183000000
0183003000
0183FFF800
0303003000
0303003000
0703003000
0F06003000
3E06003000
0E06003000
0606003000
060C003000
060C003000
070C003000
0718003000
0618003000
0030003000
0000000000
0000000000
ENDCHAR

STARTCHAR cns2_2459
ENCODING 9305
SWIDTH 960 0
DWIDTH 34 0
BBX 34 34 0 -2
BITMAP
0000000000
0000000000
0000001C00
0C0000FE00
070007F000
0387FF0000
0187030000
0086030000
0006030000
0026030000
0046030000
3046030000
3846030000
0EC6030000
0E86030300
0687FFFF80
0186030000
0186018000
0306018000
0306018000
0306018000
070600C000
060600C000
3E0600C000
0E06006000
0606006080
0606003080
06063C3980
0707F01D80
071F800F80
067C000780
0030000300
0000000000
0000000000
ENDCHAR

STARTCHAR cns2_245A
ENCODING 9306
SWIDTH 960 0
DWIDTH 34 0
BBX 34 34 0 -2
BITMAP
0000000000
0000000000
0000000000
0402000600
0703FFFF00
0383000000
01C3000000
0083000000
0033000000
0033000000
3063000C00
3863FFFE00
0C63300C00
0EC3300C00
06C3301800
00C3301800
0183303000
0183183000
0386186000
03860C6000
03060CC000
070606C000
070C078000
3E0C030000
0E0C078000
060C07C000
06180CE000
0618387000
0730703C00
0720C01E00
0763000780
0606000000
0000000000
0000000000
ENDCHAR

STARTCHAR cns2_245B
ENCODING 9307
SWIDTH 960 0
DWIDTH 34 0
BBX 34 34 0 -2
BITMAP
0000000000
0000000000
10000E0000
0E000C0000
07800C0000
03800C0000
01800C0000
00000C0300
000FFFFF80
00000C0000
00200C0000
38600C0000
0C400C0000
0EC00C0000
06C00C1800
00CFFFFC00
0181801800
0181801800
0181803000
0180C03000
0300C06000
0300606000
070070C000
0F00398000
3E001F0000
0E000E0000
06000F0000
06003B8000
070061E000
0701C07C00
0707001F80
0638000700
0000000000
0000000000
ENDCHAR

STARTCHAR cns2_245C
ENCODING 9308
SWIDTH 960 0
DWIDTH 34 0
BBX 34 34 0 -2
BITMAP
0000000000
0000000000
0000C00000
0C00C00000
0700C00000
0381800000
0181800C00
0001FFFE00
0003860000
0063060000
0066060000
3046060000
1CCC060000
0ED8060000
06D0060000
0180060000
0180060000
0180060300
039FFFFF80
0300060000
0300060000
0700060000
0700060000
3E00060000
0E00060000
0600060000
0600060000
0600060000
0700060000
0700060000
0600060000
0000060000
0000000000
0000000000
ENDCHAR

STARTCHAR cns2_245D
ENCODING 9309
SWIDTH 960 0
DWIDTH 34 0
BBX 34 34 0 -2
BITMAP
0000000000
0000000000
0001870000
0E01860000
0701860000
0383060000
0183060000
0003060000
0067060000
0066060000
0066060000
38CC060600
1CCC07FF00
0EDE060000
049E060000
01B6060000
01A6060000
0386060000
0306060000
0306060000
0706060000
0706060000
0E06060000
3E06060100
0E06060100
0606060300
0706060300
0706060300
0706070700
070603FE00
070600FE00
0606000000
0000000000
0000000000
ENDCHAR

STARTCHAR cns2_245E
ENCODING 9310
SWIDTH 960 0
DWIDTH 34 0
BBX 34 34 0 -2
BITMAP
0000000000
0000000000
01C0000000
0180000000
0180000000
0180000C00
0183FFFE00
018C060000
019C060000
09B8060000
09F0060000
19C0060000
1980060000
1980060000
1980060000
3980060000
3980060000
0180060000
0180060000
0180060000
0380060000
03C0060000
0360060000
0330060000
0638060000
0618060000
0C18060000
0C00060000
0800060300
180FFFFF80
3000000000
0000000000
0000000000
0000000000
ENDCHAR

STARTCHAR cns2_245F
ENCODING 9311
SWIDTH 960 0
DWIDTH 34 0
BBX 34 34 0 -2
BITMAP
0000000000
0000000000
0180038000
0180030000
0180030000
0180E30000
0180C30000
0180C30000
019CC30000
01B8C30700
09F0C37F00
09C0C7C600
1980FF0600
198FC30600
1980C30600
3980C30600
3980C30600
0180C30600
0180C30600
0180C30600
0180C30C00
03C0C31C00
0360C37800
0330C33000
0638C30100
0618C00100
0E00C00100
0C00C00300
0C00C00780
18007FFF80
30003FFE00
2000000000
0000000000
0000000000
ENDCHAR

STARTCHAR cns2_2460
ENCODING 9312
SWIDTH 960 0
DWIDTH 34 0
BBX 34 34 0 -2
BITMAP
0000000000
0000000000
00E0000000
00C0000300
0CC3FFFF80
0EC00C0300
0EC00C0300
0CC00C0300
1CCC0C0300
1FFE0C0300
18C0CC0300
38C06C0300
30C03C0300
30C03C0300
60C01C0300
00C00C0600
00D8180300
00F0180600
01C0180600
0FC0300600
3EC0300600
30C0300600
00C0600600
00C0600600
00C0400C00
00C0C00C00
00C0800C00
00C1801800
00C3001800
00C61F3800
00CC07F000
00C000C000
0000000000
0000000000
ENDCHAR

STARTCHAR cns2_2461
ENCODING 9313
SWIDTH 960 0
DWIDTH 34 0
BBX 34 34 0 -2
BITMAP
0000000000
0000000000
0030000000
1C38600000
0C70380000
06E01C0000
03C01C0000
0380080000
0780000300
0ECFFFFF80
18C00C0000
20600C0000
00600C0000
00600C0000
00600C0000
00F00E0000
01F00F8000
03B00CE000
07300C7000
0E300C3C00
1C300C0E00
30300C0E00
00300C0600
00300C0000
00300C0000
00300C0000
00300C0000
00300C0000
00300C0000
1C700C0000
07E00C0000
00C00C0000
0000000000
0000000000
ENDCHAR

STARTCHAR cns2_2462
ENCODING 9314
SWIDTH 960 0
DWIDTH 34 0
BBX 34 34 0 -2
BITMAP
0000000000
0000000000
0000000000
0818000600
1C33FFFF00
0E6000C000
07C000C000
038180C000
0781C0C000
0D8180C000
398180C000
00C180C000
00C300C000
00C300C000
00E300C300
01E3FFFF80
01E302C000
036606C000
066606C000
0C600EC000
18600CC000
306018C000
006018C000
006030C000
006060C000
0060C0C000
006180C000
006300C000
006C00C000
00C000C000
3FC03F8000
0780038000
0000000000
0000000000
ENDCHAR

STARTCHAR cns2_2463
ENCODING 9315
SWIDTH 960 0
DWIDTH 34 0
BBX 34 34 0 -2
BITMAP
0000000000
0000000000
0018000000
183C000000
0C70003000
0EE7FFF800
07C0303000
0380303000
0780303000
0D80303000
1980303000
21C0303000
00C0303000
00C0603000
00C0603000
01E0603300
01EFFFFF80
03E0C06000
0760C06000
0E60C06000
1C60C06000
3060C06000
2060C06000
0060C06000
0061806000
0061806000
0061806000
0061806000
00E1806000
00C1806300
3FCFFFFF80
0780000000
0000000000
0000000000
ENDCHAR

STARTCHAR cns2_2464
ENCODING 9316
SWIDTH 960 0
DWIDTH 34 0
BBX 34 34 0 -2
BITMAP
0000000000
0000030000
0008038000
001C030000
0C38030000
0630030000
0760030000
03C0030000
0180030000
0383030300
07C3FFFF80
0CC3030300
18C3030300
2063030300
0063030300
0063030300
00E3030300
01F3030300
01B3030300
03B3030300
0633FFFF00
0C33030300
1833030000
2030030000
0030030000
0030030000
0030030000
0030030000
0030030000
0060030000
1FE0030000
01C0030000
0000000000
0000000000
ENDCHAR

STARTCHAR cns2_2465
ENCODING 9317
SWIDTH 960 0
DWIDTH 34 0
BBX 34 34 0 -2
BITMAP
0000000000
0000000000
0018180000
183C1C0000
0C70180000
06E0300000
07C0300000
0380606000
0780603000
0D80C01800
18C0C01C00
20C18FFE00
00C1FF8E00
00EFB18700
00EC318200
01E0318000
03E0318000
0360318000
0660318000
0C60718000
1860618000
2060618000
0060E18000
0060C18000
0060C18100
0061818100
0061818100
0063018300
00E301C300
3FC600FF80
0F8C003F00
0310000000
0000000000
0000000000
ENDCHAR

STARTCHAR cns2_2466
ENCODING 9318
SWIDTH 960 0
DWIDTH 34 0
BBX 34 34 0 -2
BITMAP
0000000000
00000C0000
00000E0000
081C0C0000
1C380C0000
0E700C0000
07C00C0000
03800C0300
078FFFFF80
0DC0000000
18C0000000
30C0000000
0060000000
006080C000
00E0FFE000
00F0C0E000
01B0C0C000
0330C0C000
0630C0C000
0C30C0C000
1830C0C000
3030C0C000
0030C0C000
0031C0C000
003180C000
003180C100
003300C100
003300C100
007600C380
00E600C380
1FCC00FF80
0388007F80
0000000000
0000000000
ENDCHAR

STARTCHAR cns2_2467
ENCODING 9319
SWIDTH 960 0
DWIDTH 34 0
BBX 34 34 0 -2
BITMAP
0000000000
0000000000
0010000000
1838003800
0C7001FC00
06E00FC000
03C0FE0000
0387C60000
0780060000
0DC0060000
18C0060000
20C0060000
0060060000
0060060000
00E0060000
01E0060300
01EFFFFF80
0360060000
0660060000
0C60060000
1860060000
3060060000
0060060000
0060060000
0060060000
0060060000
0060060000
0060060000
00E0060000
30C0060300
1FC7FFFF80
0380000000
0000000000
0000000000
ENDCHAR

STARTCHAR cns2_2468
ENCODING 9320
SWIDTH 960 0
DWIDTH 34 0
BBX 34 34 0 -2
BITMAP
0000000000
0000000000
0000000000
0018000600
3FFDFFFF00
0300030000
0300030000
0300030000
0300030000
0300030000
0300030000
0300030000
0330030000
3FF8030300
0303FFFF80
0300030000
0300030000
0300030000
0300030000
0300030000
0300030000
031C030000
03F0030000
0780030000
3E00030000
7800030000
3000030000
0000030000
0000030000
0000030000
0000030000
0000030000
0000000000
0000000000
ENDCHAR

STARTCHAR cns2_2469
ENCODING 9321
SWIDTH 960 0
DWIDTH 34 0
BBX 34 34 0 -2
BITMAP
0000000000
0000000000
0000000000
0000000C00
0019FFFE00
3FFC030000
0300030000
0300030000
0300030000
0300030000
0300030000
0300030000
0300030000
0318030300
3FFDFFFF80
0300030000
0300030000
0300030000
0300030000
0300030000
0300030000
0300030000
0338030000
03E0030000
0F80030000
7E00030000
3000030000
0000030000
0000030000
0000E70000
00003E0000
00000C0000
0000000000
0000000000
ENDCHAR

STARTCHAR cns2_246A
ENCODING 9322
SWIDTH 960 0
DWIDTH 34 0
BBX 34 34 0 -2
BITMAP
0000000000
0000000000
0000600000
0000700000
0018600000
3FFC600000
0300C00300
0300FFFF80
0300C00300
0301800300
0301800300
0301800300
0303000300
0332000300
3FF8300300
0300180300
03000C0300
03000E0300
0300070300
0300070300
0300030300
0300000600
0310000600
0370000600
03C0000600
0700000600
3E00000C00
3800000C00
3000000C00
0000001C00
00000FF800
000001F000
0000000000
0000000000
ENDCHAR

STARTCHAR cns2_246B
ENCODING 9323
SWIDTH 960 0
DWIDTH 34 0
BBX 34 34 0 -2
BITMAP
0000000000
0000000000
0000000700
0019C38600
3FFD830600
0301830600
0301830600
0301830600
0301830600
0301830600
0301830600
0301830600
0319830600
3FFD830600
0301830600
0301830600
0301830600
0301830600
0301830600
0301830600
0303030600
031B030600
03F3030600
0783030600
3F06030600
7C06030600
3006030600
0004000600
000C000600
000C000600
0008000600
0018000000
0000000000
0000000000
ENDCHAR

STARTCHAR cns2_246C
ENCODING 9324
SWIDTH 960 0
DWIDTH 34 0
BBX 34 34 0 -2
BITMAP
0000000000
0000000000
0000000000
000C000000
3FFE000600
0180FFFF00
0180060000
0180060000
0180060000
0180060000
0180060000
0180060000
0180060000
0180060000
0180060000
018C060000
1FFE060000
0180060000
0180060000
0180060000
0180060000
0180060000
0180060000
0180060000
0180060000
01B8060000
01E0060000
0F80060000
3E00060000
3800060300
001FFFFF80
0000000000
0000000000
0000000000
ENDCHAR

STARTCHAR cns2_246D
ENCODING 9325
SWIDTH 960 0
DWIDTH 34 0
BBX 34 34 0 -2
BITMAP
0000000000
0000000000
2006000000
3FFF000700
3186FFFF80
318600C000
318600C000
318600C000
318600C000
318600C000
318600C000
318600C000
3FFE00C000
318600C000
318600C000
318600C000
318600C000
318600C000
318600C000
318600C000
318600C000
318600C000
3FFE00C000
300600C000
300600C000
000000C000
000000C000
000000C000
000000C000
000039C000
00000F8000
0000030000
0000000000
0000000000
ENDCHAR

STARTCHAR cns2_246E
ENCODING 9326
SWIDTH 960 0
DWIDTH 34 0
BBX 34 34 0 -2
BITMAP
0000000000
0001800000
0001C00000
0001800000
0C01801800
0FFFFFFC00
0C01801800
0C01801800
0C01801800
0FFFFFF800
0C01801800
0C01801800
0C01801800
0C01801800
0FFFFFF800
0C00001800
0000000000
0000000300
3FFFFFFF80
0180000000
0180000000
0180003000
03FFFFF800
0300003000
0700003000
0000006000
0000006000
000000E000
000000C000
000001C000
0000FF8000
00003F0000
0000000000
0000000000
ENDCHAR

STARTCHAR cns2_246F
ENCODING 9327
SWIDTH 960 0
DWIDTH 34 0
BBX 34 34 0 -2
BITMAP
0000000000
0000180000
00001C0000
0000180000
0000180000
0180180300
01FFFFFF80
0180000000
0180000000
3180000000
1980000000
1980000000
1D80000300
0DBFFFFF80
0180180000
0180180000
0180180000
0180180000
0780180000
1D80180000
3980180000
3180180000
0300180000
0300180000
0300180000
0600180000
0600180000
0600180000
0C00180000
0C00180000
1807F80000
0000700000
0000000000
0000000000
ENDCHAR

STARTCHAR cns2_2470
ENCODING 9328
SWIDTH 960 0
DWIDTH 34 0
BBX 34 34 0 -2
BITMAP
0000000000
0000000000
0000000000
0000380000
0000300000
0000300000
0100300300
01FFFFFF80
0180000000
3183000000
1183800000
1983000000
1D83000000
0F83001800
0D83007C00
018301F000
0183078000
01831E0000
0183F00000
0783800000
3D83000000
3983000000
1303000000
0303000000
0303000000
0303000100
0603000300
0603000300
0C03000300
0C03800780
1801FFFF00
1000000000
0000000000
0000000000
ENDCHAR

STARTCHAR cns2_2471
ENCODING 9329
SWIDTH 960 0
DWIDTH 34 0
BBX 34 34 0 -2
BITMAP
0000000000
0001800000
0001800000
0003000000
0003000000
0206001800
03FFFFFC00
0300001800
0300001800
0300001800
0300001800
03FFFFF800
0300001800
0300001800
0300001800
0300001800
03FFFFF800
0300C01800
0000C00000
0000C00000
0000C00300
3FFFFFFF80
0000C00000
0000C00000
0000C00000
0000C00000
0000C00000
0000C00000
0000C00000
0000C00000
0000C00000
0000C00000
0000800000
0000000000
ENDCHAR

STARTCHAR cns2_2472
ENCODING 9330
SWIDTH 960 0
DWIDTH 34 0
BBX 34 34 0 -2
BITMAP
0000000000
0000000000
0380000000
0300003000
0301FFF800
0300183800
0300183000
0318183000
3FFC183000
0018186000
0018186000
0030186000
0060186300
00C018FF80
018018C380
018018C300
03C0180300
07F0180300
0DB8300300
1998300300
3180300600
6180300600
0180600600
0180600600
0180600600
0180C00600
0180C00C00
0181800C00
0181801800
0183003800
01860FF000
018001E000
0000000000
0000000000
ENDCHAR

STARTCHAR cns2_2473
ENCODING 9331
SWIDTH 960 0
DWIDTH 34 0
BBX 34 34 0 -2
BITMAP
0000000000
0000000000
0006000000
1FFF1C0000
060C180000
060C180000
060C180000
060C180000
060C180000
07FC180000
060C180000
060C180000
060C180000
060C180000
060C180000
060C180000
07FC180000
060C180000
060C180000
060C180000
060C180000
060C180000
061C180000
07FC180000
07CC180000
3E0C180100
180C180300
000C180300
000C180300
000C1C0700
000C0FFE00
000C000000
0000000000
0000000000
ENDCHAR

STARTCHAR cns2_2474
ENCODING 9332
SWIDTH 960 0
DWIDTH 34 0
BBX 34 34 0 -2
BITMAP
0000000000
0000000000
080C000000
0FFE000000
0C0C000300
0C0C7FFF80
0C0C018300
0C0C018300
0C0C018300
0C0C018300
0C0C018300
0FFC098300
0C0C198300
0C0C198300
0C0C318300
0C0C318300
0C0C618300
0C0C018300
0C0C018300
0FFC030300
0C0C030300
0C0C030300
0C0C060300
0C0C060300
180C060600
180C0C0600
180C0C0600
300C180C00
300C180C00
31FC301C00
607863F800
4000007000
0000000000
0000000000
ENDCHAR

STARTCHAR cns2_2475
ENCODING 9333
SWIDTH 960 0
DWIDTH 34 0
BBX 34 34 0 -2
BITMAP
0000000000
0000000000
0100006000
01FFFFF000
0180006000
0180006000
0180006000
0180006000
0180006000
01FFFFE000
0180006000
0000000000
0600001800
07FFFFFC00
0600001800
0600001800
0600001800
0600001800
07FFFFF800
0600001800
0600001800
0600001800
0600001800
07FFFFF800
0600001800
0600001800
0600001800
0600001800
0600001800
0600001800
060003F800
0600007000
0000000000
0000000000
ENDCHAR

STARTCHAR cns2_2476
ENCODING 9334
SWIDTH 960 0
DWIDTH 34 0
BBX 34 34 0 -2
BITMAP
0000000000
0000000000
080C300000
0FFE300000
0C0C300000
0C0C300000
0C0C600300
0C0C7FFF80
0C0C600000
0C0CC00000
0C0CC00000
0FFD800000
0C0D000000
0C0C003800
0C0C7FFC00
0C0C00E000
0C0C01C000
0C0C018000
0C0C030000
0FFC070000
0C0C060000
0C0C0C0000
0C0C180000
0C0C180000
1C0C300100
180C600100
180C600100
180CC00380
100CE00380
31FC701F00
20783FFC00
0000000000
0000000000
0000000000
ENDCHAR

STARTCHAR cns2_2477
ENCODING 9335
SWIDTH 960 0
DWIDTH 34 0
BBX 34 34 0 -2
BITMAP
0000000000
0000000000
0000180000
000C1C0000
0FFE180000
0C0C180000
0C0C180000
0C0C180000
0C0C183000
0C0FFFF800
0C0C183000
0C0C183000
0FFC183000
0C0C183000
0C0C183000
0C0C183000
0C0D983000
0C0CD83000
0C0C783000
0C0C383000
0FFC3C3000
0C0C3C3000
0C0C363000
0C0C673000
1C0C663000
180CC03100
180CC03100
180D803100
180D803180
300D003F80
30F8001F00
2030000000
0000000000
0000000000
ENDCHAR

STARTCHAR cns2_2478
ENCODING 9336
SWIDTH 960 0
DWIDTH 34 0
BBX 34 34 0 -2
BITMAP
0000000000
0000000000
0006000000
0FFF001C00
0C06003800
0C06007000
0C0600E000
0C0601C000
0C06070000
0C060E0000
0C06180000
0FFE600600
0C06000E00
0C06001C00
0C06003800
0C06007000
0C0600E000
0C06038000
0C06060000
0C061C0300
0FFE300380
0C06C00700
0C06000E00
0C06003C00
1C06007800
180600E000
180601C000
1806070000
18060E0000
3006180000
31FC600000
2018800000
0000000000
0000000000
ENDCHAR

STARTCHAR cns2_2479
ENCODING 9337
SWIDTH 960 0
DWIDTH 34 0
BBX 34 34 0 -2
BITMAP
0000000000
0018060000
001C070000
0018060000
0018060300
3FFFFFFF80
0018060000
0018060000
0018060000
0010040000
0000000600
1FFFFFFF00
0000C00000
0000C00000
0000C00000
0000C00000
0000C00000
0000C00000
0000F80000
0000DE0000
0000C78000
0000C1E000
0000C0E000
0000C00000
0000C00000
0000C00000
0000C00000
0000C00000
0000C00000
0000C00000
0000C00000
0000C00000
0000000000
0000000000
ENDCHAR

STARTCHAR cns2_247A
ENCODING 9338
SWIDTH 960 0
DWIDTH 34 0
BBX 34 34 0 -2
BITMAP
0000000000
0018060000
001C070000
0018060000
0018060000
0018060300
3FFFFFFF80
0018060000
0018060000
0018060000
0001840000
0001C00000
0001800000
0001800000
0001800000
0001800000
0001800000
0001800000
0001803000
07FFFFF800
0001800000
0001800000
0001800000
0001800000
0001800000
0001800000
0001800000
0001800000
0001800000
0001800000
0001800600
3FFFFFFF00
0000000000
0000000000
ENDCHAR

STARTCHAR cns2_247B
ENCODING 9339
SWIDTH 960 0
DWIDTH 34 0
BBX 34 34 0 -2
BITMAP
0000000000
0018060000
001C070000
0018060000
0018060300
3FFFFFFF80
0018060000
0018060000
0018060000
0010C40000
0000E00000
0000E38000
0000C0E000
0000C06000
0000C00600
0000C01F80
0000CBF800
001FFF0000
07FA600000
3F40600000
0000600000
0000300000
0000300000
0000180000
00001C0000
00000E0000
0000070100
0000038300
000001E300
0000007B00
0000003F00
0000000600
0000000000
0000000000
ENDCHAR

STARTCHAR cns2_247C
ENCODING 9340
SWIDTH 960 0
DWIDTH 34 0
BBX 34 34 0 -2
BITMAP
0000000000
0018060000
001C070000
0018060000
0018060300
3FFFFFFF80
0018060000
0018060000
0000060000
0000003000
07FFFFF800
0000003000
0000003000
0000003000
0000003000
0300003000
03FFFFF000
0300003000
0300000000
0600000000
0600000C00
07FFFFFE00
0C00000C00
0C00000C00
1800001800
0000001800
0000001800
0000003000
0000003000
0000306000
00001FE000
000003C000
0000000000
0000000000
ENDCHAR

STARTCHAR cns2_247D
ENCODING 9341
SWIDTH 960 0
DWIDTH 34 0
BBX 34 34 0 -2
BITMAP
0000000000
0018060000
001C070000
0018060000
0018060000
0018060300
3FFFFFFF80
0018060000
0018060000
0000000000
0000003000
03FFFFF800
0000003000
0000003000
0000003000
0000003000
0000003000
0000003000
0200003000
03FFFFF000
0300003000
0300003000
0300000000
0300000000
0300000800
0300000800
0300000800
0300001800
0380001C00
01C0003800
00FFFFF000
003FFFC000
0000000000
0000000000
ENDCHAR

STARTCHAR cns2_247E
ENCODING 9342
SWIDTH 960 0
DWIDTH 34 0
BBX 34 34 0 -2
BITMAP
0000000000
0018060000
001C070000
0018060000
0018060300
3FFFFFFF80
0018060000
0018060000
0000060000
0000003000
03FFFFF800
000000E000
0000018000
0000070000
00001C0000
0000F00000
0000E00000
0000C00000
0000C00000
0000C00300
1FFFFFFF80
0000C00000
0000C00000
0000C00000
0000C00000
0000C00000
0000C00000
0000C00000
0000C00000
0000C00000
003FC00000
0003800000
0000000000
0000000000
ENDCHAR

STARTCHAR cns2_2521
ENCODING 9505
SWIDTH 960 0
DWIDTH 34 0
BBX 34 34 0 -2
BITMAP
0000000000
0018060000
001C070000
0018060000
0018060300
3FFFFFFF80
0018060000
0018060000
0000060000
000000F000
00001FE000
002FFC0000
1FFFC00000
0000C00000
0000C00000
0000C00000
0000C00000
0000C00000
0000C00300
3FFFFFFF80
0000C00000
0000C00000
0000C00000
0000C00000
0000C00000
0000C00000
0000C00000
0000C00000
0000C00000
0000C00000
0000C00000
0000C00000
0000000000
0000000000
ENDCHAR

STARTCHAR cns2_2522
ENCODING 9506
SWIDTH 960 0
DWIDTH 34 0
BBX 34 34 0 -2
BITMAP
0000000000
0018060000
001C070000
0018060000
0018060300
3FFFFFFF80
0018060000
0018060000
0000060000
0000000000
0040030000
007FFF8000
0060030000
0060030000
0060030000
0060030000
0060030000
0063030000
0061830000
0061C30000
0060E30000
0060630000
00E0630000
00C0030000
00C0030000
0180030080
0180030080
0300030180
0300030180
0600038380
0C0001FF00
1800007E00
2000000000
0000000000
ENDCHAR

STARTCHAR cns2_2523
ENCODING 9507
SWIDTH 960 0
DWIDTH 34 0
BBX 34 34 0 -2
BITMAP
0000000000
0018060000
001C070000
0018060000
0018060600
3FFFFFFF00
0018060000
0018060000
0000060000
0000000000
0006000000
0007000000
0006000000
0006000000
0006018000
1FFFFFC000
0006018000
0006018000
0006018000
0006018000
03C6018000
0076018000
001E018000
000F018000
001F818000
0039C18000
0070E18100
00E0418100
01C0018300
070001C380
1C0000FF00
3000003E00
0000000000
0000000000
ENDCHAR

STARTCHAR cns2_2524
ENCODING 9508
SWIDTH 960 0
DWIDTH 34 0
BBX 34 34 0 -2
BITMAP
0000000000
0000000000
00001C0000
00007C0000
0000F00000
0003C00000
000E301C00
00781C7E00
01C00CF000
000E03C000
00070F8000
00031E0000
0000F80000
0003D80000
001E0C0000
01F00E0000
06001E0000
00003B0000
0000E18000
0003818000
000E038000
003807C000
01E00EC000
060038C000
0000E0E000
0003C0E000
000E00C000
003800C000
07C001C000
0001C38000
00007F8000
00001E0000
0000000000
0000000000
ENDCHAR

STARTCHAR cns2_2525
ENCODING 9509
SWIDTH 960 0
DWIDTH 34 0
BBX 34 34 0 -2
BITMAP
0000000000
0000000000
0000000000
1C04000300
0F07FFFF80
0386000300
0186000300
0006000300
0006000300
0006000300
3F86000300
0186000300
0387FFFF00
0606000300
0C06000000
1806000000
3006000000
7006000000
7FE6000000
00EC000000
00EC000000
01CC000000
01CC000000
038C000000
0708000000
0E18000000
3E10000000
7FC0000000
73F0000000
207C000000
001FFFFF80
0007FFFE00
0000000000
0000000000
ENDCHAR

STARTCHAR cns2_2526
ENCODING 9510
SWIDTH 960 0
DWIDTH 34 0
BBX 34 34 0 -2
BITMAP
0000000000
0000000000
0000060000
1C00070000
0F00060000
0380060000
0180060C00
0006060E00
0007060C00
0006060C00
3F86060C00
0186060C00
0386060C00
0606060C00
0C06060C00
1806060C00
3006060C00
7006060C00
7FE6060C00
00E6060C00
00E6060C00
01C6060C00
01C6060C00
0387FFFC00
0706000C00
0E06000C00
3E00000000
7FC0000000
73F8000000
207FFFFF80
000FFFFF00
0000000000
0000000000
0000000000
ENDCHAR

STARTCHAR cns2_2527
ENCODING 9511
SWIDTH 960 0
DWIDTH 34 0
BBX 34 34 0 -2
BITMAP
0000000000
0000000000
0070020600
006003FF00
0060030700
0060030600
0060630C00
3FFFF30C00
0000031800
0000031800
0000033000
0000033000
0000033000
0206036000
03FF033000
0306031800
0306030C00
0306030C00
0306030600
0306030700
0306030300
0306030180
0306030180
0306030180
0606030380
0606130700
0606137E00
0C06130C00
0C06330000
18073B0000
1003F30000
2000E00000
0000000000
0000000000
ENDCHAR

STARTCHAR cns2_2528
ENCODING 9512
SWIDTH 960 0
DWIDTH 34 0
BBX 34 34 0 -2
BITMAP
0000000000
0000000000
0060020600
007003FF00
0060030600
0060030600
0060030C00
0060330C00
3FFFFB0C00
00C0031800
00C0031800
00C0033000
00C0033000
00C0036000
00C0633000
00FFF31800
00C0631800
00C0630C00
00C0630600
01C0630600
0180630300
0180C30300
0180C30180
0300C30180
0300C30300
0700C30700
0600C37E00
0601830C00
0C01830000
0803030000
107F030000
200E020000
0000000000
0000000000
ENDCHAR

STARTCHAR cns2_2529
ENCODING 9513
SWIDTH 960 0
DWIDTH 34 0
BBX 34 34 0 -2
BITMAP
0000000000
0000000000
0030020600
003803FF00
0030030700
0030030600
0430030C00
04301B0C00
0FFFFF1800
0C301B1800
0C30331800
1C30333000
1830633000
1830436000
2030833000
003E031800
003C031C00
006C030C00
006C030600
006C030600
006C030300
00CC030300
00CC030180
018C030180
018C030380
030C0B0300
030C0B7F00
060C0B0E00
060C1B0000
0C0E3B0000
1807F30000
3000000000
0000000000
0000000000
ENDCHAR

STARTCHAR cns2_252A
ENCODING 9514
SWIDTH 960 0
DWIDTH 34 0
BBX 34 34 0 -2
BITMAP
0000000000
0030000000
0038020600
003003FF00
0030030700
0030030600
0030030C00
0030030C00
0030631800
1FFFF31800
0030031800
0030033000
0030033000
0030036000
0030033000
00301B1800
3FFFFF1C00
0030030C00
0030030E00
0078030700
0068030300
006C030300
00CC030380
00C6030380
0186030300
0183030700
0303837E00
0301C30C00
0600E30000
0C00730000
18003B0000
3000000000
0000000000
0000000000
ENDCHAR

STARTCHAR cns2_252B
ENCODING 9515
SWIDTH 960 0
DWIDTH 34 0
BBX 34 34 0 -2
BITMAP
0000000000
0000000000
0000020600
0000C3FF00
0FFFE30700
0000030600
0000030C00
0000030C00
0000030C00
0000031800
0000031800
0000033000
0000333000
1FFFFB6000
018C033000
018C031800
018C031C00
018C030C00
018C030600
018C030600
030C030300
030C030300
030C030380
060C030380
060C030300
060C0B0700
0C0C0B7E00
0C0C1B0C00
0C0E3B0000
1807F30000
3000030000
0000000000
0000000000
0000000000
ENDCHAR

STARTCHAR cns2_252C
ENCODING 9516
SWIDTH 960 0
DWIDTH 34 0
BBX 34 34 0 -2
BITMAP
0000000000
0000000000
0003020600
003F83FF00
0003830700
0303030600
0383030C00
0701830C00
0601831800
0E00C31800
0C00C31800
1800633000
1800333000
30001B6000
2000CF3000
0FFFE31800
00C0C31C00
00C0C30C00
00C0C30E00
00C0C30600
0180C30300
0180C30300
0180C30180
0300C30180
0300C30380
0300C30300
0601837F00
0601830E00
0C03030000
1BFF030000
303E030000
0008000000
0000000000
0000000000
ENDCHAR

STARTCHAR cns2_252D
ENCODING 9517
SWIDTH 960 0
DWIDTH 34 0
BBX 34 34 0 -2
BITMAP
0000000000
0000000000
2066030000
3FF7038000
3076030000
3066030000
30C6030000
30C6030000
3186030000
3186030000
3306030000
3306030000
3606330C00
3307F3FE00
3186030000
3186030000
30C6030000
30E6030000
3066030000
3036030000
3036030000
3036030000
3066030000
37E6030000
31C6030200
3006030600
3006630600
3007C30600
300F038F00
307C01FF00
3038007E00
3020000000
0000000000
0000000000
ENDCHAR

STARTCHAR cns2_252E
ENCODING 9518
SWIDTH 960 0
DWIDTH 34 0
BBX 34 34 0 -2
BITMAP
0000000000
0000000000
2060000000
3FF4000600
3077FFFF00
3066000000
30C6000000
30C6000000
3186000000
3186200C00
33063FFE00
3306300C00
3606300C00
3706300C00
3386300C00
3186300C00
30C6300C00
30E6300C00
3066300C00
3066301800
3066303800
306633F000
30C6306000
3FCC300000
318C300100
3018300100
3018300300
3030300300
3030300700
3060380E00
30C01FFC00
3000000000
0000000000
0000000000
ENDCHAR

STARTCHAR cns2_252F
ENCODING 9519
SWIDTH 960 0
DWIDTH 34 0
BBX 34 34 0 -2
BITMAP
0000000000
0000000000
2060000000
3FF0070000
3070060000
3060060000
30C0060000
30C0060000
3180060000
3180060000
3303060000
3303860000
3603060000
3303060000
3183060600
30C307FF00
30C3060000
3063060000
3033060000
3033060000
3033060000
3033060000
3063060000
37E3060000
31C3060000
3003060000
3003060000
3003060000
3003060300
307FFFFF80
3000000000
3000000000
0000000000
0000000000
ENDCHAR

STARTCHAR cns2_2530
ENCODING 9520
SWIDTH 960 0
DWIDTH 34 0
BBX 34 34 0 -2
BITMAP
0000000000
0000000000
20600C0000
3FF00E0000
30701C0000
3060180000
30C0380000
30C0306000
3180603000
3180601800
3300C00C00
330185FE00
361FFF8700
330F318600
3180318000
31C0318000
30C0318000
30E0718000
3070618000
3070618000
3070618000
3070C18000
3060C18000
3FE1C18000
31C1818080
3003018080
3003018180
3006018180
300C018380
301801C700
303000FE00
3000000000
0000000000
0000000000
ENDCHAR

STARTCHAR cns2_2531
ENCODING 9521
SWIDTH 960 0
DWIDTH 34 0
BBX 34 34 0 -2
BITMAP
0000000000
000C180000
000E1C0000
000C180000
000C180000
060C183000
07FFFFF800
060C183800
060C183000
060C183000
060C183000
060C183000
07FFFFF000
060C183000
000C180000
000C180000
180C181C00
1FFFFFFE00
180C180C00
180C180C00
180C180C00
1818180C00
1818180C00
1FFFFFFC00
1830180C00
1830180800
0030180000
0060180000
0060180000
00C0180000
0180180000
0100100000
0000000000
0000000000
ENDCHAR

STARTCHAR cns2_2532
ENCODING 9522
SWIDTH 960 0
DWIDTH 34 0
BBX 34 34 0 -2
BITMAP
0000000000
00000C0000
00C00E0000
00C00C0000
00C40C0000
018C0C0300
018FFFFF80
030C000700
031C000600
0718000C00
0630000000
0E0000F800
0F0003E000
1E001F0000
1E00F80000
361F980000
3600180000
6600180600
060018FF00
06001FF000
063FFE0000
061E180000
0600180000
0600180000
0600180100
0600180100
0600180300
0600180300
0600180700
06001C1E00
06000FFC00
0600000000
0000000000
0000000000
ENDCHAR

STARTCHAR cns2_2533
ENCODING 9523
SWIDTH 960 0
DWIDTH 34 0
BBX 34 34 0 -2
BITMAP
0000000000
00000C0000
00600E0000
00600C0000
00C00C0000
00C00C0000
00C00C0300
019FFFFF80
0180000000
0300000000
0300E0C000
0781E0E000
0701C03800
0F03801C00
1B07000E00
1B0C002E00
3318C07600
2320C06000
430060C000
030060C000
0300318000
0300318000
03001B0000
03001F0000
03000E0000
03001F0000
03003B8000
030061C000
0301C0F000
0303007C00
030C001F00
0230000400
0000000000
0000000000
ENDCHAR

STARTCHAR cns2_2534
ENCODING 9524
SWIDTH 960 0
DWIDTH 34 0
BBX 34 34 0 -2
BITMAP
0000000000
00000C0000
00600E0000
00700C0000
00600C0000
00C00C0000
00C00C0300
00DFFFFF80
0180180000
0180300000
0380300000
0300600000
0780606000
078EC06000
0D8380C000
1D8181C000
3181C38000
6180C70400
01801E0E00
0180381C00
0180703800
0180E07000
018180E000
018601C000
0198038000
018007C000
01801E6000
0180383800
0180E01C00
0183800E00
019E000700
0138000300
0000000000
0000000000
ENDCHAR

STARTCHAR cns2_2535
ENCODING 9525
SWIDTH 960 0
DWIDTH 34 0
BBX 34 34 0 -2
BITMAP
0000000000
0000000000
00C00C0000
00C00C0000
00C00C0000
0180180000
0181980000
01BFD80200
03001FFF00
0300380700
0300300600
0780338600
0700630C00
0F00630C00
1F00C31800
1B00030000
3300030000
6300C30000
0301878000
0303078000
030E06C000
031C0EC000
03380CE000
03101C6000
0300187000
0300303000
0300303800
0300601C00
0300C00E00
0301800700
0303000780
0206000300
0000000000
0000000000
ENDCHAR

STARTCHAR cns2_2536
ENCODING 9526
SWIDTH 960 0
DWIDTH 34 0
BBX 34 34 0 -2
BITMAP
0000000000
0000000000
00C0000000
00E0000380
00C0060300
01CFFF6300
0183186300
0183186300
0303186300
0303186300
0303186300
0783186300
0703186300
0F03186300
1F031B6300
1B3FFFE300
3303186300
6303186300
4303186300
0303186300
0303186300
0306186300
0306186300
0306186300
030C180300
030C180300
030C180300
030C180300
0318180300
0318180600
033018FE00
0320000C00
0000000000
0000000000
ENDCHAR

STARTCHAR cns2_2537
ENCODING 9527
SWIDTH 960 0
DWIDTH 34 0
BBX 34 34 0 -2
BITMAP
0000000000
0000000000
00C00E0000
00E00C0000
00C00C0000
01C00C0600
01CFFFFF00
01800C0000
03800C0000
03000C0600
030FFFFF00
07800C0700
07000C0600
0F000C0600
1B0C0C0600
1B0FFFFE00
330C0C0600
43180C0000
03180C0300
031FFFFF80
0330180380
03301C0300
03003E0300
0300330300
0300719F00
030061C600
0300E0E000
0301C07000
0303803800
0307001E00
030C000F80
0318000600
0020000000
0000000000
ENDCHAR

STARTCHAR cns2_2538
ENCODING 9528
SWIDTH 960 0
DWIDTH 34 0
BBX 34 34 0 -2
BITMAP
0000000000
0000000000
00C00E0000
00C00C0000
00C00C0000
01C00C0000
01800C0000
01800C0300
031FFFFF80
03000C0000
03000C0000
07800C0000
07000C0000
0F000C0000
0F000C0600
1B0FFFFF00
3300000000
4300000000
0300000000
0300000000
0306000C00
0307FFFE00
0306000C00
0306000C00
0306000C00
0306000C00
0306000C00
0306000C00
0306000C00
0307FFFC00
0306000C00
0306000000
0000000000
0000000000
ENDCHAR

STARTCHAR cns2_2539
ENCODING 9529
SWIDTH 960 0
DWIDTH 34 0
BBX 34 34 0 -2
BITMAP
0000000000
0000000000
00C0000000
00E0000600
00CFFFFF00
01C1803000
0181803000
0181803000
0181803000
0301803000
0301FFF000
0781803000
0701803000
0F01803000
1F01803000
1B01803000
3301803000
4301FFF000
0301803000
0301803000
0301803000
0301803000
0301803F80
03018BFE00
0301FEB000
033FD03000
0300003000
0300003000
0300003000
0300003000
0300003000
0300003000
0000000000
0000000000
ENDCHAR

STARTCHAR cns2_253A
ENCODING 9530
SWIDTH 960 0
DWIDTH 34 0
BBX 34 34 0 -2
BITMAP
0000000000
0000000000
00C0300000
00C0300000
00C0600000
0180600600
019FFFFF00
0180C30000
0380C18000
030181C000
030300E000
0786007000
070C031C00
0F1BFF8E00
1F30000700
1B40000000
3300000000
0300000600
031FFFFF00
0303000000
0303000000
0303000000
0306001800
0307FFFC00
0306001C00
030C001800
0300001800
0300003000
0300003000
0300006000
03001FE000
0300078000
0000000000
0000000000
ENDCHAR

STARTCHAR cns2_253B
ENCODING 9531
SWIDTH 960 0
DWIDTH 34 0
BBX 34 34 0 -2
BITMAP
0000000000
0000000000
00C0000000
00C0000000
00C0000600
018FFFFF00
0180600000
0180600000
0300600000
0300C0C000
0300C06000
0781803000
0701801800
0F03FFFC00
1F3F000E00
1B18080E00
33000E0000
03000C0000
03000C0000
03000C0000
03000C0000
03000C0600
030FFFFF00
03000C0000
03000C0000
03000C0000
03000C0000
03000C0000
03000C0000
03000C0300
033FFFFF80
0300000000
0000000000
0000000000
ENDCHAR

STARTCHAR cns2_253C
ENCODING 9532
SWIDTH 960 0
DWIDTH 34 0
BBX 34 34 0 -2
BITMAP
0000000000
0000000000
00C0000000
00E6001800
00C7FFFC00
01C6001800
0186001800
0186001800
0306001800
0306001800
0307FFF800
0606001800
0786001800
0F06001800
1F06001800
1B06001800
3307FFF800
2306181800
0306180000
03060C0600
03060C0F00
0306063800
030607E000
0306038000
0306038000
030601C000
030600E000
0306F07000
0307C03800
033E001E00
0378000F00
0300000000
0000000000
0000000000
ENDCHAR

STARTCHAR cns2_253D
ENCODING 9533
SWIDTH 960 0
DWIDTH 34 0
BBX 34 34 0 -2
BITMAP
0000000000
0000000000
00C0000000
00E0E1C000
00C0C18000
01C0C18000
0180C18000
0180C18000
031CC18000
0318C18000
0318C18700
0618C18F80
0798CD9E00
0F18FFB800
0F18C1F000
1B18C1C000
3318C18000
6318C18000
0318C18000
0318C18000
0318C18000
0318C18000
0318C18000
0318C18000
0318C18000
0318CD8100
0318F18100
0318E18300
031F81C300
033E00FF00
0378003E00
0320000000
0000000000
0000000000
ENDCHAR

STARTCHAR cns2_253E
ENCODING 9534
SWIDTH 960 0
DWIDTH 34 0
BBX 34 34 0 -2
BITMAP
0000000000
0000000000
00C0000000
00C6000300
00C7FFFF80
0186000300
0186000300
0186000300
0306003300
03067FFB00
0306000300
0786000300
0706000300
0F06000300
1F06206300
1B063FF300
3306306300
0306306300
0306306300
0306306300
0306306300
0306306300
03063FE300
0306306300
0306000300
0306000300
0306000300
0306000300
0306000300
0306000300
0306007F00
0304000E00
0000000000
0000000000
ENDCHAR

STARTCHAR cns2_253F
ENCODING 9535
SWIDTH 960 0
DWIDTH 34 0
BBX 34 34 0 -2
BITMAP
0000000000
0000000000
00C0000000
00C0000000
00C8000300
018FFFFF80
018C000300
018C000300
030C000300
030C000300
030C000300
078C606300
070C7FF300
0F0C606300
0F0C606300
1B0C606300
330C606300
230C606300
030C606300
030C606300
030C606300
030C7FE300
030C606300
030C404300
030C000300
030C000300
030C000300
030C000300
030C000300
030FFFFF00
030C000300
0300000000
0000000000
0000000000
ENDCHAR

STARTCHAR cns2_2540
ENCODING 9536
SWIDTH 960 0
DWIDTH 34 0
BBX 34 34 0 -2
BITMAP
0000000000
0000000000
00C3000000
00C3800000
00C3000000
0186000000
0186000300
0187FFFF80
030C000300
030C000300
0318000300
0798000300
0734018300
0F67FFC300
1B46018300
1B06018300
3306018300
2306018300
0307FF8300
0306018600
0306018300
0306018600
0306018600
0306018600
0307FF8600
0306010C00
0300000C00
0300000C00
0300001800
0300003800
03000FF000
030001E000
0000000000
0000000000
ENDCHAR

STARTCHAR cns2_2541
ENCODING 9537
SWIDTH 960 0
DWIDTH 34 0
BBX 34 34 0 -2
BITMAP
0000000000
0000000000
00C0C00000
00C0C00000
00C1806000
0181FFF000
0183006000
018300C000
030600C000
030C018000
0318030300
063FFFFF80
060C000000
0F0C000000
0B0C000000
1B0C403000
330C7FF800
030C603000
030C603000
030C603000
030C603000
030C603000
030C603000
0318607000
031867E000
031860C100
0318600100
0318600100
0318600180
0330600380
0330700700
03303FFC00
0000000000
0000000000
ENDCHAR

STARTCHAR cns2_2542
ENCODING 9538
SWIDTH 960 0
DWIDTH 34 0
BBX 34 34 0 -2
BITMAP
0000000000
0000000000
00C00C0000
00C00E0000
00C30C0000
01838C0000
01830C0000
01830C0000
03060C0C00
0307FFFE00
03060C0000
060C0C0000
078C0C0000
0F180C0000
0F000C0000
1B000C0600
333FFFFF00
0300630000
0300630000
0300630000
0300630000
0300630000
0300C30000
0300C30000
0300C30000
0301830100
0301830100
0303030300
0306030300
030C038780
031801FF00
0360000000
0000000000
0000000000
ENDCHAR

STARTCHAR cns2_2543
ENCODING 9539
SWIDTH 960 0
DWIDTH 34 0
BBX 34 34 0 -2
BITMAP
0000000000
0000000000
00C0000000
00C0003C00
00C003F000
01807F8000
018FFC0000
01800C0000
03000C0000
03000C0000
03000C0000
06000C0300
07BFFFFF80
0F000C0000
0F000C0000
1B000C0000
33000C0000
63000C0000
03000C0000
03060C0C00
0307FFFE00
0306000C00
0306000C00
0306000C00
0306000C00
0306000C00
0306000C00
0306000C00
0306000C00
0307FFFC00
0306000C00
0300000000
0000000000
0000000000
ENDCHAR

STARTCHAR cns2_2544
ENCODING 9540
SWIDTH 960 0
DWIDTH 34 0
BBX 34 34 0 -2
BITMAP
0000000000
0000000000
00C0180000
00E0180000
00C0300000
0180300000
0180600000
0180600000
0300603000
031FFFF800
0318C63000
0618C63000
0718C63000
0F18C63000
1B18C63000
3B18C63000
7318C63000
4318C63000
0318C63000
0318C63000
0318C63000
0318C63000
0318C63000
0318C63000
0318C63000
0318C63000
0318C63000
0318C63000
0318C63000
0318C63300
037FFFFF80
0300000000
0000000000
0000000000
ENDCHAR

STARTCHAR cns2_2545
ENCODING 9541
SWIDTH 960 0
DWIDTH 34 0
BBX 34 34 0 -2
BITMAP
0000000000
0000000000
00C00C0000
00C00C0000
00C0180000
0180180000
0184301800
0187FFFC00
0306001800
0306001800
0306301800
0786181800
07061C1800
0F060E1800
1B06041800
1B06001800
3306001B00
637FFFFF80
0306181800
0306181800
0306181800
0306181800
0306181800
030E181800
030C181800
030C181800
030C181800
0308181800
0318001800
0318001800
033003F800
0320007000
0000000000
0000000000
ENDCHAR

STARTCHAR cns2_2546
ENCODING 9542
SWIDTH 960 0
DWIDTH 34 0
BBX 34 34 0 -2
BITMAP
0000000000
0000000000
00C0180000
00E0380000
00C0308000
0180706000
0180603800
0180C03C00
03019FEF00
031FF80700
030E000200
07800C0000
07060C0000
0F070C0000
0B060C0000
1B040C0000
330C0C0C00
030FFFFE00
031C0C0000
03100C0000
03600C0000
03000C0000
03000C0600
033FFFFF80
03000C0000
03000C0000
03000C0000
03000C0000
03000C0000
03000C0000
03000C0000
03000C0000
0000000000
0000000000
ENDCHAR

STARTCHAR cns2_2547
ENCODING 9543
SWIDTH 960 0
DWIDTH 34 0
BBX 34 34 0 -2
BITMAP
0000000000
0000000000
00C0000000
00C3000000
00C3000000
0183000000
0186020300
018603FF80
0306330300
033FFF0300
030C330300
078C330300
070C330300
0F0C330300
1B18330300
1B18630300
3318630300
6330630300
0330630300
0330C30300
033CC30300
0376C30300
0363C30300
0301830300
0301C30300
0303E30300
0306730300
030E3B0300
030C1BFF00
0318030300
0330000000
0360000000
0000000000
0000000000
ENDCHAR

STARTCHAR cns2_2548
ENCODING 9544
SWIDTH 960 0
DWIDTH 34 0
BBX 34 34 0 -2
BITMAP
0000000000
0000000000
01801C0000
01C0180000
0180180000
0390180600
031FFFFF00
0318000600
0618000C00
0638300800
0630380000
0F00300000
0E00300000
1E00600000
1E00601800
361FFFFC00
6600C0C000
4600C0C000
060180C000
0601818000
0603018000
0603018000
0607030000
0607C30000
060E7B0000
06000E0000
06000F8000
060019E000
0600707000
0600E03800
0603801C00
060E000000
0000000000
0000000000
ENDCHAR

STARTCHAR cns2_2549
ENCODING 9545
SWIDTH 960 0
DWIDTH 34 0
BBX 34 34 0 -2
BITMAP
0000000000
0000000000
00C0070000
00E0060000
00C0060000
01C8060300
018FFFFF80
018C000000
030C001800
030C00FC00
030C0FC000
078DFC0000
070C0C0000
0F0C0C0000
0F0C0C0000
1B0C0C0000
330C0C0300
630C0C3F80
030C0FF800
030C3F8000
030FEC0000
030C0C0000
03180C0000
03180C0000
03180C0000
03180C0100
03180C0300
03180C0300
03100C0300
03300E0700
032007FE00
030001F800
0000000000
0000000000
ENDCHAR

STARTCHAR cns2_254A
ENCODING 9546
SWIDTH 960 0
DWIDTH 34 0
BBX 34 34 0 -2
BITMAP
0000000000
0000000000
00C0000000
00E0000300
00CFFFFF80
01C00C0000
01800C0000
01800C0000
0300180000
0300180000
0308180600
078FFFFF00
070C318700
0F0C318600
0F0C318600
1B0C318600
330C318600
630C318600
030C318600
030C318600
030C318600
030C318600
030C318600
030C318600
030C318600
030C318600
030C318600
030C318600
030C318600
030C318E00
030C003E00
0300000C00
0000000000
0000000000
ENDCHAR

STARTCHAR cns2_254B
ENCODING 9547
SWIDTH 960 0
DWIDTH 34 0
BBX 34 34 0 -2
BITMAP
0000000000
0000000000
00C0600000
00E0E00000
00C0C01800
0181FFFC00
0181803800
0303803000
0303806000
0706C06000
060660C000
0F0C318000
0E183B8000
1E201E0000
1E000F0000
36003B8000
660071E000
0601C07C00
0607001F80
060C000700
0670001800
0607FFFC00
0606001C00
0606001800
0606001800
0606001800
0606001800
0606001800
0606001800
0606001800
0607FFF800
0606001800
0000000000
0000000000
ENDCHAR

STARTCHAR cns2_254C
ENCODING 9548
SWIDTH 960 0
DWIDTH 34 0
BBX 34 34 0 -2
BITMAP
0000000000
0000000000
00C00C0000
00E01E0000
00C01E0000
01C03B0000
0180738000
0380618000
0300C0C000
0701806000
0603003800
0E06001C00
0F0C000F00
1E18006380
1633FFF000
3600000000
6600000000
4600000000
0604000C00
0607FFFE00
0606000C00
0606000C00
0606000C00
0606000C00
0606000C00
0606000C00
0606000C00
0606000C00
0606000C00
0607FFFC00
0606000C00
0606000000
0000000000
0000000000
ENDCHAR

STARTCHAR cns2_254D
ENCODING 9549
SWIDTH 960 0
DWIDTH 34 0
BBX 34 34 0 -2
BITMAP
0000000000
0000000000
0600000000
0600000700
07FFFFFF80
0600000E00
0E00000C00
0C00001800
1C01C00000
2801800000
018180E000
00C181C000
0071838000
0039870000
00318E0000
0001980000
0001800600
1FFFFFFF00
0001800000
0007B00000
000F980000
001D8C0000
00398E0000
0071870000
00C1838000
018181E000
0301807800
0C01803E00
1001800C00
0001800000
0001800000
0000000000
0000000000
0000000000
ENDCHAR

STARTCHAR cns2_254E
ENCODING 9550
SWIDTH 960 0
DWIDTH 34 0
BBX 34 34 0 -2
BITMAP
0000000000
0000000000
00000C0000
00000E0000
00010C0000
18038C0000
0C030C0000
0E030C0000
07060C0C00
0307FFFE00
00660C0000
004C0C0000
00CC0C0000
00D80C0000
00800C0000
01800C0600
01BFFFFF00
0180630000
0300630000
0300630000
0700630000
0700630000
3E00630000
0E00C30000
0600C30000
0601830100
0701830100
0703030300
0706030300
060C038780
001801FF00
0060000000
0000000000
0000000000
ENDCHAR

STARTCHAR cns2_254F
ENCODING 9551
SWIDTH 960 0
DWIDTH 34 0
BBX 34 34 0 -2
BITMAP
0000000000
0000000000
00000C0000
00000C0000
00001E0000
18001B0000
0C00318000
0E00608000
0700C0C000
0301806000
0063003800
0046001C00
00CC000F00
0098006780
00B3FFF200
0180000000
0180000000
0300000000
0300000000
0304001800
0707FFFC00
0606001800
3E06001800
0E06001800
0606001800
0706001800
0706001800
0706001800
0706001800
0606001800
0007FFF800
0006001800
0000000000
0000000000
ENDCHAR

STARTCHAR cns2_2550
ENCODING 9552
SWIDTH 960 0
DWIDTH 34 0
BBX 34 34 0 -2
BITMAP
0000000000
0000000000
0000000000
0000C00380
1FFFE00300
0306070300
0306060300
0306060300
0306060300
0306060300
03FE060300
0306060300
0306060300
0306060300
0306060300
0306060300
0306060300
03FE060300
0306060300
0306060300
0306060300
0306060300
0306060300
037E000300
07E6000300
1F06000300
0C06000300
0006000300
0006000300
000600FF00
0006003E00
0000000400
0000000000
0000000000
ENDCHAR

STARTCHAR cns2_2551
ENCODING 9553
SWIDTH 960 0
DWIDTH 34 0
BBX 34 34 0 -2
BITMAP
0000000000
0000000000
0070000000
0060000700
0060000600
0060070600
0061860600
0FFFC60600
0060060600
0060060600
0060060600
0060060600
0060C60600
1FFFE60600
0000060600
0000060600
0070060600
0060060600
0060060600
0061860600
1FFFC60600
0060060600
0060060600
0060000600
0060000600
0061C00600
006F000600
00F8000600
0FC0000600
1F0001CE00
1800007C00
0000001800
0000000000
0000000000
ENDCHAR

STARTCHAR cns2_2552
ENCODING 9554
SWIDTH 960 0
DWIDTH 34 0
BBX 34 34 0 -2
BITMAP
0000000000
0000000000
0030000600
0038000700
0030000600
0030198600
1FFFFDC600
0030018600
0078018600
00EE018600
01C3818600
0380E18600
0700718600
0E01A18600
3BFFC18600
0000018600
0000018600
0000318600
1FFFF98600
0180018600
0100018600
0380618600
03FFF18600
0700600600
0000600600
0000C00600
0000C00600
0000C00600
0001800600
01C381CE00
00FF007C00
001E001800
0000000000
0000000000
ENDCHAR

STARTCHAR cns2_2553
ENCODING 9555
SWIDTH 960 0
DWIDTH 34 0
BBX 34 34 0 -2
BITMAP
0000000000
0000000000
0018000600
001C000700
0018000600
0018018600
0418C1C600
07FFE18600
0600C18600
0600C18600
0600C18600
0600C18600
07FFC18600
0600C18600
0600C18600
0600C18600
0600C18600
07FFC18600
0600C18600
0600018600
0600018600
0600018600
0600018600
0603000600
0601800600
0601800600
0607C00600
067EE00600
07F0600600
3F0061CE00
1C00007C00
0000001800
0000000000
0000000000
ENDCHAR

STARTCHAR cns2_2554
ENCODING 9556
SWIDTH 960 0
DWIDTH 34 0
BBX 34 34 0 -2
BITMAP
0000000000
0000000000
039C000000
0318000000
0318001800
0318FFFC00
0318061C00
0318061800
031B061800
1FFF861800
0318061800
0318361800
0318361800
0318661C00
0318661E00
0318E61B00
0318C61980
0318861980
031B0C1880
3FFF8C1800
03180C1800
03180C1800
0318181800
0318183000
0618181800
0618303000
0618303000
0C18603000
0C18606000
0818C7E000
181981C000
0001000000
0000000000
0000000000
ENDCHAR

STARTCHAR cns2_2555
ENCODING 9557
SWIDTH 960 0
DWIDTH 34 0
BBX 34 34 0 -2
BITMAP
0000000000
0000000000
00E0038000
00C0030000
00C0030000
00C0030000
00C0C30000
3FFFE30000
00C0030000
00C0030600
00C03FFF00
00C0030700
00C0030600
00C1830600
3FFFC30600
0000030600
0000030600
0000030600
0000030600
1003030600
1FFF860600
1803060600
1803060600
1803060600
18030C0C00
18030C0600
1803180C00
1803180C00
1803301C00
1FFF61F800
1803407000
0000000000
0000000000
0000000000
ENDCHAR

ENDFONT
